<?xml version="1.0" encoding="UTF-8" standalone="no"?>
<!-- Created with Inkscape (http://www.inkscape.org/) -->

<svg
   width="2073mm"
   height="944mm"
   viewBox="0 0 2073 944"
   version="1.1"
   id="svg450"
   xml:space="preserve"
   inkscape:version="1.2.2 (732a01da63, 2022-12-09, custom)"
   sodipodi:docname="gst-invoicing.svg"
   inkscape:export-filename="../c3625592/gst-invoicing.png"
   inkscape:export-xdpi="25.400002"
   inkscape:export-ydpi="25.400002"
   xmlns:inkscape="http://www.inkscape.org/namespaces/inkscape"
   xmlns:sodipodi="http://sodipodi.sourceforge.net/DTD/sodipodi-0.dtd"
   xmlns="http://www.w3.org/2000/svg"
   xmlns:svg="http://www.w3.org/2000/svg"><sodipodi:namedview
     id="namedview452"
     pagecolor="#ffffff"
     bordercolor="#000000"
     borderopacity="0.25"
     inkscape:showpageshadow="2"
     inkscape:pageopacity="0.0"
     inkscape:pagecheckerboard="0"
     inkscape:deskcolor="#d1d1d1"
     inkscape:document-units="px"
     showgrid="false"
     inkscape:lockguides="false"
     inkscape:zoom="0.12409585"
     inkscape:cx="4150.0179"
     inkscape:cy="1462.5791"
     inkscape:window-width="1846"
     inkscape:window-height="1016"
     inkscape:window-x="0"
     inkscape:window-y="0"
     inkscape:window-maximized="1"
     inkscape:current-layer="layer5" /><defs
     id="defs447" /><g
     inkscape:label="Layer 1"
     inkscape:groupmode="layer"
     id="layer1" /><g
     inkscape:groupmode="layer"
     id="layer5"
     inkscape:label="backgroud"><g
       id="g3057"
       transform="matrix(1.626597,0,0,1.626597,1172.1571,144.45815)"><g
         id="freepik--background-simple--inject-124"><path
           d="M 415.17,105.29 C 406.39,90.37 394.12,78.15 378.6,68.18 326.91,35 256.67,23 196.28,32.06 c -43.14,6.44 -71.9,35.77 -90.29,74 C 84.25,151.18 64.51,196.1 39.77,240 11.36,290.28 -1.38,342.58 60.34,386 c 53.4,37.58 120.38,27.83 181.6,26.63 20.28,-0.4 40.72,0.27 60.68,4.2 39.67,7.8 78.21,35.53 117.22,9.63 29.66,-19.68 47.13,-56.87 55.59,-90.57 5.05,-20.08 9,-42.23 7.15,-63.55 -2.05,-23.35 -12.82,-40.93 -23.9,-60.81 A 354.33,354.33 0 0 1 426.33,132.1 109.15,109.15 0 0 0 415.17,105.29 Z"
           style="fill:#006642"
           id="path3997" /><path
           d="M 415.17,105.29 C 406.39,90.37 394.12,78.15 378.6,68.18 326.91,35 256.67,23 196.28,32.06 c -43.14,6.44 -71.9,35.77 -90.29,74 C 84.25,151.18 64.51,196.1 39.77,240 11.36,290.28 -1.38,342.58 60.34,386 c 53.4,37.58 120.38,27.83 181.6,26.63 20.28,-0.4 40.72,0.27 60.68,4.2 39.67,7.8 78.21,35.53 117.22,9.63 29.66,-19.68 47.13,-56.87 55.59,-90.57 5.05,-20.08 9,-42.23 7.15,-63.55 -2.05,-23.35 -12.82,-40.93 -23.9,-60.81 A 354.33,354.33 0 0 1 426.33,132.1 109.15,109.15 0 0 0 415.17,105.29 Z"
           style="opacity:0.7;fill:#ffffff"
           id="path3999" /></g><g
         id="freepik--Plants--inject-124"><g
           style="opacity:0.2"
           id="g4008"><path
             d="m 405.63,249.7 c 1.18,2.77 6.18,7.28 6.18,7.28 0,0 2,-4.2 2.06,-4.48 1.05,-3.26 1.15,-10.18 -2,-12.41 a 4.54,4.54 0 0 0 -6.56,1.63 c -1.31,2.35 -0.68,5.63 0.32,7.98 z"
             id="path4002" /><path
             d="m 454.14,297.52 c 0,0.06 4,-2.42 4.19,-2.6 2.67,-2.14 6.58,-7.86 5.21,-11.44 a 4.54,4.54 0 0 0 -6.37,-2.25 c -2.42,1.22 -3.71,4.29 -4.17,6.81 -0.54,2.96 1.14,9.47 1.14,9.48 z"
             id="path4004" /><path
             d="m 485.5,293.56 c -2.49,-2.91 -9.38,-2.22 -12.54,-0.9 -0.27,0.11 -4.34,2.39 -4.29,2.44 h 0.06 c -1.08,0.1 -2.25,0.22 -3.52,0.38 -2.34,0.31 -5,0.68 -7.83,1.28 a 80.84,80.84 0 0 0 -9.11,2.36 59.53,59.53 0 0 0 -9.71,4.06 l -0.11,0.07 c 0.79,-0.81 2.91,-3.13 3.05,-3.32 2,-2.78 4.27,-9.32 2,-12.41 a 4.53,4.53 0 0 0 -6.73,-0.49 c -2,1.81 -2.45,5.12 -2.23,7.67 0.25,2.87 3.31,8.32 3.56,8.76 a 81,81 0 0 0 -9,5.84 c -1.67,1.25 -3.32,2.55 -5,3.87 0.66,-0.71 1.24,-1.36 1.31,-1.46 2,-2.77 4.27,-9.31 2,-12.41 a 4.54,4.54 0 0 0 -6.74,-0.48 c -2,1.81 -2.45,5.11 -2.23,7.66 0.22,2.55 2.75,7.29 3.43,8.53 l -1.87,1.54 c -3,2.48 -5.94,5 -8.91,7.33 -1,0.83 -2.12,1.61 -3.18,2.39 0.58,-0.64 1.07,-1.18 1.14,-1.27 2,-2.77 4.26,-9.31 2,-12.4 a 4.53,4.53 0 0 0 -6.74,-0.49 c -2,1.81 -2.44,5.12 -2.23,7.66 0.21,2.54 2.5,6.83 3.31,8.3 -1.11,0.77 -2.22,1.55 -3.33,2.24 -0.77,0.46 -1.48,0.95 -2.28,1.37 l -2.26,1.32 c -1.51,0.75 -3.06,1.54 -4.55,2.24 -1,0.5 -2,0.95 -3,1.41 1.06,-0.81 3.09,-2.45 3.24,-2.61 a 17.62,17.62 0 0 0 4.17,-7.85 6,6 0 0 0 0.64,-0.78 4.54,4.54 0 0 0 -1.4,-6.61 c -3.37,-1.82 -9.54,1.29 -12,3.66 -0.14,0.14 -1.56,1.83 -2.43,2.92 0.41,-0.72 0.83,-1.41 1.25,-2.15 0.84,-1.46 1.64,-2.94 2.5,-4.53 0.39,-0.78 0.79,-1.57 1.18,-2.37 0.39,-0.8 0.75,-1.66 1.13,-2.5 0.85,-2 1.6,-4 2.32,-6 1.28,0.74 5.86,3.28 8.42,3.54 2.56,0.26 5.86,-0.11 7.7,-2.1 a 4.53,4.53 0 0 0 -0.37,-6.74 c -3.06,-2.32 -9.64,-0.17 -12.44,1.79 -0.18,0.13 -2,1.76 -3,2.68 0.42,-1.24 0.85,-2.48 1.23,-3.75 1.12,-3.66 2.13,-7.41 3.16,-11.14 0.32,-1.15 0.65,-2.28 1,-3.42 0.45,0.27 5.83,3.41 8.7,3.7 2.54,0.26 5.85,-0.11 7.7,-2.1 a 4.53,4.53 0 0 0 -0.38,-6.74 c -3.05,-2.32 -9.63,-0.17 -12.44,1.79 -0.21,0.15 -2.87,2.51 -3.52,3.14 0.71,-2.5 1.45,-5 2.27,-7.42 a 80.58,80.58 0 0 1 3.91,-9.6 c 0.21,0.12 5.81,3.43 8.75,3.73 2.54,0.26 5.85,-0.12 7.7,-2.1 a 4.53,4.53 0 0 0 -0.38,-6.74 c -3.05,-2.32 -9.63,-0.17 -12.44,1.79 -0.18,0.13 -2.21,1.93 -3.16,2.8 l -0.17,-0.13 a 57.69,57.69 0 0 1 5.61,-8.79 c 1.15,-1.53 2.34,-2.93 3.52,-4.27 1,0.72 5.49,4 8.1,4.54 2.61,0.54 5.84,0.53 7.89,-1.24 a 4.54,4.54 0 0 0 0.37,-6.75 c -2.79,-2.64 -9.56,-1.22 -12.56,0.42 -0.17,0.09 -1.73,1.18 -2.85,2 0.54,-0.6 1.09,-1.22 1.63,-1.78 2,-2.11 3.95,-3.91 5.69,-5.5 1,-0.89 1.92,-1.68 2.79,-2.41 1.34,0.21 6.71,1 9.24,0.28 2.53,-0.72 5.42,-2.22 6.43,-4.73 a 4.55,4.55 0 0 0 -2.78,-6.16 c -3.69,-1 -9.05,3.32 -11,6.16 -0.16,0.25 -2.3,4.39 -2.23,4.4 h 0.08 c -0.85,0.69 -1.76,1.43 -2.73,2.26 -1.78,1.55 -3.79,3.32 -5.83,5.39 a 80.49,80.49 0 0 0 -6.3,7 59.38,59.38 0 0 0 -5.85,8.74 l -0.06,0.11 c 0.22,-1.1 0.7,-4.2 0.71,-4.45 0.15,-3.42 -1.57,-10.12 -5.17,-11.45 a 4.54,4.54 0 0 0 -5.89,3.31 c -0.68,2.62 0.79,5.62 2.37,7.62 1.8,2.26 7.36,5.12 7.81,5.35 a 79.19,79.19 0 0 0 -4.27,9.83 c -0.72,2 -1.37,3.95 -2,6 0.16,-1 0.29,-1.82 0.29,-1.94 0.15,-3.42 -1.58,-10.12 -5.17,-11.45 a 4.53,4.53 0 0 0 -5.89,3.31 c -0.68,2.62 0.78,5.61 2.37,7.62 1.59,2.01 6.31,4.57 7.56,5.22 -0.23,0.77 -0.48,1.54 -0.71,2.32 -1.11,3.71 -2.21,7.42 -3.39,11 -0.42,1.27 -0.87,2.51 -1.33,3.74 0.14,-0.85 0.24,-1.57 0.25,-1.68 0.15,-3.42 -1.58,-10.12 -5.18,-11.45 a 4.53,4.53 0 0 0 -5.88,3.31 c -0.68,2.62 0.78,5.61 2.37,7.62 1.59,2.01 5.85,4.32 7.33,5.1 -0.5,1.25 -1,2.51 -1.54,3.71 -0.39,0.8 -0.71,1.61 -1.15,2.39 l -1.23,2.35 c -0.84,1.46 -1.69,3 -2.55,4.38 -0.59,1 -1.16,1.91 -1.74,2.84 0.43,-1.26 1.22,-3.75 1.26,-4 0.66,-3.36 0,-10.24 -3.38,-12.11 a 4.54,4.54 0 0 0 -6.32,2.38 c -1.07,2.49 -0.08,5.67 1.19,7.9 1.39,2.44 6.25,6 6.86,6.43 -1,1.54 -1.92,3 -2.84,4.42 -3.15,4.79 -5.95,8.66 -8,11.36 l 1.9,1.78 0.13,-0.18 c 2,-2.78 4.75,-6.78 7.85,-11.73 1,-1.56 2,-3.25 3,-5 a 48.28,48.28 0 0 0 5.51,1.81 c 0,2.89 1.92,8.15 2.17,8.83 -1.65,0.75 -3.27,1.47 -4.8,2.12 -5.27,2.26 -9.74,3.94 -12.91,5.08 l 2.08,2 c 3.06,-1.2 7.1,-2.85 11.74,-5 1.69,-0.76 3.47,-1.6 5.29,-2.48 0.42,0.6 3.89,5.52 6.32,7 2.2,1.3 5.37,2.35 7.87,1.32 a 4.53,4.53 0 0 0 2.49,-6.28 c -1.81,-3.38 -8.68,-4.19 -12.05,-3.58 -0.2,0 -2.31,0.67 -3.64,1.09 0.74,-0.37 1.47,-0.71 2.23,-1.1 1.51,-0.75 3,-1.55 4.59,-2.4 l 2.29,-1.32 c 0.78,-0.43 1.54,-1 2.32,-1.47 1.78,-1.17 3.54,-2.44 5.27,-3.76 0.66,1.32 3.08,6 5.07,7.59 1.99,1.59 4.95,3.14 7.58,2.5 a 4.53,4.53 0 0 0 3.41,-5.83 c -1.27,-3.62 -7.94,-5.45 -11.37,-5.36 -0.21,0 -2.66,0.34 -4,0.56 1,-0.81 2.08,-1.6 3.1,-2.45 3,-2.44 5.87,-5 8.78,-7.55 l 2.69,-2.31 c 0.23,0.47 3,6.05 5.21,7.88 2,1.62 5,3.13 7.59,2.5 a 4.54,4.54 0 0 0 3.4,-5.83 c -1.27,-3.62 -7.94,-5.46 -11.36,-5.37 -0.26,0 -3.78,0.5 -4.67,0.67 2,-1.69 4,-3.36 6,-4.93 a 78.7,78.7 0 0 1 8.56,-5.85 c 0.1,0.22 3,6.06 5.23,7.93 2,1.62 4.95,3.14 7.58,2.5 a 4.54,4.54 0 0 0 3.41,-5.83 c -1.27,-3.62 -7.94,-5.46 -11.36,-5.37 -0.23,0 -2.91,0.38 -4.19,0.59 l -0.07,-0.21 a 58.3,58.3 0 0 1 9.53,-4.23 c 1.8,-0.64 3.57,-1.16 5.29,-1.62 0.42,1.15 2.39,6.35 4.26,8.26 1.87,1.91 4.58,3.66 7.26,3.31 a 4.54,4.54 0 0 0 4,-5.42 c -0.87,-3.74 -7.3,-6.29 -10.71,-6.58 -0.18,0 -2.09,0 -3.48,0.09 0.79,-0.19 1.59,-0.41 2.34,-0.58 2.83,-0.66 5.46,-1.09 7.79,-1.45 1.32,-0.19 2.53,-0.34 3.65,-0.46 1,0.9 5.06,4.51 7.55,5.33 2.49,0.82 5.75,1.14 8,-0.41 a 4.54,4.54 0 0 0 1.07,-6.7 z"
             id="path4006" /></g><g
           style="opacity:0.2"
           id="g4016"><path
             d="m 69.24,406.76 c 0.07,-3 -2.61,-9.18 -2.61,-9.18 0,0 -3.54,3 -3.74,3.22 -2.3,2.54 -5.26,8.79 -3.35,12.11 a 4.53,4.53 0 0 0 6.64,1.23 c 2.2,-1.58 2.99,-4.82 3.06,-7.38 z"
             id="path4010" /><path
             d="m 44.89,343.15 c 0,-0.07 -4.6,0.55 -4.89,0.63 -3.32,0.84 -9.24,4.42 -9.48,8.25 a 4.55,4.55 0 0 0 4.87,4.69 c 2.7,-0.11 5.15,-2.37 6.61,-4.47 1.72,-2.46 2.89,-9.1 2.89,-9.1 z"
             id="path4012" /><path
             d="m 14.71,333.75 c 1.06,3.69 7.61,5.91 11,6 0.29,0 4.94,-0.37 4.91,-0.44 v -0.07 c 1,0.36 2.14,0.73 3.36,1.11 2.26,0.69 4.82,1.45 7.66,2.09 a 81.93,81.93 0 0 0 9.27,1.62 59.67,59.67 0 0 0 10.52,0.32 h 0.12 c -1,0.4 -3.94,1.64 -4.15,1.76 -3,1.69 -7.74,6.7 -7,10.46 a 4.54,4.54 0 0 0 5.93,3.24 c 2.58,-0.82 4.34,-3.65 5.2,-6.06 1,-2.72 0.44,-9 0.39,-9.45 a 79.24,79.24 0 0 0 10.6,-1.6 c 2,-0.43 4.08,-0.94 6.12,-1.47 -0.89,0.38 -1.69,0.73 -1.8,0.79 -3,1.69 -7.74,6.71 -7,10.47 a 4.54,4.54 0 0 0 5.93,3.23 c 2.58,-0.81 4.34,-3.65 5.2,-6.06 0.86,-2.41 0.53,-7.77 0.41,-9.17 l 2.34,-0.63 c 3.74,-1 7.47,-2.07 11.15,-3 1.3,-0.32 2.59,-0.59 3.88,-0.86 -0.79,0.34 -1.46,0.63 -1.55,0.68 -3,1.69 -7.74,6.71 -7,10.47 a 4.54,4.54 0 0 0 5.93,3.23 c 2.59,-0.81 4.35,-3.65 5.21,-6.06 0.86,-2.41 0.55,-7.25 0.43,-8.92 1.33,-0.24 2.66,-0.48 4,-0.66 0.89,-0.09 1.74,-0.25 2.64,-0.3 l 2.64,-0.2 c 1.68,-0.06 3.42,-0.14 5.07,-0.16 h 3.33 c -1.3,0.3 -3.82,0.95 -4,1 a 17.62,17.62 0 0 0 -7,5.43 5.35,5.35 0 0 0 -0.9,0.44 4.53,4.53 0 0 0 -1.47,6.59 c 2.31,3.06 9.22,2.78 12.46,1.65 0.19,-0.07 2.18,-1 3.42,-1.64 -0.67,0.47 -1.33,0.93 -2,1.43 -1.38,1 -2.72,2 -4.16,3.08 l -2.06,1.67 c -0.7,0.55 -1.37,1.21 -2.06,1.81 -1.58,1.44 -3.11,3 -4.62,4.55 -0.86,-1.2 -4,-5.41 -6.19,-6.71 -2.19,-1.3 -5.38,-2.32 -7.88,-1.28 a 4.54,4.54 0 0 0 -2.46,6.29 c 1.83,3.38 8.7,4.15 12.07,3.52 0.21,0 2.58,-0.76 3.87,-1.18 -0.9,0.95 -1.8,1.9 -2.68,2.9 -2.54,2.87 -5,5.86 -7.5,8.83 -0.75,0.91 -1.52,1.81 -2.29,2.71 -0.3,-0.43 -3.9,-5.52 -6.38,-7 -2.21,-1.29 -5.38,-2.32 -7.88,-1.28 a 4.53,4.53 0 0 0 -2.45,6.29 c 1.82,3.38 8.7,4.15 12.06,3.52 0.26,0 3.66,-1.09 4.51,-1.39 -1.69,2 -3.39,3.94 -5.14,5.81 a 79.67,79.67 0 0 1 -7.54,7.12 c -0.14,-0.2 -3.87,-5.53 -6.41,-7 C 72.54,380 69.37,379 66.87,380 a 4.54,4.54 0 0 0 -2.45,6.3 c 1.82,3.37 8.69,4.14 12.06,3.52 0.22,-0.05 2.82,-0.84 4,-1.24 l 0.11,0.19 a 58.29,58.29 0 0 1 -8.75,5.67 c -1.69,0.92 -3.35,1.71 -5,2.43 -0.59,-1.06 -3.35,-5.89 -5.5,-7.48 -2.15,-1.59 -5.09,-2.9 -7.69,-2.14 a 4.53,4.53 0 0 0 -3.13,6 c 1.45,3.56 8.19,5.08 11.61,4.83 0.19,0 2.06,-0.37 3.42,-0.64 -0.74,0.32 -1.5,0.66 -2.22,0.95 -2.69,1.09 -5.21,1.92 -7.46,2.64 -1.28,0.4 -2.45,0.73 -3.54,1 -1.12,-0.75 -5.7,-3.67 -8.29,-4.09 -2.59,-0.42 -5.85,-0.22 -7.81,1.65 a 4.53,4.53 0 0 0 0,6.75 c 2.92,2.49 9.61,0.73 12.53,-1.07 0.25,-0.15 3.91,-3 3.85,-3.07 l -0.07,-0.05 c 1.06,-0.27 2.19,-0.57 3.42,-0.92 2.27,-0.68 4.82,-1.46 7.54,-2.49 a 83.28,83.28 0 0 0 8.67,-3.74 60.57,60.57 0 0 0 9,-5.53 l 0.1,-0.09 c -0.65,0.92 -2.39,3.55 -2.5,3.76 -1.55,3.06 -2.75,9.87 0,12.57 a 4.54,4.54 0 0 0 6.73,-0.57 c 1.7,-2.11 1.61,-5.44 1,-7.92 -0.7,-2.81 -4.58,-7.71 -4.89,-8.1 a 80.76,80.76 0 0 0 8,-7.18 c 1.46,-1.49 2.89,-3 4.29,-4.6 -0.53,0.81 -1,1.54 -1.06,1.65 -1.55,3.05 -2.76,9.86 0,12.57 a 4.54,4.54 0 0 0 6.73,-0.58 c 1.71,-2.1 1.62,-5.43 1,-7.92 -0.62,-2.49 -3.85,-6.77 -4.72,-7.88 l 1.61,-1.81 c 2.55,-2.92 5.08,-5.85 7.65,-8.64 0.91,-1 1.84,-1.92 2.76,-2.86 -0.47,0.72 -0.87,1.33 -0.92,1.43 -1.55,3.05 -2.75,9.87 0,12.57 a 4.54,4.54 0 0 0 6.73,-0.57 c 1.7,-2.11 1.61,-5.44 1,-7.93 -0.61,-2.49 -3.54,-6.35 -4.57,-7.68 1,-0.93 2,-1.87 3,-2.73 0.68,-0.57 1.31,-1.17 2,-1.71 0.69,-0.54 1.4,-1.08 2.09,-1.62 1.37,-1 2.78,-2 4.14,-2.93 0.94,-0.65 1.85,-1.25 2.76,-1.86 -0.91,1 -2.66,2.9 -2.79,3.08 -2,2.78 -4.22,9.33 -1.94,12.42 a 4.54,4.54 0 0 0 6.74,0.45 c 2,-1.82 2.42,-5.13 2.19,-7.68 -0.25,-2.8 -3.2,-8 -3.58,-8.69 1.52,-1 3,-2 4.42,-2.86 4.84,-3 9,-5.41 11.95,-7 l -1,-2.41 -0.2,0.12 c -2.95,1.7 -7.13,4.2 -12,7.41 -1.55,1 -3.17,2.13 -4.84,3.29 A 48.84,48.84 0 0 0 118.6,343 c 1.23,-2.62 1.63,-8.21 1.68,-8.94 1.82,0 3.58,0 5.25,0.06 5.73,0.13 10.5,0.45 13.85,0.73 l -1.08,-2.65 c -3.28,-0.18 -7.64,-0.35 -12.74,-0.35 -1.85,0 -3.82,0 -5.84,0.07 -0.14,-0.72 -1.25,-6.64 -2.87,-9 -1.46,-2.09 -3.91,-4.36 -6.62,-4.46 a 4.53,4.53 0 0 0 -4.86,4.69 c 0.24,3.83 6.16,7.4 9.48,8.25 0.2,0 2.38,0.35 3.76,0.52 l -2.48,0.07 c -1.68,0.06 -3.36,0.17 -5.17,0.28 l -2.63,0.26 c -0.89,0.06 -1.81,0.25 -2.72,0.37 -2.11,0.33 -4.23,0.76 -6.36,1.24 -0.06,-1.47 -0.33,-6.7 -1.47,-9 -1.14,-2.3 -3.2,-4.9 -5.86,-5.42 a 4.54,4.54 0 0 0 -5.52,3.9 c -0.34,3.82 5,8.26 8.12,9.59 0.2,0.09 2.57,0.79 3.88,1.15 -1.28,0.3 -2.55,0.6 -3.83,0.94 -3.7,1 -7.42,2.13 -11.13,3.24 -1.13,0.34 -2.27,0.66 -3.41,1 0,-0.53 -0.2,-6.75 -1.47,-9.33 -1.13,-2.3 -3.21,-4.91 -5.87,-5.42 a 4.54,4.54 0 0 0 -5.52,3.9 c -0.34,3.82 5,8.25 8.13,9.59 0.23,0.1 3.65,1.11 4.53,1.32 -2.5,0.73 -5,1.42 -7.5,2 a 80.07,80.07 0 0 1 -10.21,1.78 c 0,-0.24 -0.18,-6.74 -1.48,-9.39 -1.13,-2.29 -3.21,-4.9 -5.87,-5.41 a 4.53,4.53 0 0 0 -5.51,3.89 c -0.35,3.82 5,8.26 8.12,9.59 0.2,0.09 2.8,0.86 4,1.2 0,0.12 0,0.1 0,0.22 A 59.29,59.29 0 0 1 51,343.46 c -1.91,-0.17 -3.72,-0.43 -5.48,-0.73 0.09,-1.21 0.45,-6.76 -0.46,-9.27 -0.91,-2.51 -2.65,-5.23 -5.24,-6 a 4.54,4.54 0 0 0 -5.91,3.27 c -0.76,3.76 4,8.75 7,10.42 0.16,0.09 1.92,0.84 3.2,1.36 -0.79,-0.15 -1.61,-0.28 -2.37,-0.44 -2.84,-0.57 -5.41,-1.27 -7.68,-1.91 -1.29,-0.37 -2.44,-0.73 -3.52,-1.08 -0.53,-1.24 -2.74,-6.21 -4.66,-8 -1.92,-1.79 -4.76,-3.42 -7.43,-2.94 a 4.54,4.54 0 0 0 -3.74,5.61 z"
             id="path4014" /></g></g><g
         id="freepik--Floor--inject-124"><line
           x1="46.009998"
           y1="420.98001"
           x2="480.98999"
           y2="420.98001"
           style="fill:none;stroke:#263238;stroke-linecap:round;stroke-miterlimit:10"
           id="line4019" /></g><g
         id="freepik--Calendar--inject-124"><rect
           x="300.57999"
           y="70.730003"
           width="151.91"
           height="157.84"
           style="fill:#ffffff;stroke:#263238;stroke-linecap:round;stroke-miterlimit:10"
           id="rect4022" /><rect
           x="300.57999"
           y="70.730003"
           width="151.91"
           height="30.379999"
           style="fill:#006642;stroke:#263238;stroke-linecap:round;stroke-miterlimit:10"
           id="rect4024" /><rect
           x="309.47"
           y="120.38"
           width="17.389999"
           height="17.389999"
           style="fill:#ffffff;stroke:#263238;stroke-linecap:round;stroke-miterlimit:10"
           id="rect4026" /><rect
           x="333.12"
           y="120.38"
           width="17.389999"
           height="17.389999"
           style="fill:#ffffff;stroke:#263238;stroke-linecap:round;stroke-miterlimit:10"
           id="rect4028" /><rect
           x="356.76001"
           y="120.38"
           width="17.389999"
           height="17.389999"
           style="fill:#ffffff;stroke:#263238;stroke-linecap:round;stroke-miterlimit:10"
           id="rect4030" /><rect
           x="380.39999"
           y="120.38"
           width="17.389999"
           height="17.389999"
           style="fill:#ffffff;stroke:#263238;stroke-linecap:round;stroke-miterlimit:10"
           id="rect4032" /><rect
           x="404.04999"
           y="120.38"
           width="17.389999"
           height="17.389999"
           style="fill:#ffffff;stroke:#263238;stroke-linecap:round;stroke-miterlimit:10"
           id="rect4034" /><rect
           x="427.69"
           y="120.38"
           width="17.389999"
           height="17.389999"
           style="fill:#ffffff;stroke:#263238;stroke-linecap:round;stroke-miterlimit:10"
           id="rect4036" /><rect
           x="309.47"
           y="144.28999"
           width="17.389999"
           height="17.389999"
           style="fill:#ffffff;stroke:#263238;stroke-linecap:round;stroke-miterlimit:10"
           id="rect4038" /><rect
           x="333.12"
           y="144.28999"
           width="17.389999"
           height="17.389999"
           style="fill:#ffffff;stroke:#263238;stroke-linecap:round;stroke-miterlimit:10"
           id="rect4040" /><rect
           x="356.76001"
           y="144.28999"
           width="17.389999"
           height="17.389999"
           style="fill:#ffffff;stroke:#263238;stroke-linecap:round;stroke-miterlimit:10"
           id="rect4042" /><rect
           x="380.39999"
           y="144.28999"
           width="17.389999"
           height="17.389999"
           style="fill:#ffffff;stroke:#263238;stroke-linecap:round;stroke-miterlimit:10"
           id="rect4044" /><rect
           x="404.04999"
           y="144.28999"
           width="17.389999"
           height="17.389999"
           style="fill:#ffffff;stroke:#263238;stroke-linecap:round;stroke-miterlimit:10"
           id="rect4046" /><rect
           x="427.69"
           y="144.28999"
           width="17.389999"
           height="17.389999"
           style="fill:#ffffff;stroke:#263238;stroke-linecap:round;stroke-miterlimit:10"
           id="rect4048" /><rect
           x="309.47"
           y="168.2"
           width="17.389999"
           height="17.389999"
           style="fill:#ffffff;stroke:#263238;stroke-linecap:round;stroke-miterlimit:10"
           id="rect4050" /><rect
           x="333.12"
           y="168.2"
           width="17.389999"
           height="17.389999"
           style="fill:#ffffff;stroke:#263238;stroke-linecap:round;stroke-miterlimit:10"
           id="rect4052" /><rect
           x="356.76001"
           y="168.2"
           width="17.389999"
           height="17.389999"
           style="fill:#ffffff;stroke:#263238;stroke-linecap:round;stroke-miterlimit:10"
           id="rect4054" /><rect
           x="380.39999"
           y="168.2"
           width="17.389999"
           height="17.389999"
           style="fill:#ffffff;stroke:#263238;stroke-linecap:round;stroke-miterlimit:10"
           id="rect4056" /><rect
           x="404.04999"
           y="168.2"
           width="17.389999"
           height="17.389999"
           style="fill:#ffffff;stroke:#263238;stroke-linecap:round;stroke-miterlimit:10"
           id="rect4058" /><rect
           x="427.69"
           y="168.2"
           width="17.389999"
           height="17.389999"
           style="fill:#ffffff;stroke:#263238;stroke-linecap:round;stroke-miterlimit:10"
           id="rect4060" /><rect
           x="309.47"
           y="192.12"
           width="17.389999"
           height="17.389999"
           style="fill:#ffffff;stroke:#263238;stroke-linecap:round;stroke-miterlimit:10"
           id="rect4062" /><rect
           x="333.12"
           y="192.12"
           width="17.389999"
           height="17.389999"
           style="fill:#ffffff;stroke:#263238;stroke-linecap:round;stroke-miterlimit:10"
           id="rect4064" /><rect
           x="356.76001"
           y="192.12"
           width="17.389999"
           height="17.389999"
           style="fill:#ffffff;stroke:#263238;stroke-linecap:round;stroke-miterlimit:10"
           id="rect4066" /><rect
           x="380.39999"
           y="192.12"
           width="17.389999"
           height="17.389999"
           style="fill:#ffffff;stroke:#263238;stroke-linecap:round;stroke-miterlimit:10"
           id="rect4068" /><rect
           x="404.04999"
           y="192.12"
           width="17.389999"
           height="17.389999"
           style="fill:#ffffff;stroke:#263238;stroke-linecap:round;stroke-miterlimit:10"
           id="rect4070" /><rect
           x="427.69"
           y="192.12"
           width="17.389999"
           height="17.389999"
           style="fill:#ffffff;stroke:#263238;stroke-linecap:round;stroke-miterlimit:10"
           id="rect4072" /><path
           d="m 313.92,78.88 v 0 a 2.22,2.22 0 0 1 -2.23,-2.22 V 61.1 a 2.23,2.23 0 0 1 2.23,-2.23 v 0 a 2.22,2.22 0 0 1 2.22,2.23 v 15.56 a 2.21,2.21 0 0 1 -2.22,2.22 z"
           style="fill:#ffffff;stroke:#263238;stroke-linecap:round;stroke-miterlimit:10"
           id="path4074" /><path
           d="m 322.81,78.88 v 0 a 2.21,2.21 0 0 1 -2.22,-2.22 V 61.1 a 2.22,2.22 0 0 1 2.22,-2.23 v 0 A 2.22,2.22 0 0 1 325,61.1 v 15.56 a 2.21,2.21 0 0 1 -2.19,2.22 z"
           style="fill:#ffffff;stroke:#263238;stroke-linecap:round;stroke-miterlimit:10"
           id="path4076" /><path
           d="m 331.7,78.88 v 0 a 2.21,2.21 0 0 1 -2.22,-2.22 V 61.1 a 2.22,2.22 0 0 1 2.22,-2.23 v 0 a 2.22,2.22 0 0 1 2.22,2.23 v 15.56 a 2.21,2.21 0 0 1 -2.22,2.22 z"
           style="fill:#ffffff;stroke:#263238;stroke-linecap:round;stroke-miterlimit:10"
           id="path4078" /><path
           d="m 340.59,78.88 v 0 a 2.22,2.22 0 0 1 -2.22,-2.22 V 61.1 a 2.23,2.23 0 0 1 2.22,-2.23 v 0 a 2.23,2.23 0 0 1 2.23,2.23 v 15.56 a 2.22,2.22 0 0 1 -2.23,2.22 z"
           style="fill:#ffffff;stroke:#263238;stroke-linecap:round;stroke-miterlimit:10"
           id="path4080" /><path
           d="m 349.49,78.88 v 0 a 2.22,2.22 0 0 1 -2.23,-2.22 V 61.1 a 2.23,2.23 0 0 1 2.23,-2.23 v 0 a 2.23,2.23 0 0 1 2.22,2.23 v 15.56 a 2.22,2.22 0 0 1 -2.22,2.22 z"
           style="fill:#ffffff;stroke:#263238;stroke-linecap:round;stroke-miterlimit:10"
           id="path4082" /><path
           d="m 358.38,78.88 v 0 a 2.21,2.21 0 0 1 -2.22,-2.22 V 61.1 a 2.22,2.22 0 0 1 2.22,-2.23 v 0 a 2.22,2.22 0 0 1 2.22,2.23 v 15.56 a 2.21,2.21 0 0 1 -2.22,2.22 z"
           style="fill:#ffffff;stroke:#263238;stroke-linecap:round;stroke-miterlimit:10"
           id="path4084" /><path
           d="m 367.27,78.88 v 0 a 2.21,2.21 0 0 1 -2.22,-2.22 V 61.1 a 2.22,2.22 0 0 1 2.22,-2.23 v 0 a 2.22,2.22 0 0 1 2.22,2.23 v 15.56 a 2.21,2.21 0 0 1 -2.22,2.22 z"
           style="fill:#ffffff;stroke:#263238;stroke-linecap:round;stroke-miterlimit:10"
           id="path4086" /><rect
           x="373.94"
           y="58.869999"
           width="4.4499998"
           height="20.01"
           rx="2.22"
           style="fill:#ffffff;stroke:#263238;stroke-linecap:round;stroke-miterlimit:10"
           id="rect4088" /><path
           d="m 385.06,78.88 v 0 a 2.22,2.22 0 0 1 -2.23,-2.22 V 61.1 a 2.23,2.23 0 0 1 2.23,-2.23 v 0 a 2.23,2.23 0 0 1 2.22,2.23 v 15.56 a 2.22,2.22 0 0 1 -2.22,2.22 z"
           style="fill:#ffffff;stroke:#263238;stroke-linecap:round;stroke-miterlimit:10"
           id="path4090" /><path
           d="m 394,78.88 v 0 a 2.21,2.21 0 0 1 -2.22,-2.22 V 61.1 A 2.22,2.22 0 0 1 394,58.87 v 0 a 2.22,2.22 0 0 1 2.22,2.23 V 76.66 A 2.21,2.21 0 0 1 394,78.88 Z"
           style="fill:#ffffff;stroke:#263238;stroke-linecap:round;stroke-miterlimit:10"
           id="path4092" /><path
           d="m 402.84,78.88 v 0 a 2.21,2.21 0 0 1 -2.22,-2.22 V 61.1 a 2.22,2.22 0 0 1 2.22,-2.23 v 0 a 2.22,2.22 0 0 1 2.22,2.23 v 15.56 a 2.21,2.21 0 0 1 -2.22,2.22 z"
           style="fill:#ffffff;stroke:#263238;stroke-linecap:round;stroke-miterlimit:10"
           id="path4094" /><path
           d="m 411.73,78.88 v 0 a 2.21,2.21 0 0 1 -2.22,-2.22 V 61.1 a 2.22,2.22 0 0 1 2.22,-2.23 v 0 A 2.23,2.23 0 0 1 414,61.1 v 15.56 a 2.22,2.22 0 0 1 -2.27,2.22 z"
           style="fill:#ffffff;stroke:#263238;stroke-linecap:round;stroke-miterlimit:10"
           id="path4096" /><path
           d="m 420.62,78.88 v 0 A 2.22,2.22 0 0 1 418.4,76.66 V 61.1 a 2.23,2.23 0 0 1 2.22,-2.23 v 0 a 2.23,2.23 0 0 1 2.23,2.23 v 15.56 a 2.22,2.22 0 0 1 -2.23,2.22 z"
           style="fill:#ffffff;stroke:#263238;stroke-linecap:round;stroke-miterlimit:10"
           id="path4098" /><path
           d="m 429.52,78.88 v 0 a 2.22,2.22 0 0 1 -2.23,-2.22 V 61.1 a 2.23,2.23 0 0 1 2.23,-2.23 v 0 a 2.22,2.22 0 0 1 2.22,2.23 v 15.56 a 2.21,2.21 0 0 1 -2.22,2.22 z"
           style="fill:#ffffff;stroke:#263238;stroke-linecap:round;stroke-miterlimit:10"
           id="path4100" /><path
           d="m 438.41,78.88 v 0 a 2.21,2.21 0 0 1 -2.22,-2.22 V 61.1 a 2.22,2.22 0 0 1 2.22,-2.23 v 0 a 2.22,2.22 0 0 1 2.22,2.23 v 15.56 a 2.21,2.21 0 0 1 -2.22,2.22 z"
           style="fill:#ffffff;stroke:#263238;stroke-linecap:round;stroke-miterlimit:10"
           id="path4102" /></g><g
         id="freepik--Money--inject-124"><rect
           x="127.63"
           y="39.849998"
           width="119.46"
           height="223.67999"
           style="fill:#ffffff;stroke:#263238;stroke-linecap:round;stroke-miterlimit:10"
           id="rect4105" /><path
           d="m 142,63.18 a 8.77,8.77 0 0 1 -0.9,0 v 174.7 a 6.6,6.6 0 0 1 0.9,0 8.72,8.72 0 0 1 8.46,11.12 h 74.7 a 8.72,8.72 0 0 1 8.42,-11.13 V 63.18 a 8.76,8.76 0 0 1 -8.76,-8.76 h -74 A 8.76,8.76 0 0 1 142,63.18 Z m 45.32,56.25 a 32.26,32.26 0 1 1 -32.26,32.26 32.26,32.26 0 0 1 32.3,-32.26 z"
           style="fill:#006642;stroke:#263238;stroke-linecap:round;stroke-miterlimit:10"
           id="path4107" /><rect
           x="100.42"
           y="58.119999"
           width="119.46"
           height="223.67999"
           transform="rotate(-15.77,160.17469,169.98867)"
           style="fill:#ffffff;stroke:#263238;stroke-linecap:round;stroke-miterlimit:10"
           id="rect4109" /><path
           d="m 92.48,97.1 c -0.3,0.08 -0.59,0.14 -0.88,0.2 l 47.49,168.16 a 7.89,7.89 0 0 1 0.86,-0.29 8.76,8.76 0 0 1 10.81,6 9,9 0 0 1 0.32,2.38 L 223,253.29 a 8.56,8.56 0 0 1 -1,-2.2 8.76,8.76 0 0 1 6.05,-10.81 L 180.58,72.21 a 8.75,8.75 0 0 1 -10.81,-6 L 98.52,86.29 A 8.76,8.76 0 0 1 92.48,97.1 Z m 58.9,41.81 a 32.26,32.26 0 1 1 -22.28,39.81 32.26,32.26 0 0 1 22.28,-39.81 z"
           style="fill:#006642;stroke:#263238;stroke-linecap:round;stroke-miterlimit:10"
           id="path4111" /><rect
           x="85.650002"
           y="73.93"
           width="119.46"
           height="223.67999"
           transform="rotate(-26.17,145.37655,185.77313)"
           style="fill:#ffffff;stroke:#263238;stroke-linecap:round;stroke-miterlimit:10"
           id="rect4113" /><path
           d="m 65.66,126.32 a 8.67,8.67 0 0 1 -0.83,0.36 L 141.9,283.5 c 0.25,-0.15 0.52,-0.3 0.79,-0.43 a 8.75,8.75 0 0 1 11.72,4 8.47,8.47 0 0 1 0.75,2.28 l 67,-32.94 a 9.29,9.29 0 0 1 -1.35,-2 8.76,8.76 0 0 1 4,-11.72 L 147.83,86 A 8.77,8.77 0 0 1 136.1,82 l -66.44,32.6 a 8.74,8.74 0 0 1 -4,11.72 z m 65.49,30.5 A 32.26,32.26 0 1 1 116.42,200 32.26,32.26 0 0 1 131.15,156.82 Z"
           style="fill:#006642;stroke:#263238;stroke-linecap:round;stroke-miterlimit:10"
           id="path4115" /><rect
           x="71"
           y="98.300003"
           width="119.46"
           height="223.67999"
           transform="rotate(-39.84,130.75698,210.15822)"
           style="fill:#ffffff;stroke:#263238;stroke-linecap:round;stroke-miterlimit:10"
           id="rect4117" /><path
           d="m 39.22,171.22 a 6.14,6.14 0 0 1 -0.72,0.54 l 112,134.17 a 6.52,6.52 0 0 1 0.66,-0.62 8.77,8.77 0 0 1 13.6,3.15 l 57.35,-47.86 a 8.43,8.43 0 0 1 -1.78,-1.61 8.75,8.75 0 0 1 1.12,-12.33 L 109.51,112.57 a 8.76,8.76 0 0 1 -12.34,-1.12 l -56.84,47.43 a 8.77,8.77 0 0 1 -1.11,12.34 z m 70.84,14.15 a 32.26,32.26 0 1 1 -4.1,45.44 32.26,32.26 0 0 1 4.1,-45.44 z"
           style="fill:#006642;stroke:#263238;stroke-linecap:round;stroke-miterlimit:10"
           id="path4119" /></g><g
         id="freepik--Calculator--inject-124"><path
           d="M 102.86,189.64 63,224.39 l -6,5.24 -39.9,34.75 a 13.91,13.91 0 0 0 -0.9,19.31 l 36.21,37.89 92.19,105.79 a 11.53,11.53 0 0 0 16.26,1.11 l 36.88,-32.14 10.16,-8.85 36.88,-32.14 a 12.77,12.77 0 0 0 1.18,-17.2 l -92.2,-105.79 -32.59,-41 a 12.71,12.71 0 0 0 -18.31,-1.72 z"
           style="fill:#ffffff;stroke:#263238;stroke-miterlimit:10"
           id="path4122" /><path
           d="M 148.05,235.22 117.62,197 A 7.8,7.8 0 0 0 106.4,196 L 22.84,268.74 A 7.79,7.79 0 0 0 22.33,280 l 33.75,35.37 z"
           style="fill:#263238;stroke:#263238;stroke-miterlimit:10"
           id="path4124" /><rect
           x="28.889999"
           y="237.37"
           width="112.8"
           height="38.150002"
           transform="rotate(-41.07,85.312679,256.45326)"
           style="fill:#696969"
           id="rect4126" /><rect
           x="34.459999"
           y="242.92999"
           width="101.67"
           height="27.02"
           transform="rotate(-41.07,85.312679,256.45326)"
           style="fill:#c2c2c2"
           id="rect4128" /><rect
           x="68.169998"
           y="303.31"
           width="56.919998"
           height="16.700001"
           rx="4.9699998"
           transform="rotate(-41.07,96.647386,311.68987)"
           style="fill:#696969;stroke:#263238;stroke-miterlimit:10"
           id="rect4130" /><line
           x1="78.839996"
           y1="316.35999"
           x2="89.68"
           y2="328.79999"
           style="fill:none;stroke:#263238;stroke-miterlimit:10"
           id="line4132" /><line
           x1="87.489998"
           y1="308.82001"
           x2="98.330002"
           y2="321.26001"
           style="fill:none;stroke:#263238;stroke-miterlimit:10"
           id="line4134" /><line
           x1="96.150002"
           y1="301.28"
           x2="106.99"
           y2="313.72"
           style="fill:none;stroke:#263238;stroke-miterlimit:10"
           id="line4136" /><line
           x1="104.8"
           y1="293.73999"
           x2="115.64"
           y2="306.17999"
           style="fill:none;stroke:#263238;stroke-miterlimit:10"
           id="line4138" /><path
           d="m 136,275.82 h 11 a 4.63,4.63 0 0 1 4.63,4.63 v 3.86 a 4.63,4.63 0 0 1 -4.63,4.63 h -11 a 4.62,4.62 0 0 1 -4.62,-4.62 v -3.86 a 4.63,4.63 0 0 1 4.63,-4.63 z"
           transform="rotate(-41.07,141.48723,282.39639)"
           style="fill:#c2c2c2;stroke:#263238;stroke-miterlimit:10"
           id="path4140" /><rect
           x="90.440002"
           y="335.85001"
           width="20.25"
           height="15.44"
           rx="4.6199999"
           transform="rotate(-41.07,100.58795,343.59301)"
           style="fill:#c2c2c2;stroke:#263238;stroke-miterlimit:10"
           id="rect4142" /><path
           d="m 113,320.26 h 11 a 4.63,4.63 0 0 1 4.63,4.63 v 6.19 a 4.63,4.63 0 0 1 -4.63,4.63 h -11 a 4.62,4.62 0 0 1 -4.62,-4.62 v -6.19 a 4.62,4.62 0 0 1 4.62,-4.62 z"
           transform="rotate(-41.07,118.48476,327.99784)"
           style="fill:#c2c2c2;stroke:#263238;stroke-miterlimit:10"
           id="path4144" /><path
           d="m 130.86,304.66 h 11 a 4.63,4.63 0 0 1 4.63,4.63 v 6.19 a 4.63,4.63 0 0 1 -4.63,4.63 h -11 a 4.63,4.63 0 0 1 -4.63,-4.63 v -6.19 a 4.62,4.62 0 0 1 4.62,-4.62 z"
           transform="rotate(-41.07,136.38157,312.40266)"
           style="fill:#c2c2c2;stroke:#263238;stroke-miterlimit:10"
           id="path4146" /><path
           d="m 148.75,289.06 h 11 a 4.62,4.62 0 0 1 4.62,4.62 v 6.19 a 4.62,4.62 0 0 1 -4.62,4.62 h -11 a 4.63,4.63 0 0 1 -4.63,-4.63 v -6.19 a 4.63,4.63 0 0 1 4.63,-4.63 z"
           transform="rotate(-41.07,154.27838,296.80748)"
           style="fill:#c2c2c2;stroke:#263238;stroke-miterlimit:10"
           id="path4148" /><path
           d="m 166.65,273.47 h 11 a 4.62,4.62 0 0 1 4.62,4.62 v 6.19 a 4.63,4.63 0 0 1 -4.63,4.63 h -11 a 4.62,4.62 0 0 1 -4.62,-4.62 v -6.19 a 4.63,4.63 0 0 1 4.63,-4.63 z"
           transform="rotate(-41.07,172.16184,281.2073)"
           style="fill:#c2c2c2;stroke:#263238;stroke-miterlimit:10"
           id="path4150" /><path
           d="m 108.7,351.49 h 11 a 4.62,4.62 0 0 1 4.62,4.62 v 6.19 a 4.63,4.63 0 0 1 -4.63,4.63 h -11 a 4.62,4.62 0 0 1 -4.62,-4.62 v -6.19 a 4.63,4.63 0 0 1 4.63,-4.63 z"
           transform="rotate(-41.07,114.22705,359.235)"
           style="fill:#c2c2c2;stroke:#263238;stroke-miterlimit:10"
           id="path4152" /><path
           d="m 126.6,335.9 h 11 a 4.62,4.62 0 0 1 4.62,4.62 v 6.19 a 4.63,4.63 0 0 1 -4.63,4.63 h -11 a 4.62,4.62 0 0 1 -4.62,-4.62 v -6.19 a 4.63,4.63 0 0 1 4.63,-4.63 z"
           transform="rotate(-41.07,132.11051,343.63482)"
           style="fill:#696969;stroke:#263238;stroke-miterlimit:10"
           id="path4154" /><path
           d="m 144.49,320.3 h 11 a 4.63,4.63 0 0 1 4.63,4.63 v 6.19 a 4.62,4.62 0 0 1 -4.62,4.62 h -11 a 4.63,4.63 0 0 1 -4.63,-4.63 v -6.19 a 4.62,4.62 0 0 1 4.62,-4.62 z"
           transform="rotate(-41.07,150.00732,328.03964)"
           style="fill:#696969;stroke:#263238;stroke-miterlimit:10"
           id="path4156" /><rect
           x="157.75999"
           y="304.70999"
           width="20.25"
           height="15.44"
           rx="4.6199999"
           transform="rotate(-41.07,167.90413,312.44447)"
           style="fill:#696969;stroke:#263238;stroke-miterlimit:10"
           id="rect4158" /><rect
           x="175.64999"
           y="289.10999"
           width="20.25"
           height="15.44"
           rx="4.6300001"
           transform="rotate(-41.07,185.80094,296.84929)"
           style="fill:#c2c2c2;stroke:#263238;stroke-miterlimit:10"
           id="rect4160" /><path
           d="m 122.33,367.13 h 11 a 4.62,4.62 0 0 1 4.62,4.62 v 6.19 a 4.62,4.62 0 0 1 -4.62,4.62 h -11 a 4.63,4.63 0 0 1 -4.63,-4.63 v -6.19 a 4.62,4.62 0 0 1 4.62,-4.62 z"
           transform="rotate(-41.07,127.85281,374.87198)"
           style="fill:#c2c2c2;stroke:#263238;stroke-miterlimit:10"
           id="path4162" /><path
           d="m 140.23,351.54 h 11 a 4.62,4.62 0 0 1 4.62,4.62 v 6.19 a 4.62,4.62 0 0 1 -4.62,4.62 h -11 a 4.63,4.63 0 0 1 -4.63,-4.63 v -6.19 a 4.62,4.62 0 0 1 4.62,-4.62 z"
           transform="rotate(-41.07,145.74962,359.27681)"
           style="fill:#696969;stroke:#263238;stroke-miterlimit:10"
           id="path4164" /><path
           d="m 158.12,335.94 h 11 a 4.62,4.62 0 0 1 4.62,4.62 v 6.19 a 4.62,4.62 0 0 1 -4.62,4.62 h -11 a 4.63,4.63 0 0 1 -4.63,-4.63 v -6.19 a 4.63,4.63 0 0 1 4.63,-4.63 z"
           transform="rotate(-41.07,163.64643,343.68163)"
           style="fill:#696969;stroke:#263238;stroke-miterlimit:10"
           id="path4166" /><path
           d="m 176,320.35 h 11 a 4.63,4.63 0 0 1 4.63,4.63 v 6.19 A 4.63,4.63 0 0 1 187,335.8 h -11 a 4.62,4.62 0 0 1 -4.62,-4.62 V 325 a 4.62,4.62 0 0 1 4.62,-4.65 z"
           transform="rotate(-41.07,181.54323,328.08645)"
           style="fill:#696969;stroke:#263238;stroke-miterlimit:10"
           id="path4168" /><path
           d="m 193.91,304.75 h 11 a 4.62,4.62 0 0 1 4.62,4.62 v 6.19 a 4.63,4.63 0 0 1 -4.63,4.63 h -11 a 4.63,4.63 0 0 1 -4.63,-4.63 v -6.19 a 4.62,4.62 0 0 1 4.62,-4.62 z"
           transform="rotate(-41.07,199.44004,312.49127)"
           style="fill:#c2c2c2;stroke:#263238;stroke-miterlimit:10"
           id="path4170" /><path
           d="m 136,382.78 h 11 a 4.62,4.62 0 0 1 4.62,4.62 v 6.19 a 4.63,4.63 0 0 1 -4.63,4.63 H 136 a 4.63,4.63 0 0 1 -4.63,-4.63 v -6.19 a 4.62,4.62 0 0 1 4.63,-4.62 z"
           transform="rotate(-41.07,141.49191,390.51397)"
           style="fill:#006642;stroke:#263238;stroke-linecap:round;stroke-miterlimit:10"
           id="path4172" /><path
           d="m 153.86,367.18 h 11 a 4.63,4.63 0 0 1 4.63,4.63 V 378 a 4.63,4.63 0 0 1 -4.63,4.63 h -11 a 4.62,4.62 0 0 1 -4.62,-4.62 v -6.19 a 4.62,4.62 0 0 1 4.62,-4.64 z"
           transform="rotate(-41.07,159.38872,374.91879)"
           style="fill:#696969;stroke:#263238;stroke-miterlimit:10"
           id="path4174" /><rect
           x="167.13"
           y="351.59"
           width="20.25"
           height="15.44"
           rx="4.6300001"
           transform="matrix(0.75,-0.66,0.66,0.75,-192.44,204.9)"
           style="fill:#696969;stroke:#263238;stroke-miterlimit:10"
           id="rect4176" /><rect
           x="185.02"
           y="335.98999"
           width="20.25"
           height="15.44"
           rx="4.6199999"
           transform="rotate(-41.07,195.18234,343.72844)"
           style="fill:#696969;stroke:#263238;stroke-miterlimit:10"
           id="rect4178" /><path
           d="m 149.6,398.42 h 11 a 4.62,4.62 0 0 1 4.62,4.62 v 6.19 a 4.62,4.62 0 0 1 -4.62,4.62 h -11 a 4.63,4.63 0 0 1 -4.63,-4.63 V 403 a 4.63,4.63 0 0 1 4.63,-4.63 z"
           transform="rotate(-41.07,155.12601,406.1693)"
           style="fill:#006642;stroke:#263238;stroke-linecap:round;stroke-miterlimit:10"
           id="path4180" /><path
           d="m 167.49,382.82 h 11 a 4.63,4.63 0 0 1 4.63,4.63 v 6.19 a 4.63,4.63 0 0 1 -4.63,4.63 h -11 a 4.63,4.63 0 0 1 -4.63,-4.63 v -6.19 a 4.62,4.62 0 0 1 4.63,-4.63 z"
           transform="rotate(-41.07,173.00947,390.56913)"
           style="fill:#696969;stroke:#263238;stroke-miterlimit:10"
           id="path4182" /><path
           d="m 185.39,367.23 h 11 a 4.63,4.63 0 0 1 4.63,4.63 V 378 a 4.63,4.63 0 0 1 -4.63,4.63 h -11 A 4.63,4.63 0 0 1 180.76,378 v -6.19 a 4.62,4.62 0 0 1 4.63,-4.58 z"
           transform="rotate(-41.07,190.90628,374.97395)"
           style="fill:#696969;stroke:#263238;stroke-miterlimit:10"
           id="path4184" /><path
           d="m 203.28,351.63 h 11 a 4.62,4.62 0 0 1 4.62,4.62 v 6.19 a 4.63,4.63 0 0 1 -4.63,4.63 h -11 a 4.62,4.62 0 0 1 -4.62,-4.62 v -6.19 a 4.62,4.62 0 0 1 4.62,-4.62 z"
           transform="rotate(-41.07,208.80809,359.36542)"
           style="fill:#c2c2c2;stroke:#263238;stroke-miterlimit:10"
           id="path4186" /><path
           d="m 213.29,317.66 -10.64,9.27 a 3.07,3.07 0 0 0 -0.29,4.33 l 2.83,3.26 3.27,3.75 13.64,15.64 a 3.07,3.07 0 0 0 4.33,0.3 l 10.64,-9.27 a 3.07,3.07 0 0 0 0.29,-4.33 L 223.73,325 220.46,321.25 217.62,318 a 3.07,3.07 0 0 0 -4.33,-0.34 z"
           style="fill:#c2c2c2;stroke:#263238;stroke-miterlimit:10"
           id="path4188" /><path
           d="m 154,260.12 h 11 a 4.63,4.63 0 0 1 4.63,4.63 v 3.86 a 4.62,4.62 0 0 1 -4.62,4.62 H 154 a 4.62,4.62 0 0 1 -4.62,-4.62 v -3.86 a 4.63,4.63 0 0 1 4.62,-4.63 z"
           transform="rotate(-41.07,159.51913,266.68438)"
           style="fill:#006642;stroke:#263238;stroke-linecap:round;stroke-miterlimit:10"
           id="path4190" /><path
           d="m 156.94,273.2 a 4.55,4.55 0 0 1 -3.63,-4.15 3.28,3.28 0 0 1 1.25,-2.45 3.25,3.25 0 0 1 2.59,-0.9 4.56,4.56 0 0 1 3.62,4.16 3.66,3.66 0 0 1 -3.83,3.34 z m 2.84,-3.27 a 4.06,4.06 0 0 0 -2.84,-3.26 2.35,2.35 0 0 0 -2.64,2.33 3.45,3.45 0 0 0 0.95,2 3.37,3.37 0 0 0 1.89,1.22 2.13,2.13 0 0 0 1.84,-0.56 2.09,2.09 0 0 0 0.8,-1.73 z"
           style="fill:#ffffff"
           id="path4192" /><path
           d="m 163.25,268.74 a 0.4,0.4 0 0 1 -0.33,-0.16 l -4.08,-4.68 a 0.72,0.72 0 0 1 -0.2,-0.48 0.6,0.6 0 0 1 0.2,-0.41 0.76,0.76 0 0 1 0.35,-0.16 0.86,0.86 0 0 1 0.45,0 l 6.36,1.65 -3.54,-4.06 a 0.41,0.41 0 0 1 -0.11,-0.34 0.46,0.46 0 0 1 0.17,-0.32 0.59,0.59 0 0 1 0.33,-0.13 0.41,0.41 0 0 1 0.33,0.16 l 4.09,4.69 a 0.66,0.66 0 0 1 0.18,0.48 0.64,0.64 0 0 1 -0.22,0.43 0.86,0.86 0 0 1 -0.33,0.17 0.81,0.81 0 0 1 -0.38,0 l -6.4,-1.64 3.5,4 a 0.44,0.44 0 0 1 0.11,0.35 0.55,0.55 0 0 1 -0.18,0.32 0.52,0.52 0 0 1 -0.3,0.13 z"
           style="fill:#ffffff"
           id="path4194" /><path
           d="m 100.46,349.26 a 0.84,0.84 0 0 1 -0.43,-0.08 l -5.33,-2.48 3.67,4.22 a 0.31,0.31 0 0 1 0.08,0.29 0.64,0.64 0 0 1 -0.19,0.3 0.67,0.67 0 0 1 -0.32,0.15 0.34,0.34 0 0 1 -0.29,-0.12 l -4,-4.58 a 0.63,0.63 0 0 1 -0.15,-0.53 0.82,0.82 0 0 1 0.28,-0.51 0.84,0.84 0 0 1 0.47,-0.2 1,1 0 0 1 0.57,0.1 l 5.16,2.37 -1.64,-5.43 a 0.95,0.95 0 0 1 0.23,-1 0.91,0.91 0 0 1 0.55,-0.21 0.64,0.64 0 0 1 0.51,0.22 l 4,4.59 a 0.29,0.29 0 0 1 0.07,0.3 0.55,0.55 0 0 1 -0.19,0.29 0.67,0.67 0 0 1 -0.32,0.15 0.32,0.32 0 0 1 -0.28,-0.12 l -3.67,-4.21 1.72,5.62 a 0.71,0.71 0 0 1 0,0.43 0.6,0.6 0 0 1 -0.18,0.32 0.65,0.65 0 0 1 -0.32,0.12 z"
           style="fill:#ffffff"
           id="path4196" /><path
           d="m 106,344.31 a 3.22,3.22 0 0 1 -1.76,-0.25 4.39,4.39 0 0 1 -1.55,-1.18 4.62,4.62 0 0 1 -0.79,-1.27 3.74,3.74 0 0 1 -0.29,-1.36 3,3 0 0 1 0.3,-1.33 3.42,3.42 0 0 1 0.91,-1.19 3.66,3.66 0 0 1 1.71,-0.86 0.37,0.37 0 0 1 0.4,0.12 0.38,0.38 0 0 1 0.1,0.29 0.34,0.34 0 0 1 -0.12,0.27 0.53,0.53 0 0 1 -0.15,0.08 h -0.14 l -0.18,0.06 -0.21,0.07 -0.25,0.12 -0.28,0.17 -0.31,0.25 a 2.55,2.55 0 0 0 -0.58,0.71 1.85,1.85 0 0 0 -0.23,0.77 2.38,2.38 0 0 0 0.07,0.79 3,3 0 0 0 0.32,0.8 5.85,5.85 0 0 0 0.54,0.75 4.92,4.92 0 0 0 0.67,0.63 3.24,3.24 0 0 0 0.74,0.43 2.37,2.37 0 0 0 0.77,0.17 1.91,1.91 0 0 0 0.8,-0.14 2.44,2.44 0 0 0 0.8,-0.49 2.38,2.38 0 0 0 0.52,-0.61 5.27,5.27 0 0 0 0.33,-0.75 0.61,0.61 0 0 1 0.11,-0.18 0.39,0.39 0 0 1 0.55,0.05 0.45,0.45 0 0 1 0.07,0.47 3.58,3.58 0 0 1 -1.15,1.75 3.33,3.33 0 0 1 -1.72,0.86 z"
           style="fill:#ffffff"
           id="path4198" /><path
           d="m 155.22,408.74 -2.66,2.32 0.57,1.57 a 0.47,0.47 0 0 1 -0.14,0.57 0.57,0.57 0 0 1 -0.35,0.14 0.39,0.39 0 0 1 -0.33,-0.14 0.55,0.55 0 0 1 -0.1,-0.17 l -2.14,-6.17 a 1.28,1.28 0 0 1 -0.09,-0.68 0.81,0.81 0 0 1 0.29,-0.44 0.9,0.9 0 0 1 0.47,-0.23 1.37,1.37 0 0 1 0.66,0.19 l 5.82,3 a 0.74,0.74 0 0 1 0.16,0.12 0.43,0.43 0 0 1 0.09,0.35 0.61,0.61 0 0 1 -0.19,0.33 0.48,0.48 0 0 1 -0.58,0.06 z m -4.31,-2.26 1.38,3.82 2.22,-1.93 z"
           style="fill:#ffffff"
           id="path4200" /><path
           d="m 159.28,407.16 a 3.16,3.16 0 0 1 -1.77,-0.24 4.48,4.48 0 0 1 -1.54,-1.18 4.35,4.35 0 0 1 -0.8,-1.28 3.85,3.85 0 0 1 -0.29,-1.35 3.22,3.22 0 0 1 0.3,-1.34 3.51,3.51 0 0 1 0.91,-1.19 3.73,3.73 0 0 1 1.71,-0.85 0.38,0.38 0 0 1 0.4,0.11 0.41,0.41 0 0 1 0.11,0.3 0.39,0.39 0 0 1 -0.13,0.27 0.53,0.53 0 0 1 -0.15,0.08 h -0.14 l -0.18,0.05 -0.21,0.08 -0.25,0.12 a 2.29,2.29 0 0 0 -0.27,0.17 l -0.32,0.25 a 2.42,2.42 0 0 0 -0.58,0.71 2,2 0 0 0 -0.23,0.77 2.4,2.4 0 0 0 0.07,0.79 3.36,3.36 0 0 0 0.32,0.79 5.3,5.3 0 0 0 0.54,0.76 5.58,5.58 0 0 0 0.67,0.63 3.05,3.05 0 0 0 0.74,0.42 2.21,2.21 0 0 0 0.77,0.18 2.08,2.08 0 0 0 0.8,-0.14 2.62,2.62 0 0 0 0.8,-0.49 2.42,2.42 0 0 0 0.52,-0.62 5.35,5.35 0 0 0 0.34,-0.75 0.34,0.34 0 0 1 0.11,-0.17 0.35,0.35 0 0 1 0.28,-0.09 0.4,0.4 0 0 1 0.27,0.14 0.5,0.5 0 0 1 0.07,0.47 3.65,3.65 0 0 1 -1.16,1.75 3.32,3.32 0 0 1 -1.71,0.85 z"
           style="fill:#ffffff"
           id="path4202" /><path
           d="m 142.46,394.05 a 3.18,3.18 0 0 1 -1.77,-0.25 4.36,4.36 0 0 1 -1.54,-1.18 4.52,4.52 0 0 1 -0.8,-1.27 3.94,3.94 0 0 1 -0.28,-1.36 3,3 0 0 1 0.29,-1.33 3.54,3.54 0 0 1 0.91,-1.19 3.75,3.75 0 0 1 1.71,-0.86 0.38,0.38 0 0 1 0.41,0.12 0.43,0.43 0 0 1 0.1,0.29 0.34,0.34 0 0 1 -0.12,0.27 0.48,0.48 0 0 1 -0.16,0.08 h -0.13 a 0.74,0.74 0 0 0 -0.19,0 l -0.2,0.07 -0.26,0.12 -0.27,0.18 a 2.34,2.34 0 0 0 -0.31,0.24 2.52,2.52 0 0 0 -0.58,0.71 1.91,1.91 0 0 0 -0.24,0.77 2.77,2.77 0 0 0 0.07,0.8 3.16,3.16 0 0 0 0.33,0.79 4.39,4.39 0 0 0 0.54,0.75 4,4 0 0 0 0.67,0.63 3.18,3.18 0 0 0 0.73,0.43 2.43,2.43 0 0 0 0.78,0.17 1.93,1.93 0 0 0 0.8,-0.14 2.4,2.4 0 0 0 0.79,-0.49 2.44,2.44 0 0 0 0.53,-0.61 4.42,4.42 0 0 0 0.33,-0.75 0.36,0.36 0 0 1 0.11,-0.17 0.37,0.37 0 0 1 0.28,-0.09 0.39,0.39 0 0 1 0.27,0.13 0.48,0.48 0 0 1 0.07,0.47 3.6,3.6 0 0 1 -1.16,1.75 3.34,3.34 0 0 1 -1.71,0.92 z"
           style="fill:#ffffff"
           id="path4204" /><path
           d="m 111.23,362.18 a 2.42,2.42 0 0 1 -1.88,-2.17 1.59,1.59 0 0 1 0.58,-1.27 1.85,1.85 0 0 1 0.71,-0.39 1.6,1.6 0 0 1 0.72,0 2.21,2.21 0 0 1 0.65,0.28 2.34,2.34 0 0 1 0.56,0.48 2.12,2.12 0 0 1 0.58,1.39 1.55,1.55 0 0 1 -0.59,1.27 1.6,1.6 0 0 1 -1.33,0.41 z m 1.25,-1.39 a 1,1 0 0 0 -0.1,-0.6 2.46,2.46 0 0 0 -0.39,-0.58 2.24,2.24 0 0 0 -0.52,-0.47 1.2,1.2 0 0 0 -0.58,-0.18 0.83,0.83 0 0 0 -0.57,0.22 0.82,0.82 0 0 0 -0.3,0.54 1.1,1.1 0 0 0 0.1,0.59 2.46,2.46 0 0 0 0.39,0.58 2.27,2.27 0 0 0 0.53,0.47 1,1 0 0 0 0.58,0.18 0.86,0.86 0 0 0 0.86,-0.75 z m 2.45,3.57 a 0.26,0.26 0 0 1 -0.21,-0.09 0.38,0.38 0 0 1 -0.07,-0.18 l -1.64,-8 a 0.35,0.35 0 0 1 0.09,-0.35 0.32,0.32 0 0 1 0.22,-0.07 0.31,0.31 0 0 1 0.2,0.11 0.41,0.41 0 0 1 0.09,0.2 l 1.62,7.95 a 0.31,0.31 0 0 1 -0.08,0.33 0.33,0.33 0 0 1 -0.22,0.1 z m 2.26,-2.87 a 2.19,2.19 0 0 1 -1.3,-0.78 2.13,2.13 0 0 1 -0.57,-1.38 1.57,1.57 0 0 1 0.58,-1.27 1.81,1.81 0 0 1 0.7,-0.39 1.47,1.47 0 0 1 0.72,0 2.07,2.07 0 0 1 0.65,0.28 2.3,2.3 0 0 1 0.56,0.48 2.42,2.42 0 0 1 0.51,0.89 1.77,1.77 0 0 1 0,0.94 1.7,1.7 0 0 1 -0.53,0.83 1.59,1.59 0 0 1 -1.32,0.4 z m 1.25,-1.39 a 1.1,1.1 0 0 0 -0.1,-0.59 2.73,2.73 0 0 0 -0.39,-0.59 3.2,3.2 0 0 0 -0.39,-0.36 1.76,1.76 0 0 0 -0.42,-0.24 0.82,0.82 0 0 0 -0.44,0 0.93,0.93 0 0 0 -0.42,0.21 0.78,0.78 0 0 0 -0.3,0.54 1.16,1.16 0 0 0 0.1,0.6 2.68,2.68 0 0 0 0.39,0.58 2.46,2.46 0 0 0 0.53,0.46 1.08,1.08 0 0 0 0.57,0.19 0.84,0.84 0 0 0 0.58,-0.23 0.79,0.79 0 0 0 0.29,-0.57 z"
           style="fill:#ffffff"
           id="path4206" /><path
           d="m 134,347.22 a 0.42,0.42 0 0 1 -0.35,-0.15 0.62,0.62 0 0 1 -0.1,-0.2 l -1.9,-6 -2.55,2.23 a 0.44,0.44 0 0 1 -0.31,0.11 0.41,0.41 0 0 1 -0.27,-0.15 0.39,0.39 0 0 1 -0.11,-0.29 0.38,0.38 0 0 1 0.15,-0.29 l 3,-2.59 a 0.65,0.65 0 0 1 0.41,-0.18 0.44,0.44 0 0 1 0.34,0.17 1.09,1.09 0 0 1 0.23,0.39 l 2,6.32 a 0.44,0.44 0 0 1 -0.14,0.5 0.52,0.52 0 0 1 -0.4,0.13 z"
           style="fill:#ffffff"
           id="path4208" /><path
           d="m 151.76,331.74 a 2.06,2.06 0 0 1 -1.15,0.06 2,2 0 0 1 -1,-0.63 2,2 0 0 1 -0.49,-1.15 1.73,1.73 0 0 1 0.39,-1.2 1.71,1.71 0 0 1 -1.16,0.21 1.78,1.78 0 0 1 -1,-0.6 1.76,1.76 0 0 1 -0.46,-1 2,2 0 0 1 0.21,-1.08 3.44,3.44 0 0 1 0.78,-1 3.77,3.77 0 0 1 0.79,-0.53 2.89,2.89 0 0 1 0.82,-0.23 1.71,1.71 0 0 1 0.8,0.13 1.94,1.94 0 0 1 0.71,0.52 1.7,1.7 0 0 1 0.45,1 1.73,1.73 0 0 1 -0.35,1.1 1.92,1.92 0 0 1 1.25,-0.21 1.9,1.9 0 0 1 1.05,0.64 2,2 0 0 1 0.49,1.08 2.14,2.14 0 0 1 -0.22,1.13 3.39,3.39 0 0 1 -0.82,1 3.51,3.51 0 0 1 -1.09,0.76 z m 1.22,-2.21 a 1.15,1.15 0 0 0 -0.32,-1 1.26,1.26 0 0 0 -1,-0.5 1.76,1.76 0 0 0 -1.62,1.41 1.3,1.3 0 0 0 0.35,1.07 1.26,1.26 0 0 0 0.64,0.41 1.16,1.16 0 0 0 0.69,0 2.33,2.33 0 0 0 0.66,-0.4 1.75,1.75 0 0 0 0.62,-0.99 z m -2.38,-2.7 a 1.11,1.11 0 0 0 -0.32,-0.94 1,1 0 0 0 -0.9,-0.42 1.78,1.78 0 0 0 -1,0.46 2.25,2.25 0 0 0 -0.36,0.4 1.85,1.85 0 0 0 -0.21,0.45 1.06,1.06 0 0 0 0,0.5 1.22,1.22 0 0 0 0.28,0.49 1.09,1.09 0 0 0 0.89,0.44 1.63,1.63 0 0 0 1,-0.45 1.67,1.67 0 0 0 0.62,-0.93 z"
           style="fill:#ffffff"
           id="path4210" /><path
           d="m 168.55,316.91 a 0.35,0.35 0 0 1 -0.35,-0.12 0.51,0.51 0 0 1 -0.13,-0.32 0.34,0.34 0 0 1 0.1,-0.28 l 0.12,-0.06 a 3.09,3.09 0 0 0 1.18,-0.62 2.58,2.58 0 0 0 0.42,-0.47 1.75,1.75 0 0 0 0.21,-0.47 1.38,1.38 0 0 0 0,-0.5 2.17,2.17 0 0 0 -0.13,-0.5 2.79,2.79 0 0 0 -0.26,-0.52 c -0.11,-0.18 -0.24,-0.36 -0.36,-0.53 -0.12,-0.17 -0.28,-0.34 -0.46,-0.54 a 1.36,1.36 0 0 1 0,1 2,2 0 0 1 -0.67,1 2.22,2.22 0 0 1 -1.7,0.62 2.3,2.3 0 0 1 -1.58,-0.85 2.37,2.37 0 0 1 -0.64,-1.76 2.4,2.4 0 0 1 0.91,-1.69 2.72,2.72 0 0 1 0.93,-0.57 2.13,2.13 0 0 1 0.91,-0.14 2.37,2.37 0 0 1 0.86,0.24 3.47,3.47 0 0 1 0.8,0.5 6.05,6.05 0 0 1 0.73,0.71 c 0.19,0.22 0.37,0.44 0.52,0.65 a 6.53,6.53 0 0 1 0.46,0.7 5,5 0 0 1 0.36,0.74 3.13,3.13 0 0 1 0.18,0.76 2.58,2.58 0 0 1 0,0.79 2.47,2.47 0 0 1 -0.33,0.76 3.42,3.42 0 0 1 -0.65,0.75 3.54,3.54 0 0 1 -1.43,0.72 z m -0.08,-4.7 A 1.68,1.68 0 0 0 168,311 a 1.66,1.66 0 0 0 -1,-0.59 1.39,1.39 0 0 0 -1.14,0.38 1.43,1.43 0 0 0 -0.56,1.07 1.67,1.67 0 0 0 0.47,1.14 1.78,1.78 0 0 0 1,0.64 1.28,1.28 0 0 0 1.1,-0.36 1.56,1.56 0 0 0 0.6,-1.07 z"
           style="fill:#ffffff"
           id="path4212" /><path
           d="m 148.88,361.15 a 0.44,0.44 0 0 1 -0.34,-0.16 l -0.74,-0.85 -2.21,1.92 a 0.49,0.49 0 0 1 -0.39,0.13 0.56,0.56 0 0 1 -0.36,-0.19 0.6,0.6 0 0 1 -0.14,-0.3 l -0.78,-5.16 a 1,1 0 0 1 0.31,-0.92 0.75,0.75 0 0 1 0.51,-0.2 0.69,0.69 0 0 1 0.51,0.27 l 2.81,3.22 0.56,-0.49 a 0.34,0.34 0 0 1 0.28,-0.09 0.36,0.36 0 0 1 0.25,0.13 0.39,0.39 0 0 1 0.1,0.26 0.36,0.36 0 0 1 -0.14,0.27 l -0.56,0.49 0.74,0.86 a 0.39,0.39 0 0 1 0.11,0.35 0.52,0.52 0 0 1 -0.18,0.32 0.58,0.58 0 0 1 -0.34,0.14 z m -1.58,-1.58 -2.59,-3 0.74,4.58 z"
           style="fill:#ffffff"
           id="path4214" /><path
           d="m 165.25,346.92 a 3.55,3.55 0 0 1 -1.15,0.18 0.27,0.27 0 0 1 -0.22,-0.1 0.47,0.47 0 0 1 -0.11,-0.33 0.39,0.39 0 0 1 0.13,-0.31 0.21,0.21 0 0 1 0.17,-0.07 2.38,2.38 0 0 0 1.64,-0.61 1.49,1.49 0 0 0 0.59,-1.07 1.83,1.83 0 0 0 -1.48,-1.71 1.32,1.32 0 0 0 -1,0.36 1.8,1.8 0 0 0 -0.49,0.68 1.74,1.74 0 0 0 -0.17,0.77 0.26,0.26 0 0 1 -0.11,0.18 0.89,0.89 0 0 1 -0.39,0.19 0.32,0.32 0 0 1 -0.34,-0.06 l -2.2,-2.52 a 0.43,0.43 0 0 1 0.07,-0.68 l 2.54,-2.21 a 0.37,0.37 0 0 1 0.29,-0.1 0.45,0.45 0 0 1 0.26,0.14 0.39,0.39 0 0 1 0.1,0.27 0.36,0.36 0 0 1 -0.14,0.27 l -2.29,2 1.62,1.88 V 344 a 0.85,0.85 0 0 1 0,-0.24 3.43,3.43 0 0 1 0.12,-0.33 2.15,2.15 0 0 1 0.31,-0.43 2.69,2.69 0 0 1 0.4,-0.43 2.15,2.15 0 0 1 1.6,-0.57 2.39,2.39 0 0 1 1.58,0.87 2.28,2.28 0 0 1 0.61,1.76 2.5,2.5 0 0 1 -0.93,1.67 3.29,3.29 0 0 1 -1.01,0.62 z"
           style="fill:#ffffff"
           id="path4216" /><path
           d="m 182.8,331.64 a 2.07,2.07 0 0 1 -0.9,0.14 2.56,2.56 0 0 1 -0.86,-0.23 3.89,3.89 0 0 1 -0.8,-0.51 6.05,6.05 0 0 1 -0.73,-0.71 c -0.2,-0.22 -0.37,-0.44 -0.53,-0.65 a 7.09,7.09 0 0 1 -0.46,-0.7 4.08,4.08 0 0 1 -0.35,-0.74 3.13,3.13 0 0 1 -0.18,-0.76 2.58,2.58 0 0 1 0,-0.79 2.43,2.43 0 0 1 0.32,-0.76 3.48,3.48 0 0 1 0.66,-0.75 3.57,3.57 0 0 1 1.44,-0.76 0.36,0.36 0 0 1 0.36,0.12 0.51,0.51 0 0 1 0.13,0.32 0.31,0.31 0 0 1 -0.11,0.28 0.17,0.17 0 0 1 -0.11,0.06 3.15,3.15 0 0 0 -1.18,0.62 2.58,2.58 0 0 0 -0.42,0.47 1.75,1.75 0 0 0 -0.21,0.47 1.38,1.38 0 0 0 0,0.5 2.15,2.15 0 0 0 0.12,0.5 2.9,2.9 0 0 0 0.27,0.52 6.18,6.18 0 0 0 0.36,0.53 c 0.13,0.16 0.28,0.35 0.46,0.54 a 1.33,1.33 0 0 1 0,-1 2.07,2.07 0 0 1 0.67,-1 2.26,2.26 0 0 1 1.7,-0.62 2.32,2.32 0 0 1 1.59,0.85 2.34,2.34 0 0 1 -0.28,3.46 2.85,2.85 0 0 1 -0.96,0.6 z m -2.28,-2.52 a 1.66,1.66 0 0 0 0.47,1.17 1.61,1.61 0 0 0 1,0.59 1.37,1.37 0 0 0 1.13,-0.38 1.46,1.46 0 0 0 0.57,-1.07 1.67,1.67 0 0 0 -0.47,-1.14 1.78,1.78 0 0 0 -1,-0.64 1.27,1.27 0 0 0 -1.1,0.36 1.54,1.54 0 0 0 -0.6,1.11 z"
           style="fill:#ffffff"
           id="path4218" /><path
           d="m 162.13,377.79 a 0.47,0.47 0 0 1 -0.35,-0.17 l -3.78,-4.35 -0.37,1.27 a 0.34,0.34 0 0 1 -0.11,0.17 0.34,0.34 0 0 1 -0.27,0.09 0.37,0.37 0 0 1 -0.33,-0.47 l 0.61,-2 a 0.47,0.47 0 0 1 0.16,-0.24 0.44,0.44 0 0 1 0.31,-0.09 0.45,0.45 0 0 1 0.35,0.18 l 4.17,4.78 a 0.4,0.4 0 0 1 0.12,0.38 0.51,0.51 0 0 1 -0.19,0.33 0.52,0.52 0 0 1 -0.32,0.12 z"
           style="fill:#ffffff"
           id="path4220" /><path
           d="m 178.89,357.78 a 4.65,4.65 0 0 1 0,1.47 l -0.27,3.27 2.33,-2 a 0.37,0.37 0 0 1 0.56,0 0.35,0.35 0 0 1 0.1,0.27 0.38,0.38 0 0 1 -0.15,0.29 l -2.66,2.32 a 0.72,0.72 0 0 1 -0.47,0.2 0.45,0.45 0 0 1 -0.38,-0.16 0.67,0.67 0 0 1 -0.15,-0.54 l 0.23,-3.79 a 3.36,3.36 0 0 0 0,-1 1.55,1.55 0 0 0 -0.32,-0.67 1.26,1.26 0 0 0 -0.94,-0.48 1.31,1.31 0 0 0 -1,0.35 3.14,3.14 0 0 0 -0.44,0.46 2.41,2.41 0 0 0 -0.23,0.36 2.45,2.45 0 0 0 -0.15,0.38 c -0.05,0.17 -0.09,0.28 -0.1,0.31 a 0.27,0.27 0 0 1 -0.09,0.12 0.44,0.44 0 0 1 -0.59,-0.05 0.37,0.37 0 0 1 -0.06,-0.37 4.54,4.54 0 0 1 0.43,-1 3.23,3.23 0 0 1 0.75,-0.87 2.2,2.2 0 0 1 1.61,-0.6 1.9,1.9 0 0 1 1.44,0.68 2.36,2.36 0 0 1 0.55,1.05 z"
           style="fill:#ffffff"
           id="path4222" /><path
           d="m 196,348.13 a 0.44,0.44 0 0 1 -0.46,-0.12 0.39,0.39 0 0 1 -0.1,-0.3 0.35,0.35 0 0 1 0.12,-0.28 l 0.11,-0.06 a 3.31,3.31 0 0 0 1.29,-0.68 1.87,1.87 0 0 0 0.63,-1 1.08,1.08 0 0 0 -0.27,-1 1.34,1.34 0 0 0 -1.08,-0.49 2,2 0 0 0 -1.2,0.52 l -0.28,0.24 a 0.34,0.34 0 0 1 -0.27,0.1 0.38,0.38 0 0 1 -0.25,-0.14 0.37,0.37 0 0 1 -0.1,-0.26 0.31,0.31 0 0 1 0.12,-0.26 l 0.26,-0.22 a 1.85,1.85 0 0 0 0.65,-1 1.11,1.11 0 0 0 -0.29,-1 1,1 0 0 0 -0.87,-0.39 1.55,1.55 0 0 0 -0.94,0.4 3.45,3.45 0 0 0 -0.9,1.25 0.23,0.23 0 0 1 -0.07,0.1 0.34,0.34 0 0 1 -0.3,0.07 0.49,0.49 0 0 1 -0.3,-0.16 0.33,0.33 0 0 1 -0.07,-0.34 2.92,2.92 0 0 1 0.4,-0.74 4.3,4.3 0 0 1 0.71,-0.81 3,3 0 0 1 1,-0.63 1.85,1.85 0 0 1 1.09,-0.06 1.81,1.81 0 0 1 1,0.62 1.56,1.56 0 0 1 0.42,1 1.92,1.92 0 0 1 -0.28,1 1.81,1.81 0 0 1 1.22,-0.18 2,2 0 0 1 1.09,0.67 2.15,2.15 0 0 1 0.45,0.84 1.79,1.79 0 0 1 0,0.86 2.83,2.83 0 0 1 -0.37,0.79 3.19,3.19 0 0 1 -0.63,0.71 3.68,3.68 0 0 1 -1.53,0.95 z"
           style="fill:#ffffff"
           id="path4224" /><path
           d="m 174.47,393.55 a 2,2 0 0 1 -0.92,0.07 2.87,2.87 0 0 1 -0.91,-0.33 4.72,4.72 0 0 1 -0.86,-0.6 7.88,7.88 0 0 1 -0.81,-0.82 q -2.49,-2.85 -0.54,-4.55 c 1.3,-1.13 2.77,-0.74 4.43,1.16 a 8.9,8.9 0 0 1 0.7,0.91 5.11,5.11 0 0 1 0.48,0.93 3.11,3.11 0 0 1 0.2,0.94 2.13,2.13 0 0 1 -0.19,0.91 2.69,2.69 0 0 1 -1.58,1.38 z m 0.7,-1.57 a 1.26,1.26 0 0 0 0.12,-0.45 2.1,2.1 0 0 0 -0.06,-0.48 2.62,2.62 0 0 0 -0.19,-0.49 4.27,4.27 0 0 0 -0.28,-0.49 c -0.12,-0.17 -0.23,-0.33 -0.34,-0.46 l -0.36,-0.43 -0.39,-0.44 -0.43,-0.4 a 3.2,3.2 0 0 0 -0.44,-0.35 2.51,2.51 0 0 0 -0.46,-0.24 1.36,1.36 0 0 0 -0.46,-0.12 1.06,1.06 0 0 0 -0.46,0.06 1.34,1.34 0 0 0 -0.44,0.26 1.31,1.31 0 0 0 -0.32,0.4 0.94,0.94 0 0 0 -0.12,0.44 1.36,1.36 0 0 0 0.05,0.48 2,2 0 0 0 0.18,0.48 3.29,3.29 0 0 0 0.29,0.49 5,5 0 0 0 0.34,0.48 l 0.37,0.45 0.39,0.42 0.41,0.39 a 4.43,4.43 0 0 0 0.45,0.36 3.21,3.21 0 0 0 0.45,0.24 1.52,1.52 0 0 0 0.47,0.13 1.24,1.24 0 0 0 0.46,-0.06 1.15,1.15 0 0 0 0.45,-0.26 1.24,1.24 0 0 0 0.32,-0.39 z"
           style="fill:#ffffff"
           id="path4226" /><path
           d="m 190.89,376.1 a 1.12,1.12 0 0 1 -0.83,-0.4 1.15,1.15 0 0 1 -0.28,-0.86 1.23,1.23 0 0 1 0.48,-0.89 1.25,1.25 0 0 1 0.93,-0.35 1.17,1.17 0 0 1 1.11,1.27 1.29,1.29 0 0 1 -0.47,0.89 1.25,1.25 0 0 1 -0.94,0.34 z"
           style="fill:#ffffff"
           id="path4228" /><path
           d="m 170.07,279.93 a 1.13,1.13 0 0 1 -0.8,-0.4 1.1,1.1 0 0 1 -0.27,-0.83 1.26,1.26 0 0 1 0.46,-0.87 1.3,1.3 0 0 1 0.91,-0.34 1.13,1.13 0 0 1 1.08,1.24 1.22,1.22 0 0 1 -0.46,0.86 1.23,1.23 0 0 1 -0.92,0.34 z"
           style="fill:#ffffff"
           id="path4230" /><path
           d="m 174.56,285.08 a 1.17,1.17 0 0 1 -0.81,-0.4 1.08,1.08 0 0 1 -0.26,-0.84 1.22,1.22 0 0 1 0.51,-0.84 1.25,1.25 0 0 1 0.91,-0.34 1.09,1.09 0 0 1 0.8,0.38 1.14,1.14 0 0 1 0.28,0.85 1.38,1.38 0 0 1 -1.38,1.21 z"
           style="fill:#ffffff"
           id="path4232" /><path
           d="m 205.45,361.49 a 0.6,0.6 0 0 1 -0.42,-0.2 0.53,0.53 0 0 1 -0.14,-0.46 0.65,0.65 0 0 1 0.25,-0.44 l 5.49,-4.79 a 0.69,0.69 0 0 1 0.47,-0.18 0.52,0.52 0 0 1 0.44,0.2 0.54,0.54 0 0 1 0.13,0.46 0.67,0.67 0 0 1 -0.24,0.44 l -5.52,4.81 a 0.61,0.61 0 0 1 -0.46,0.16 z m 2.21,2.53 a 0.59,0.59 0 0 1 -0.42,-0.19 0.6,0.6 0 0 1 -0.14,-0.46 0.67,0.67 0 0 1 0.25,-0.45 l 5.51,-4.8 a 0.59,0.59 0 0 1 0.45,-0.17 0.56,0.56 0 0 1 0.44,0.21 0.53,0.53 0 0 1 0.13,0.45 0.65,0.65 0 0 1 -0.24,0.43 l -5.53,4.82 a 0.58,0.58 0 0 1 -0.45,0.14 z"
           style="fill:#ffffff"
           id="path4234" /><path
           d="m 186.21,297.93 0.26,3.42 a 0.5,0.5 0 0 1 -0.15,0.45 0.47,0.47 0 0 1 -0.33,0.1 0.39,0.39 0 0 1 -0.3,-0.14 0.44,0.44 0 0 1 -0.11,-0.28 l -0.24,-3.74 -3.54,-0.8 a 0.28,0.28 0 0 1 -0.2,-0.12 0.44,0.44 0 0 1 -0.11,-0.36 0.52,0.52 0 0 1 0.18,-0.36 0.47,0.47 0 0 1 0.44,-0.09 l 3.23,0.72 -0.25,-3.3 a 0.52,0.52 0 0 1 0.17,-0.46 0.4,0.4 0 0 1 0.3,-0.11 0.37,0.37 0 0 1 0.28,0.13 0.46,0.46 0 0 1 0.1,0.26 l 0.28,3.68 3.62,0.82 a 0.46,0.46 0 0 1 0.25,0.13 0.45,0.45 0 0 1 0.09,0.36 0.61,0.61 0 0 1 -0.19,0.34 0.43,0.43 0 0 1 -0.42,0.1 z"
           style="fill:#ffffff"
           id="path4236" /><path
           d="m 223.57,341.06 a 0.73,0.73 0 0 1 -0.5,-0.28 l -2.23,-2.55 -2.66,2.32 a 0.85,0.85 0 0 1 -0.55,0.2 0.69,0.69 0 0 1 -0.63,-0.75 0.83,0.83 0 0 1 0.29,-0.51 l 2.67,-2.32 -2.25,-2.58 a 0.74,0.74 0 0 1 -0.2,-0.54 0.63,0.63 0 0 1 0.25,-0.51 0.67,0.67 0 0 1 0.53,-0.18 0.76,0.76 0 0 1 0.51,0.27 l 2.25,2.58 2.67,-2.32 a 0.86,0.86 0 0 1 0.54,-0.22 0.66,0.66 0 0 1 0.5,0.23 0.62,0.62 0 0 1 0.16,0.53 0.77,0.77 0 0 1 -0.28,0.52 l -2.67,2.32 2.23,2.56 a 0.7,0.7 0 0 1 0.19,0.53 0.69,0.69 0 0 1 -0.24,0.51 0.76,0.76 0 0 1 -0.58,0.19 z"
           style="fill:#ffffff"
           id="path4238" /><path
           d="m 126.86,379.37 a 0.55,0.55 0 0 1 -0.37,-0.2 l -1.62,-1.86 -1.94,1.69 a 0.56,0.56 0 0 1 -0.39,0.15 0.48,0.48 0 0 1 -0.37,-0.17 0.45,0.45 0 0 1 -0.12,-0.38 0.61,0.61 0 0 1 0.21,-0.37 l 1.94,-1.69 -1.64,-1.88 a 0.51,0.51 0 0 1 -0.14,-0.39 0.49,0.49 0 0 1 0.18,-0.37 0.52,0.52 0 0 1 0.39,-0.13 0.53,0.53 0 0 1 0.37,0.2 l 1.64,1.88 1.94,-1.7 a 0.56,0.56 0 0 1 0.39,-0.15 0.46,0.46 0 0 1 0.37,0.17 0.48,0.48 0 0 1 0.11,0.38 0.51,0.51 0 0 1 -0.2,0.37 l -1.94,1.7 1.62,1.86 a 0.54,0.54 0 0 1 0.14,0.38 0.53,0.53 0 0 1 -0.18,0.37 0.5,0.5 0 0 1 -0.39,0.14 z"
           style="fill:#ffffff"
           id="path4240" /><path
           d="m 196.83,315.61 a 0.34,0.34 0 0 1 -0.3,-0.11 0.36,0.36 0 0 1 -0.07,-0.31 0.75,0.75 0 0 1 0.26,-0.38 l 5.31,-4.63 a 0.71,0.71 0 0 1 0.41,-0.2 0.35,0.35 0 0 1 0.31,0.11 0.33,0.33 0 0 1 0.06,0.31 0.77,0.77 0 0 1 -0.26,0.37 l -5.31,4.64 a 0.75,0.75 0 0 1 -0.41,0.2 z"
           style="fill:#ffffff"
           id="path4242" /><path
           d="m 131.68,377 a 0.4,0.4 0 0 1 -0.27,-0.14 0.4,0.4 0 0 1 -0.1,-0.28 0.35,0.35 0 0 1 0.15,-0.28 l 3.59,-3.13 a 0.36,0.36 0 0 1 0.3,-0.11 0.39,0.39 0 0 1 0.26,0.14 0.43,0.43 0 0 1 0.11,0.28 0.41,0.41 0 0 1 -0.15,0.28 l -3.57,3.15 a 0.38,0.38 0 0 1 -0.32,0.09 z"
           style="fill:#ffffff"
           id="path4244" /><path
           d="m 130.54,379.89 c 0,0.17 -0.12,0.26 -0.23,0.28 -0.11,0.02 -0.21,0 -0.31,-0.17 a 1.57,1.57 0 0 1 -0.25,-0.62 l -2,-10.31 a 1.69,1.69 0 0 1 0,-0.67 c 0,-0.16 0.13,-0.26 0.23,-0.28 0.1,-0.02 0.21,0 0.32,0.18 a 1.67,1.67 0 0 1 0.24,0.62 l 2,10.3 a 1.52,1.52 0 0 1 0,0.67 z"
           style="fill:#ffffff"
           id="path4246" /><path
           d="m 169.53,284.29 a 0.34,0.34 0 0 1 -0.3,-0.11 0.33,0.33 0 0 1 -0.06,-0.31 0.72,0.72 0 0 1 0.25,-0.38 l 5.32,-4.63 a 0.68,0.68 0 0 1 0.41,-0.2 0.34,0.34 0 0 1 0.3,0.11 0.33,0.33 0 0 1 0.06,0.31 0.74,0.74 0 0 1 -0.25,0.37 l -5.32,4.64 a 0.75,0.75 0 0 1 -0.41,0.2 z"
           style="fill:#ffffff"
           id="path4248" /><path
           d="m 118.54,333.5 a 0.79,0.79 0 0 1 -0.42,-0.08 l -5.33,-2.48 3.67,4.22 a 0.28,0.28 0 0 1 0.07,0.29 0.61,0.61 0 0 1 -0.19,0.3 0.55,0.55 0 0 1 -0.31,0.14 0.29,0.29 0 0 1 -0.29,-0.11 l -4,-4.58 a 0.63,0.63 0 0 1 -0.15,-0.53 0.84,0.84 0 0 1 0.75,-0.71 1,1 0 0 1 0.58,0.1 l 5.16,2.37 -1.65,-5.43 a 1.09,1.09 0 0 1 0,-0.59 0.88,0.88 0 0 1 0.27,-0.43 0.81,0.81 0 0 1 0.55,-0.21 0.63,0.63 0 0 1 0.5,0.22 l 4,4.58 a 0.33,0.33 0 0 1 0.08,0.3 0.64,0.64 0 0 1 -0.19,0.3 0.61,0.61 0 0 1 -0.32,0.14 0.3,0.3 0 0 1 -0.29,-0.11 l -3.71,-4.2 1.73,5.62 a 0.9,0.9 0 0 1 0,0.43 0.69,0.69 0 0 1 -0.19,0.32 0.62,0.62 0 0 1 -0.32,0.13 z"
           style="fill:#ffffff"
           id="path4250" /><path
           d="m 123.41,329.48 a 0.47,0.47 0 0 1 -0.35,-0.17 l -4.16,-4.78 a 0.5,0.5 0 0 1 -0.12,-0.37 0.48,0.48 0 0 1 0.18,-0.35 l 1.68,-1.46 a 4.9,4.9 0 0 1 0.61,-0.48 4.32,4.32 0 0 1 0.64,-0.34 2.09,2.09 0 0 1 0.66,-0.15 1.61,1.61 0 0 1 0.65,0.15 1.74,1.74 0 0 1 0.62,0.49 1.57,1.57 0 0 1 0.42,1.07 2,2 0 0 1 -0.49,1.21 v 0 a 1.68,1.68 0 0 1 2.11,0.35 l 1.2,1.09 v 0.05 a 0.42,0.42 0 0 1 0.11,0.35 0.53,0.53 0 0 1 -0.17,0.32 0.64,0.64 0 0 1 -0.37,0.15 0.43,0.43 0 0 1 -0.36,-0.13 l -1.06,-1 a 5,5 0 0 0 -0.57,-0.46 1.09,1.09 0 0 0 -0.47,-0.18 0.72,0.72 0 0 0 -0.45,0.09 2.33,2.33 0 0 0 -0.53,0.38 l -1.3,1.13 1.88,2.15 a 0.41,0.41 0 0 1 0.12,0.38 0.51,0.51 0 0 1 -0.19,0.34 0.52,0.52 0 0 1 -0.29,0.17 z m -0.84,-4.59 c 0.15,-0.14 0.28,-0.26 0.39,-0.38 a 2.47,2.47 0 0 0 0.29,-0.39 1.17,1.17 0 0 0 0.17,-0.43 1,1 0 0 0 0,-0.44 1.3,1.3 0 0 0 -0.27,-0.48 1.56,1.56 0 0 0 -0.35,-0.3 0.81,0.81 0 0 0 -0.36,-0.1 1.27,1.27 0 0 0 -0.34,0 1.42,1.42 0 0 0 -0.34,0.15 l -0.31,0.21 -0.29,0.25 -1.23,1.07 1.55,1.78 z"
           style="fill:#ffffff"
           id="path4252" /><path
           d="m 136.63,317.74 a 1,1 0 0 1 -0.43,-0.08 l -5.33,-2.48 3.67,4.21 a 0.33,0.33 0 0 1 0.08,0.3 0.7,0.7 0 0 1 -0.19,0.3 0.58,0.58 0 0 1 -0.32,0.14 0.3,0.3 0 0 1 -0.29,-0.11 l -4,-4.58 a 0.63,0.63 0 0 1 -0.15,-0.53 0.82,0.82 0 0 1 0.28,-0.51 0.92,0.92 0 0 1 0.47,-0.21 1.09,1.09 0 0 1 0.57,0.11 l 5.16,2.37 -1.64,-5.43 a 1,1 0 0 1 0,-0.59 0.94,0.94 0 0 1 0.26,-0.43 0.81,0.81 0 0 1 0.55,-0.21 0.64,0.64 0 0 1 0.51,0.22 l 4,4.58 a 0.3,0.3 0 0 1 0.07,0.3 0.61,0.61 0 0 1 -0.19,0.3 0.58,0.58 0 0 1 -0.32,0.14 0.29,0.29 0 0 1 -0.28,-0.11 l -3.67,-4.21 1.72,5.62 a 0.71,0.71 0 0 1 0,0.43 0.54,0.54 0 0 1 -0.18,0.31 0.66,0.66 0 0 1 -0.35,0.15 z"
           style="fill:#ffffff"
           id="path4254" /><path
           d="m 139.41,312.46 a 0.34,0.34 0 0 1 -0.25,-0.11 0.38,0.38 0 0 1 -0.09,-0.28 0.48,0.48 0 0 1 0.16,-0.27 l 1.72,-1.5 a 0.46,0.46 0 0 1 0.29,-0.12 0.34,0.34 0 0 1 0.26,0.12 0.3,0.3 0 0 1 0.08,0.27 0.43,0.43 0 0 1 -0.16,0.27 l -1.72,1.5 a 0.44,0.44 0 0 1 -0.29,0.12 z"
           style="fill:#ffffff"
           id="path4256" /><path
           d="m 154.71,302 a 0.71,0.71 0 0 1 -0.42,-0.08 l -5.29,-2.5 3.67,4.21 a 0.3,0.3 0 0 1 0.07,0.3 0.55,0.55 0 0 1 -0.19,0.29 0.5,0.5 0 0 1 -0.31,0.15 0.32,0.32 0 0 1 -0.29,-0.11 l -4,-4.58 a 0.61,0.61 0 0 1 -0.16,-0.53 0.78,0.78 0 0 1 0.29,-0.51 0.89,0.89 0 0 1 0.46,-0.21 1.05,1.05 0 0 1 0.58,0.11 l 5.16,2.37 -1.65,-5.44 a 1.16,1.16 0 0 1 0,-0.58 0.88,0.88 0 0 1 0.27,-0.43 0.81,0.81 0 0 1 0.55,-0.21 0.63,0.63 0 0 1 0.5,0.22 l 4,4.58 a 0.36,0.36 0 0 1 0.07,0.3 0.61,0.61 0 0 1 -0.19,0.29 0.56,0.56 0 0 1 -0.32,0.15 0.33,0.33 0 0 1 -0.29,-0.11 l -3.67,-4.22 1.73,5.62 a 0.91,0.91 0 0 1 0,0.43 0.64,0.64 0 0 1 -0.19,0.32 0.55,0.55 0 0 1 -0.38,0.17 z"
           style="fill:#ffffff"
           id="path4258" /><path
           d="m 161.16,296.59 a 0.45,0.45 0 0 1 -0.27,-0.14 l -1.16,-1.34 -1.4,1.21 a 0.37,0.37 0 0 1 -0.28,0.11 0.32,0.32 0 0 1 -0.26,-0.12 0.29,0.29 0 0 1 -0.09,-0.27 0.39,0.39 0 0 1 0.15,-0.27 l 1.4,-1.21 -1.18,-1.36 a 0.41,0.41 0 0 1 -0.11,-0.28 0.39,0.39 0 0 1 0.41,-0.36 0.37,0.37 0 0 1 0.27,0.15 l 1.18,1.35 1.4,-1.22 a 0.41,0.41 0 0 1 0.28,-0.11 0.28,0.28 0 0 1 0.26,0.12 0.3,0.3 0 0 1 0.08,0.27 0.4,0.4 0 0 1 -0.14,0.27 l -1.4,1.22 1.17,1.34 a 0.4,0.4 0 0 1 0.1,0.28 0.38,0.38 0 0 1 -0.13,0.26 0.35,0.35 0 0 1 -0.28,0.1 z"
           style="fill:#ffffff"
           id="path4260" /><polyline
           points="138.64 284.3 143.44 285.32 142.04 278.73 144.51 276.58"
           style="fill:none;stroke:#ffffff;stroke-miterlimit:10"
           id="polyline4262" /></g><g
         id="freepik--Tax--inject-124"><rect
           x="173.27"
           y="158.57001"
           width="210.59"
           height="289.82999"
           style="fill:#ffffff;stroke:#263238;stroke-linecap:round;stroke-miterlimit:10"
           id="rect4265" /><rect
           x="173.27"
           y="158.57001"
           width="128.02"
           height="84.139999"
           style="fill:#263238;stroke:#263238;stroke-linecap:round;stroke-miterlimit:10"
           id="rect4267" /><line
           x1="353.87"
           y1="276.04999"
           x2="372.20999"
           y2="276.04999"
           style="fill:none;stroke:#263238;stroke-linecap:round;stroke-miterlimit:10"
           id="line4275" /><line
           x1="325.45001"
           y1="276.04999"
           x2="350.82001"
           y2="276.04999"
           style="fill:none;stroke:#263238;stroke-linecap:round;stroke-miterlimit:10"
           id="line4277" /><line
           x1="272.89001"
           y1="276.04999"
           x2="321.17001"
           y2="276.04999"
           style="fill:none;stroke:#263238;stroke-linecap:round;stroke-miterlimit:10"
           id="line4279" /><line
           x1="203.52"
           y1="276.04999"
           x2="269.84"
           y2="276.04999"
           style="fill:none;stroke:#263238;stroke-linecap:round;stroke-miterlimit:10"
           id="line4281" /><line
           x1="186.00999"
           y1="276.04999"
           x2="199.86"
           y2="276.04999"
           style="fill:none;stroke:#263238;stroke-linecap:round;stroke-miterlimit:10"
           id="line4283" /><line
           x1="330.95001"
           y1="289.89999"
           x2="372.20999"
           y2="289.89999"
           style="fill:none;stroke:#263238;stroke-linecap:round;stroke-miterlimit:10"
           id="line4285" /><line
           x1="254.56"
           y1="289.89999"
           x2="327.29001"
           y2="289.89999"
           style="fill:none;stroke:#263238;stroke-linecap:round;stroke-miterlimit:10"
           id="line4287" /><line
           x1="220.02"
           y1="289.89999"
           x2="249.67"
           y2="289.89999"
           style="fill:none;stroke:#263238;stroke-linecap:round;stroke-miterlimit:10"
           id="line4289" /><line
           x1="186.00999"
           y1="289.89999"
           x2="215.14"
           y2="289.89999"
           style="fill:none;stroke:#263238;stroke-linecap:round;stroke-miterlimit:10"
           id="line4291" /><line
           x1="282.98001"
           y1="303.76001"
           x2="372.20999"
           y2="303.76001"
           style="fill:none;stroke:#263238;stroke-linecap:round;stroke-miterlimit:10"
           id="line4293" /><line
           x1="248.75"
           y1="303.76001"
           x2="278.56"
           y2="303.76001"
           style="fill:none;stroke:#263238;stroke-linecap:round;stroke-miterlimit:10"
           id="line4295" /><line
           x1="204.97"
           y1="303.76001"
           x2="246"
           y2="303.76001"
           style="fill:none;stroke:#263238;stroke-linecap:round;stroke-miterlimit:10"
           id="line4297" /><line
           x1="186.00999"
           y1="303.76001"
           x2="202.3"
           y2="303.76001"
           style="fill:none;stroke:#263238;stroke-linecap:round;stroke-miterlimit:10"
           id="line4299" /><rect
           x="184.89999"
           y="314.84"
           width="186.2"
           height="119.7"
           style="fill:none;stroke:#263238;stroke-linecap:round;stroke-miterlimit:10"
           id="rect4301" /><line
           x1="235"
           y1="337.56"
           x2="370.54999"
           y2="337.56"
           style="fill:none;stroke:#263238;stroke-linecap:round;stroke-miterlimit:10"
           id="line4303" /><line
           x1="185.46001"
           y1="337.56"
           x2="230.41"
           y2="337.56"
           style="fill:none;stroke:#263238;stroke-linecap:round;stroke-miterlimit:10"
           id="line4305" /><line
           x1="185.46001"
           y1="353.63"
           x2="370.54999"
           y2="353.63"
           style="fill:none;stroke:#263238;stroke-linecap:round;stroke-miterlimit:10"
           id="line4307" /><line
           x1="345.92999"
           y1="369.70999"
           x2="370.54999"
           y2="369.70999"
           style="fill:none;stroke:#263238;stroke-linecap:round;stroke-miterlimit:10"
           id="line4309" /><line
           x1="185.46001"
           y1="369.70999"
           x2="343.79001"
           y2="369.70999"
           style="fill:none;stroke:#263238;stroke-linecap:round;stroke-miterlimit:10"
           id="line4311" /><line
           x1="261.28"
           y1="385.78"
           x2="370.54999"
           y2="385.78"
           style="fill:none;stroke:#263238;stroke-linecap:round;stroke-miterlimit:10"
           id="line4313" /><line
           x1="185.46001"
           y1="385.78"
           x2="258.53"
           y2="385.78"
           style="fill:none;stroke:#263238;stroke-linecap:round;stroke-miterlimit:10"
           id="line4315" /><line
           x1="230.41"
           y1="401.85001"
           x2="370.54999"
           y2="401.85001"
           style="fill:none;stroke:#263238;stroke-linecap:round;stroke-miterlimit:10"
           id="line4317" /><line
           x1="185.46001"
           y1="401.85001"
           x2="224.61"
           y2="401.85001"
           style="fill:none;stroke:#263238;stroke-linecap:round;stroke-miterlimit:10"
           id="line4319" /><line
           x1="264.64001"
           y1="417.92001"
           x2="370.54999"
           y2="417.92001"
           style="fill:none;stroke:#263238;stroke-linecap:round;stroke-miterlimit:10"
           id="line4321" /><line
           x1="185.46001"
           y1="417.92001"
           x2="260.97"
           y2="417.92001"
           style="fill:none;stroke:#263238;stroke-linecap:round;stroke-miterlimit:10"
           id="line4323" /><line
           x1="330.10001"
           y1="414.35001"
           x2="330.10001"
           y2="433.98999"
           style="fill:none;stroke:#263238;stroke-linecap:round;stroke-miterlimit:10"
           id="line4325" /><line
           x1="330.10001"
           y1="329.39999"
           x2="330.10001"
           y2="410.98999"
           style="fill:none;stroke:#263238;stroke-linecap:round;stroke-miterlimit:10"
           id="line4327" /><line
           x1="330.10001"
           y1="315.95001"
           x2="330.10001"
           y2="324.20999"
           style="fill:none;stroke:#263238;stroke-linecap:round;stroke-miterlimit:10"
           id="line4329" /><text
           xml:space="preserve"
           style="font-size:30.8165px;fill:#ffffff;stroke-width:0.412721"
           x="174.47177"
           y="185.88005"
           id="text4441"><tspan
             sodipodi:role="line"
             id="tspan4439"
             x="174.47177"
             y="185.88005"
             style="fill:#ffffff;stroke-width:0.412721">invoice</tspan></text></g><g
         id="freepik--Character--inject-124"><path
           d="m 379.3,450.05 -3.6,2.66 c 0,0 -6.26,2.54 -7.2,3.07 -0.94,0.53 -2.53,0.67 -2.13,1.87 0.4,1.2 3.07,1.2 6.27,1.46 3.2,0.26 4.13,0 7.6,-0.53 3.47,-0.53 6.13,0.4 7.46,-0.27 1.33,-0.67 1.47,0 1.74,-1.6 a 28.2,28.2 0 0 0 0.26,-3.73 z"
           style="fill:#ffffff;stroke:#263238;stroke-linecap:round;stroke-miterlimit:10"
           id="path4332" /><path
           d="m 387.7,458.31 c 1.34,-0.66 1.47,0 1.74,-1.6 0.08,-0.49 0.13,-1 0.17,-1.54 a 16.32,16.32 0 0 1 -5.37,1.41 c -2.54,0 -3.6,0.67 -9.47,1.07 a 36.14,36.14 0 0 1 -8.45,-0.47 1,1 0 0 0 0.05,0.47 c 0.4,1.2 3.07,1.2 6.27,1.46 3.2,0.26 4.13,0 7.6,-0.53 3.47,-0.53 6.13,0.42 7.46,-0.27 z"
           style="fill:#ffffff;stroke:#263238;stroke-linecap:round;stroke-miterlimit:10"
           id="path4334" /><path
           d="m 442.63,450.05 c 0,0 -0.8,1.86 -1.46,3.46 -0.66,1.6 -3.2,4.94 -3.6,5.87 -0.4,0.93 0.26,1.87 2.13,2 a 30.43,30.43 0 0 0 5.6,-0.27 c 0.53,-0.13 6.4,-7.06 6.67,-11.2 0.27,-4.14 -3.44,-4 -3.44,-4 z"
           style="fill:#ffffff;stroke:#263238;stroke-linecap:round;stroke-miterlimit:10"
           id="path4336" /><path
           d="m 452,449.91 a 5.13,5.13 0 0 0 -0.19,-1.8 c 0,0.18 -0.1,0.36 -0.14,0.56 -0.22,1.17 -3.27,6.94 -4.44,8.88 -1.17,1.94 -2.16,2.5 -4.61,2.72 a 17.43,17.43 0 0 1 -5.12,-0.53 c -0.11,0.8 0.61,1.52 2.23,1.64 a 30.43,30.43 0 0 0 5.6,-0.27 c 0.5,-0.11 6.37,-7.06 6.67,-11.2 z"
           style="fill:#ffffff;stroke:#263238;stroke-linecap:round;stroke-miterlimit:10"
           id="path4338" /><path
           d="m 397.57,368.45 -0.27,9.47 c 0,0 -16.66,36.93 -17.06,39.08 -0.4,2.15 2.26,32 2.26,32 h -4.13 l -0.13,1.6 11.46,3.2 c 0,0 2.14,-12.93 2.27,-13.73 0.13,-0.8 2.4,-23.6 2.4,-23.6 l 16.13,-21.73 c 0,0 8.13,25.86 8.53,26 0.4,0.14 22.8,27.46 22.8,27.46 l -0.66,1.2 c 0,0 -0.27,1.07 1.2,1.87 1.47,0.8 2.66,1.33 4.13,-0.14 1.47,-1.47 3,-3.47 3.14,-4.93 0.14,-1.46 -1.27,-3.73 -2.34,-5.73 -1.07,-2 -3.07,-5.2 -3.07,-5.2 l -12.4,-21.6 -1.83,-35.49 -0.54,-6.66 z"
           style="fill:#263238;stroke:#263238;stroke-linecap:round;stroke-miterlimit:10"
           id="path4340" /><path
           d="m 384,322.42 a 6.07,6.07 0 0 0 -2.58,2.95 c -0.74,2 0.86,5 0.86,5 0,0 4.42,11.91 6.62,15.34 2.2,3.43 6.51,6.75 10.32,6.26 3.81,-0.49 3.8,-3.43 3.8,-3.43 0,0 4.05,-6.51 0.86,-11.3 -3.19,-4.79 -16.59,-16.91 -19.88,-14.82 z"
           style="fill:#ffffff;stroke:#263238;stroke-linecap:round;stroke-miterlimit:10"
           id="path4342" /><path
           d="m 409.12,321.05 c 0,0 -6,16.07 -6.4,19.61 -0.4,3.54 -6.4,26.42 -6.67,27.51 -0.27,1.09 2.58,2.31 3.54,2.59 0.96,0.28 25.06,3.54 27.64,2.45 2.58,-1.09 3.27,-1 3.27,-2.18 0,-1.18 4.77,-41.13 2.45,-46.17 -2.32,-5.04 -4.84,-10.27 -6.23,-10.45 -1.39,-0.18 -17.6,6.64 -17.6,6.64 z"
           style="fill:#ffffff;stroke:#263238;stroke-linecap:round;stroke-miterlimit:10"
           id="path4344" /><path
           d="m 416.9,336.45 c 3.07,-1.06 12.93,-3.06 12.93,-3.06 0,0 -9.86,6.26 -14.93,8.93"
           style="fill:none;stroke:#263238;stroke-linecap:round;stroke-miterlimit:10"
           id="path4346" /><line
           x1="430.10001"
           y1="335.39001"
           x2="422.10001"
           y2="342.72"
           style="fill:none;stroke:#263238;stroke-linecap:round;stroke-miterlimit:10"
           id="line4348" /><path
           d="m 408.2,287 c 0,0 -3.22,4.35 -2.58,6.12 a 4.47,4.47 0 0 1 0.32,2.74 c 0,0 -4,4.67 -3.22,5.15 a 6.42,6.42 0 0 1 1.61,2.1 c 0,0 1,6.28 1.77,7.25 0.77,0.97 3.23,0.16 3.23,0.16 l 1.61,-0.16 1.12,7.89 12.24,-6.44 v -6 c 0,0 8.06,-8.06 7.9,-12.25 -0.16,-4.19 0.16,-8.05 -1.45,-9.5 -1.61,-1.45 -9,-4.51 -12.4,-5 -3.4,-0.49 -5.32,-1 -6.29,-0.32 -0.97,0.68 -2.57,1.77 -2.57,1.77 0,0 0,-3.87 -1.94,-2.26 -1.94,1.61 -1.61,7.49 0.65,8.75 z"
           style="fill:#ffffff;stroke:#263238;stroke-linecap:round;stroke-miterlimit:10"
           id="path4350" /><path
           d="m 430.75,284.13 c -1.61,-1.45 -9,-4.51 -12.4,-5 -3.4,-0.49 -5.32,-1 -6.29,-0.32 -0.97,0.68 -2.57,1.77 -2.57,1.77 0,0 0,-3.87 -1.94,-2.26 -1.94,1.61 -1.61,7.41 0.65,8.7 l 7.57,0.65 a 10.58,10.58 0 0 0 -1.13,3.38 c -0.16,1.61 2.74,2.9 2.74,2.9 0,0 -0.81,4.51 -0.81,5.31 0,0.8 1.78,1 2.1,0.32 0.32,-0.68 -0.49,-2.57 2.09,-3.22 2.58,-0.65 3.87,1.45 3.71,3.39 a 4.24,4.24 0 0 1 -2.26,3.54 l -1,0.48 a 8.11,8.11 0 0 1 3.06,2.1 c 0,0 8.06,-8.06 7.9,-12.25 -0.16,-4.19 0.19,-8.04 -1.42,-9.49 z"
           style="fill:#263238;stroke:#263238;stroke-linecap:round;stroke-miterlimit:10"
           id="path4352" /><path
           d="m 409.16,296.45 c 0,0.76 -0.28,1.37 -0.64,1.37 -0.36,0 -0.64,-0.61 -0.64,-1.37 0,-0.76 0.28,-1.37 0.64,-1.37 0.36,0 0.64,0.62 0.64,1.37 z"
           style="fill:#263238"
           id="path4354" /><polygon
           points="424.63,310.06 408.04,319.4 408.84,324.24 426.72,314.41 "
           style="fill:#ffffff;stroke:#263238;stroke-linecap:round;stroke-miterlimit:10"
           id="polygon4356" /><path
           d="m 467,403.17 v 0 a 12.14,12.14 0 0 1 -17.43,-1.54 l -90.44,-112.31 9.71,-8.46 99,104.83 A 12.15,12.15 0 0 1 467,403.17 Z"
           style="fill:#263238;stroke:#263238;stroke-linecap:round;stroke-miterlimit:10"
           id="path4358" /><path
           d="m 380.21,290.3 -12.62,11 a 4.07,4.07 0 0 1 -5.75,-0.39 v 0 a 4.09,4.09 0 0 1 0.39,-5.76 l 12.62,-11 a 4.07,4.07 0 0 1 5.75,0.39 v 0 a 4.07,4.07 0 0 1 -0.39,5.76 z"
           style="fill:#006642;stroke:#263238;stroke-linecap:round;stroke-miterlimit:10"
           id="path4360" /><path
           d="m 288.75,201.46 a 57.53,57.53 0 1 0 81.17,5.54 57.53,57.53 0 0 0 -81.17,-5.54 z m 70.66,81 a 50,50 0 1 1 4.81,-70.46 50,50 0 0 1 -4.81,70.46 z"
           style="fill:#006642;stroke:#263238;stroke-linecap:round;stroke-miterlimit:10"
           id="path4362" /><path
           d="m 418,327.17 c 0,0 3.82,-8.3 4.91,-9.26 1.09,-0.96 3,-0.81 4.76,-0.68 1.76,0.13 15.33,12.12 15.33,12.12 0,0 10.9,8.17 10.76,9.94 -0.14,1.77 -14,26.15 -14,26.15 L 434,361.9 437,342 420.52,332.74"
           style="fill:#ffffff;stroke:#263238;stroke-linecap:round;stroke-miterlimit:10"
           id="path4364" /><path
           d="m 434,361.9 -1.49,1.23 c 0,0 -2.18,-0.68 -3.27,-0.14 a 18.27,18.27 0 0 0 -2,1.23 c 0,0 -2.31,0 -2.72,0.54 -0.41,0.54 -0.82,1.23 0,1.77 0.82,0.54 5.31,-0.27 5.72,0 0.41,0.27 -0.54,1.64 -1.36,3.82 -0.82,2.18 -2,3.81 -1.36,4.49 0.64,0.68 1.77,1.09 2.31,0.55 l 0.55,-0.55 c 0,0 3,2.45 4.08,2.18 1.08,-0.27 3.54,-2.32 4.36,-5 a 31.2,31.2 0 0 0 0.95,-6.54 z"
           style="fill:#ffffff;stroke:#263238;stroke-linecap:round;stroke-miterlimit:10"
           id="path4366" /><path
           d="m 378.94,316.41 a 12.94,12.94 0 0 0 -0.7,-2.58 c -0.69,-2.16 -1.7,-2.89 -0.57,-3.34 1.13,-0.45 2.08,0.63 2.41,1.6 a 15.91,15.91 0 0 0 0.76,1.82 l -1.5,3.48 z"
           style="fill:#ffffff;stroke:#263238;stroke-linecap:round;stroke-miterlimit:10"
           id="path4368" /><path
           d="m 381.11,311 c 0,0 -2.77,6.5 -2.59,7.1 0.18,0.6 5.56,5.92 5.56,5.92 l -1,2.33 a 4.91,4.91 0 0 0 2.08,2.7 c 2.95,1.35 4.42,-1.84 4.42,-1.84 l -1.83,-2.64 c 0,0 1.89,-4.55 2,-5 0.11,-0.45 -6.1,-7.77 -6.1,-7.77 0,0 -0.48,-2.22 -2.54,-0.8 z"
           style="fill:#ffffff;stroke:#263238;stroke-linecap:round;stroke-miterlimit:10"
           id="path4370" /><line
           x1="383.72"
           y1="311.78"
           x2="380.17999"
           y2="319.98999"
           style="fill:none;stroke:#263238;stroke-linecap:round;stroke-miterlimit:10"
           id="line4372" /><line
           x1="385.63"
           y1="314.28"
           x2="382.62"
           y2="322.23001"
           style="fill:none;stroke:#263238;stroke-linecap:round;stroke-miterlimit:10"
           id="line4374" /><line
           x1="387.94"
           y1="317.34"
           x2="384.97"
           y2="323.32001"
           style="fill:none;stroke:#263238;stroke-linecap:round;stroke-miterlimit:10"
           id="line4376" /><line
           x1="384.07999"
           y1="324.01999"
           x2="387.44"
           y2="325.85001"
           style="fill:none;stroke:#263238;stroke-linecap:round;stroke-miterlimit:10"
           id="line4378" /></g></g></g></svg>
