<?xml version="1.0" encoding="UTF-8" standalone="no"?>
<!-- Created with Inkscape (http://www.inkscape.org/) -->

<svg
   width="2073mm"
   height="944mm"
   viewBox="0 0 2073 944"
   version="1.1"
   id="svg450"
   xml:space="preserve"
   inkscape:version="1.2.2 (732a01da63, 2022-12-09, custom)"
   sodipodi:docname="gst-analytics.svg"
   inkscape:export-filename="../c3625592/gst-invoicing.png"
   inkscape:export-xdpi="25.400002"
   inkscape:export-ydpi="25.400002"
   xmlns:inkscape="http://www.inkscape.org/namespaces/inkscape"
   xmlns:sodipodi="http://sodipodi.sourceforge.net/DTD/sodipodi-0.dtd"
   xmlns="http://www.w3.org/2000/svg"
   xmlns:svg="http://www.w3.org/2000/svg"><sodipodi:namedview
     id="namedview452"
     pagecolor="#ffffff"
     bordercolor="#000000"
     borderopacity="0.25"
     inkscape:showpageshadow="2"
     inkscape:pageopacity="0.0"
     inkscape:pagecheckerboard="0"
     inkscape:deskcolor="#d1d1d1"
     inkscape:document-units="px"
     showgrid="false"
     inkscape:lockguides="false"
     inkscape:zoom="0.12409585"
     inkscape:cx="4150.0179"
     inkscape:cy="1462.5791"
     inkscape:window-width="1846"
     inkscape:window-height="1016"
     inkscape:window-x="0"
     inkscape:window-y="0"
     inkscape:window-maximized="1"
     inkscape:current-layer="layer5" /><defs
     id="defs447" /><g
     inkscape:label="Layer 1"
     inkscape:groupmode="layer"
     id="layer1" /><g
     inkscape:groupmode="layer"
     id="layer5"
     inkscape:label="backgroud"><g
       id="g4890"
       transform="matrix(1.7244174,0,0,1.7244174,1175.8499,60.494664)"><g
         id="freepik--background-simple--inject-14"><path
           d="m 215.59,9.08 c 0,0 83.18,-10.58 149.41,49.67 66.23,60.25 85.49,155.34 103.14,232 17.65,76.66 -16.69,143.2 -81.57,162.79 C 321.69,473.13 292.73,417 212.1,397 131.47,377 107.1,383.79 49.8,323.24 -7.5,262.69 4,151.77 74.59,83.29 c 70.59,-68.48 141,-74.21 141,-74.21 z"
           style="fill:#006642"
           id="path1431" /><path
           d="m 215.59,9.08 c 0,0 83.18,-10.58 149.41,49.67 66.23,60.25 85.49,155.34 103.14,232 17.65,76.66 -16.69,143.2 -81.57,162.79 C 321.69,473.13 292.73,417 212.1,397 131.47,377 107.1,383.79 49.8,323.24 -7.5,262.69 4,151.77 74.59,83.29 c 70.59,-68.48 141,-74.21 141,-74.21 z"
           style="opacity:0.75;fill:#ffffff"
           id="path1433" /></g><g
         id="freepik--Wall--inject-14"><line
           x1="456.62"
           y1="342.75"
           x2="47.200001"
           y2="313.91"
           style="fill:none;stroke:#263238;stroke-miterlimit:10"
           id="line1436" /><line
           x1="68.209999"
           y1="315.14001"
           x2="68.209999"
           y2="269.07001"
           style="fill:none;stroke:#263238;stroke-miterlimit:10"
           id="line1438" /><line
           x1="106.91"
           y1="317.60001"
           x2="106.91"
           y2="272.76001"
           style="fill:none;stroke:#263238;stroke-miterlimit:10"
           id="line1440" /><line
           x1="151.75"
           y1="321.28"
           x2="151.75"
           y2="275.22"
           style="fill:none;stroke:#263238;stroke-miterlimit:10"
           id="line1442" /><line
           x1="201.50999"
           y1="324.97"
           x2="201.50999"
           y2="276.44"
           style="fill:none;stroke:#263238;stroke-miterlimit:10"
           id="line1444" /><line
           x1="253.10001"
           y1="328.04001"
           x2="253.10001"
           y2="276.44"
           style="fill:none;stroke:#263238;stroke-miterlimit:10"
           id="line1446" /><line
           x1="304.70001"
           y1="330.5"
           x2="304.70001"
           y2="281.35999"
           style="fill:none;stroke:#263238;stroke-miterlimit:10"
           id="line1448" /><line
           x1="359.69"
           y1="337.53"
           x2="359.69"
           y2="284.42999"
           style="fill:none;stroke:#263238;stroke-miterlimit:10"
           id="line1450" /><line
           x1="422.01999"
           y1="339.70999"
           x2="422.01999"
           y2="288.73001"
           style="fill:none;stroke:#263238;stroke-miterlimit:10"
           id="line1452" /><line
           x1="456.62"
           y1="349.92999"
           x2="45.880001"
           y2="319.45001"
           style="fill:none;stroke:#263238;stroke-miterlimit:10"
           id="line1454" /><line
           x1="443.73001"
           y1="470.57001"
           x2="456"
           y2="472"
           style="fill:none;stroke:#263238;stroke-miterlimit:10"
           id="line1456" /><line
           x1="44"
           y1="424"
           x2="430.01001"
           y2="468.97"
           style="fill:none;stroke:#263238;stroke-miterlimit:10"
           id="line1458" /></g><polygon
         points="58.62,43.32 459,26.15 459,278.69 58.62,261.52 "
         style="fill:#263238"
         id="polygon1461" /><polygon
         points="66.04,52.98 449.12,38.04 449.12,266.8 66.04,251.87 "
         style="fill:none;stroke:#006642;stroke-miterlimit:10"
         id="polygon1463" /><path
         d="m 190.47,75.53 -106,3 a 4.7,4.7 0 0 1 -4.55,-5 v 0 c 0,-2.83 2,-5.19 4.55,-5.27 l 106,-3.47 a 5,5 0 0 1 4.95,5.21 v 0 a 5.35,5.35 0 0 1 -4.95,5.53 z"
         style="fill:#808080"
         id="path1465" /><path
         d="m 126.81,72.15 a 4.78,4.78 0 0 0 -4.7,-5.06 l -37.63,1.23 c -2.51,0.08 -4.55,2.44 -4.55,5.27 a 4.7,4.7 0 0 0 4.55,5 l 37.63,-1.09 a 5.14,5.14 0 0 0 4.7,-5.35 z"
         style="fill:#006642"
         id="path1467" /><path
         d="m 190.47,96.4 -106,2.21 c -2.51,0.06 -4.55,-2.19 -4.55,-5 v 0 a 5,5 0 0 1 4.55,-5.23 l 106,-2.64 a 5,5 0 0 1 4.95,5.22 v 0 a 5.3,5.3 0 0 1 -4.95,5.44 z"
         style="fill:#808080"
         id="path1469" /><path
         d="m 153.32,91.91 v 0 a 4.89,4.89 0 0 0 -4.79,-5.15 l -64,1.6 a 5,5 0 0 0 -4.55,5.23 v 0 c 0,2.83 2,5.08 4.55,5 l 64.05,-1.34 a 5.16,5.16 0 0 0 4.74,-5.34 z"
         style="fill:#006642"
         id="path1471" /><path
         d="m 190.47,117.26 -106,1.39 a 4.78,4.78 0 0 1 -4.55,-5.06 v 0 a 5,5 0 0 1 4.55,-5.19 l 106,-1.82 a 5.06,5.06 0 0 1 4.95,5.27 v 0 a 5.24,5.24 0 0 1 -4.95,5.41 z"
         style="fill:#808080"
         id="path1473" /><path
         d="m 172,112.2 a 5,5 0 0 0 -4.86,-5.22 l -82.66,1.42 a 5,5 0 0 0 -4.55,5.19 4.78,4.78 0 0 0 4.55,5.06 l 82.66,-1.08 A 5.19,5.19 0 0 0 172,112.2 Z"
         style="fill:#006642"
         id="path1475" /><path
         d="m 190.47,138.13 -106,0.56 a 4.82,4.82 0 0 1 -4.55,-5.09 v 0 a 4.91,4.91 0 0 1 4.55,-5.16 l 106,-1 a 5.1,5.1 0 0 1 4.95,5.3 v 0 a 5.2,5.2 0 0 1 -4.95,5.39 z"
         style="fill:#006642"
         id="path1477" /><path
         d="m 217.1,74.76 -14.52,0.42 a 5,5 0 0 1 -5,-5.21 v 0 a 5.39,5.39 0 0 1 5,-5.52 L 217.1,64 a 5,5 0 0 1 5.05,5.24 v 0 a 5.42,5.42 0 0 1 -5.05,5.52 z"
         style="fill:#006642"
         id="path1479" /><path
         d="m 217.1,95.84 -14.52,0.3 a 5,5 0 0 1 -5,-5.25 v 0 a 5.34,5.34 0 0 1 5,-5.48 l 14.52,-0.36 a 5.08,5.08 0 0 1 5.05,5.28 v 0 a 5.37,5.37 0 0 1 -5.05,5.51 z"
         style="fill:#006642"
         id="path1481" /><path
         d="m 217.1,116.91 -14.52,0.19 a 5.09,5.09 0 0 1 -5,-5.29 v 0 a 5.29,5.29 0 0 1 5,-5.44 l 14.52,-0.25 a 5.14,5.14 0 0 1 5.05,5.32 v 0 a 5.31,5.31 0 0 1 -5.05,5.47 z"
         style="fill:#006642"
         id="path1483" /><path
         d="m 217.1,138 -14.52,0.07 a 5.14,5.14 0 0 1 -5,-5.33 v 0 a 5.24,5.24 0 0 1 5,-5.4 l 14.52,-0.13 a 5.17,5.17 0 0 1 5.05,5.35 v 0 A 5.28,5.28 0 0 1 217.1,138 Z"
         style="fill:#006642"
         id="path1485" /><line
         x1="85.309998"
         y1="62.939999"
         x2="102.37"
         y2="62.349998"
         style="fill:none;stroke:#ffffff;stroke-miterlimit:10"
         id="line1487" /><line
         x1="85.309998"
         y1="83.959999"
         x2="102.37"
         y2="83.510002"
         style="fill:none;stroke:#ffffff;stroke-miterlimit:10"
         id="line1489" /><line
         x1="85.309998"
         y1="103.91"
         x2="102.37"
         y2="103.59"
         style="fill:none;stroke:#ffffff;stroke-miterlimit:10"
         id="line1491" /><line
         x1="85.309998"
         y1="124.93"
         x2="102.37"
         y2="124.75"
         style="fill:none;stroke:#ffffff;stroke-miterlimit:10"
         id="line1493" /><line
         x1="400.89999"
         y1="63.509998"
         x2="415.20001"
         y2="63.07"
         style="fill:none;stroke:#ffffff;stroke-miterlimit:10"
         id="line1495" /><line
         x1="392.59"
         y1="75.830002"
         x2="415.20001"
         y2="75.230003"
         style="fill:none;stroke:#ffffff;stroke-miterlimit:10"
         id="line1497" /><line
         x1="400.89999"
         y1="87.699997"
         x2="415.20001"
         y2="87.379997"
         style="fill:none;stroke:#ffffff;stroke-miterlimit:10"
         id="line1499" /><line
         x1="406.81"
         y1="99.690002"
         x2="415.20001"
         y2="99.540001"
         style="fill:none;stroke:#ffffff;stroke-miterlimit:10"
         id="line1501" /><line
         x1="400.89999"
         y1="111.9"
         x2="415.20001"
         y2="111.7"
         style="fill:none;stroke:#ffffff;stroke-miterlimit:10"
         id="line1503" /><line
         x1="397.07999"
         y1="124.03"
         x2="415.20001"
         y2="123.85"
         style="fill:none;stroke:#ffffff;stroke-miterlimit:10"
         id="line1505" /><line
         x1="400.89999"
         y1="136.09"
         x2="415.20001"
         y2="136.00999"
         style="fill:none;stroke:#ffffff;stroke-miterlimit:10"
         id="line1507" /><line
         x1="393.97"
         y1="148.2"
         x2="415.20001"
         y2="148.17"
         style="fill:none;stroke:#ffffff;stroke-miterlimit:10"
         id="line1509" /><line
         x1="400.89999"
         y1="160.28"
         x2="415.20001"
         y2="160.32001"
         style="fill:none;stroke:#ffffff;stroke-miterlimit:10"
         id="line1511" /><path
         d="m 419,63 4.34,-0.13"
         style="fill:none;stroke:#ffffff;stroke-miterlimit:10"
         id="path1513" /><path
         d="m 419,75.13 4.34,-0.12"
         style="fill:none;stroke:#ffffff;stroke-miterlimit:10"
         id="path1515" /><path
         d="m 419,87.3 4.34,-0.1"
         style="fill:none;stroke:#ffffff;stroke-miterlimit:10"
         id="path1517" /><path
         d="m 419.07,99.47 4.22,-0.08"
         style="fill:none;stroke:#ffffff;stroke-miterlimit:10"
         id="path1519" /><path
         d="m 419,111.64 4.34,-0.06"
         style="fill:none;stroke:#ffffff;stroke-miterlimit:10"
         id="path1521" /><path
         d="m 419,123.82 h 4.25"
         style="fill:none;stroke:#ffffff;stroke-miterlimit:10"
         id="path1523" /><path
         d="m 419,136 h 4.34"
         style="fill:none;stroke:#ffffff;stroke-miterlimit:10"
         id="path1525" /><path
         d="m 418.92,148.16 h 4.37"
         style="fill:none;stroke:#ffffff;stroke-miterlimit:10"
         id="path1527" /><path
         d="m 419,160.33 h 4.34"
         style="fill:none;stroke:#ffffff;stroke-miterlimit:10"
         id="path1529" /><path
         d="m 427.53,62.69 7.43,-0.23"
         style="fill:none;stroke:#ffffff;stroke-miterlimit:10"
         id="path1531" /><path
         d="m 427.53,74.9 7.43,-0.2"
         style="fill:none;stroke:#ffffff;stroke-miterlimit:10"
         id="path1533" /><path
         d="m 427.53,87.11 7.43,-0.17"
         style="fill:none;stroke:#ffffff;stroke-miterlimit:10"
         id="path1535" /><path
         d="m 427.72,99.31 7.24,-0.13"
         style="fill:none;stroke:#ffffff;stroke-miterlimit:10"
         id="path1537" /><path
         d="m 427.53,111.52 7.43,-0.1"
         style="fill:none;stroke:#ffffff;stroke-miterlimit:10"
         id="path1539" /><path
         d="m 427.69,123.73 7.27,-0.07"
         style="fill:none;stroke:#ffffff;stroke-miterlimit:10"
         id="path1541" /><path
         d="m 427.53,135.94 h 7.43"
         style="fill:none;stroke:#ffffff;stroke-miterlimit:10"
         id="path1543" /><path
         d="M 427.47,148.15 H 435"
         style="fill:none;stroke:#ffffff;stroke-miterlimit:10"
         id="path1545" /><path
         d="m 427.53,160.36 h 7.43"
         style="fill:none;stroke:#ffffff;stroke-miterlimit:10"
         id="path1547" /><line
         x1="237.09"
         y1="150.58"
         x2="382.51001"
         y2="150.48"
         style="fill:none;stroke:#999999;stroke-miterlimit:10"
         id="line1549" /><line
         x1="237.09"
         y1="141.33"
         x2="382.51001"
         y2="140.73"
         style="fill:none;stroke:#999999;stroke-miterlimit:10"
         id="line1551" /><line
         x1="237.09"
         y1="132.07001"
         x2="382.51001"
         y2="130.98"
         style="fill:none;stroke:#999999;stroke-miterlimit:10"
         id="line1553" /><path
         d="m 383,169.71 v -44 c 0,0 -3.41,-4.33 -17.48,-3.53 -13.92,0.8 -17.26,13.1 -32,20.26 -14.74,7.16 -21.52,-4.39 -33.52,-4.33 -12,0.06 -17.85,13.34 -26.46,18.37 -8.61,5.03 -16.18,-0.65 -26.41,0.58 a 14.54,14.54 0 0 0 -12.36,10.52 l -0.14,1.24 z"
         style="fill:#006642"
         id="path1555" /><path
         d="m 383,169.71 v -24.16 c -4.81,-0.26 -14.79,0.54 -25.39,9.37 -10.6,8.83 -29.51,4.17 -35.07,2.14 -8.85,-3.24 -19,-3.4 -29.09,3 -10.09,6.4 -18.29,5.78 -27.64,5.73 -6.61,0 -14.28,2 -18.15,3.11 z"
         style="fill:#808080"
         id="path1557" /><path
         d="m 271.77,238.26 -25.87,-0.81 a 4.68,4.68 0 0 1 -4.38,-4.77 v 0 a 4.36,4.36 0 0 1 4.38,-4.51 l 25.87,0.71 a 4.75,4.75 0 0 1 4.48,4.82 v 0 a 4.44,4.44 0 0 1 -4.48,4.56 z"
         style="fill:#808080"
         id="path1559" /><path
         d="m 324,239.88 -26.86,-0.83 a 4.82,4.82 0 0 1 -4.54,-4.87 v 0 a 4.48,4.48 0 0 1 4.54,-4.59 l 26.86,0.74 a 4.88,4.88 0 0 1 4.65,4.91 v 0 a 4.55,4.55 0 0 1 -4.65,4.64 z"
         style="fill:#808080"
         id="path1561" /><path
         d="m 377.1,241.54 -27.88,-0.87 a 4.94,4.94 0 0 1 -4.71,-5 v 0 a 4.6,4.6 0 0 1 4.71,-4.68 l 27.88,0.77 a 5,5 0 0 1 4.82,5 v 0 a 4.68,4.68 0 0 1 -4.82,4.78 z"
         style="fill:#808080"
         id="path1563" /><line
         x1="79.75"
         y1="213.16"
         x2="223.17"
         y2="216.55"
         style="fill:none;stroke:#999999;stroke-miterlimit:10"
         id="line1565" /><line
         x1="79.75"
         y1="205.55"
         x2="223.17"
         y2="208.52"
         style="fill:none;stroke:#999999;stroke-miterlimit:10"
         id="line1567" /><line
         x1="79.75"
         y1="197.94"
         x2="223.17"
         y2="200.48"
         style="fill:none;stroke:#999999;stroke-miterlimit:10"
         id="line1569" /><line
         x1="79.75"
         y1="190.32001"
         x2="223.17"
         y2="192.44"
         style="fill:none;stroke:#999999;stroke-miterlimit:10"
         id="line1571" /><line
         x1="79.75"
         y1="182.71001"
         x2="223.17"
         y2="184.41"
         style="fill:none;stroke:#999999;stroke-miterlimit:10"
         id="line1573" /><line
         x1="79.75"
         y1="175.10001"
         x2="223.17"
         y2="176.37"
         style="fill:none;stroke:#999999;stroke-miterlimit:10"
         id="line1575" /><line
         x1="79.75"
         y1="167.49001"
         x2="223.17"
         y2="168.33"
         style="fill:none;stroke:#999999;stroke-miterlimit:10"
         id="line1577" /><line
         x1="79.75"
         y1="159.88"
         x2="223.17"
         y2="160.3"
         style="fill:none;stroke:#999999;stroke-miterlimit:10"
         id="line1579" /><polygon
         points="83.31,191.25 97.05,191.46 97.05,221.8 83.31,221.43 "
         style="fill:#808080"
         id="polygon1581" /><polygon
         points="102.59,183.02 116.54,183.19 116.54,222.32 102.59,221.95 "
         style="fill:#006642"
         id="polygon1583" /><polygon
         points="122.17,176.57 136.33,176.71 136.33,222.85 122.17,222.47 "
         style="fill:#808080"
         id="polygon1585" /><polygon
         points="142.04,157.53 156.42,157.56 156.42,223.39 142.04,223.01 "
         style="fill:#006642"
         id="polygon1587" /><polygon
         points="162.22,176.94 176.82,177.08 176.82,223.94 162.22,223.55 "
         style="fill:#808080"
         id="polygon1589" /><polygon
         points="182.71,191.78 197.54,192 197.54,224.5 182.71,224.1 "
         style="fill:#006642"
         id="polygon1591" /><polygon
         points="203.52,204.88 218.59,205.17 218.59,225.06 203.52,224.66 "
         style="fill:#808080"
         id="polygon1593" /><line
         x1="83.959999"
         y1="229.05"
         x2="95.139999"
         y2="229.38"
         style="fill:none;stroke:#ffffff;stroke-linecap:round;stroke-linejoin:round"
         id="line1595" /><line
         x1="103.38"
         y1="229.63"
         x2="114.73"
         y2="229.97"
         style="fill:none;stroke:#ffffff;stroke-linecap:round;stroke-linejoin:round"
         id="line1597" /><line
         x1="123.09"
         y1="230.22"
         x2="134.62"
         y2="230.56"
         style="fill:none;stroke:#ffffff;stroke-linecap:round;stroke-linejoin:round"
         id="line1599" /><line
         x1="143.11"
         y1="230.81"
         x2="154.81"
         y2="231.16"
         style="fill:none;stroke:#ffffff;stroke-linecap:round;stroke-linejoin:round"
         id="line1601" /><line
         x1="163.44"
         y1="231.42"
         x2="175.32001"
         y2="231.77"
         style="fill:none;stroke:#ffffff;stroke-linecap:round;stroke-linejoin:round"
         id="line1603" /><line
         x1="184.08"
         y1="232.03999"
         x2="196.14999"
         y2="232.39999"
         style="fill:none;stroke:#ffffff;stroke-linecap:round;stroke-linejoin:round"
         id="line1605" /><line
         x1="205.05"
         y1="232.66"
         x2="217.31"
         y2="233.03"
         style="fill:none;stroke:#ffffff;stroke-linecap:round;stroke-linejoin:round"
         id="line1607" /><polygon
         points="413.88,174.02 413.88,181.24 394.37,181.05 394.37,173.87 "
         style="fill:#006642"
         id="polygon1609" /><polygon
         points="419.39,184.19 419.39,191.43 394.37,191.09 394.37,183.92 "
         style="fill:#808080"
         id="polygon1611" /><polygon
         points="423.7,194.38 423.7,201.63 394.37,201.13 394.37,193.96 "
         style="fill:#006642"
         id="polygon1613" /><polygon
         points="436.07,204.75 436.07,212.03 394.37,211.18 394.37,204 "
         style="fill:#808080"
         id="polygon1615" /><polygon
         points="423.7,214.67 423.7,221.92 394.37,221.22 394.37,214.05 "
         style="fill:#006642"
         id="polygon1617" /><polygon
         points="414.49,224.59 414.49,231.81 394.37,231.26 394.37,224.09 "
         style="fill:#808080"
         id="polygon1619" /><polygon
         points="406.55,234.48 406.55,241.68 394.37,241.31 394.37,234.13 "
         style="fill:#006642"
         id="polygon1621" /><path
         d="m 279.24,199.15 c 0,12.2 -9.42,21.85 -20.95,21.56 -11.53,-0.29 -20.63,-10.25 -20.63,-22.26 0,-12.01 9.2,-21.67 20.63,-21.57 11.43,0.1 20.95,10.12 20.95,22.27 z"
         style="fill:#808080"
         id="path1623" /><path
         d="m 259.28,176.94 c -0.33,0 -0.65,-0.06 -1,-0.06 -11.43,-0.1 -20.63,9.56 -20.63,21.57 0,12.01 9.2,22 20.63,22.26 0.34,0 0.66,0 1,0 z"
         style="fill:#006642"
         id="path1625" /><path
         d="m 272.72,199 c 0,8.4 -6.48,15.07 -14.43,14.89 -7.95,-0.18 -14.29,-7.02 -14.29,-15.33 0,-8.31 6.38,-15 14.28,-14.89 7.9,0.11 14.44,6.97 14.44,15.33 z"
         style="fill:#263238"
         id="path1627" /><path
         d="m 331,200 c 0,12.42 -9.77,22.25 -21.73,21.95 -11.96,-0.3 -21.41,-10.45 -21.41,-22.68 0,-12.23 9.54,-22.07 21.41,-22 C 321.14,177.34 331,187.6 331,200 Z"
         style="fill:#006642"
         id="path1629" /><path
         d="m 324.19,199.91 a 14.85,14.85 0 0 1 -15,15.16 c -8.21,-0.18 -14.82,-7.19 -14.82,-15.66 a 14.85,14.85 0 0 1 14.82,-15.16 c 8.27,0.09 15,7.1 15,15.66 z"
         style="fill:#263238"
         id="path1631" /><path
         d="m 384.63,200.93 a 22.11,22.11 0 0 1 -22.57,22.37 23.06,23.06 0 0 1 -22.22,-23.12 22.13,22.13 0 0 1 22.22,-22.37 23,23 0 0 1 22.57,23.12 z"
         style="fill:#808080"
         id="path1633" /><path
         d="m 363.13,177.87 c -0.36,0 -0.71,-0.06 -1.07,-0.06 a 22.13,22.13 0 0 0 -22.22,22.37 23.06,23.06 0 0 0 22.22,23.12 c 0.36,0 0.71,0 1.07,0 z"
         style="fill:#006642"
         id="path1635" /><path
         d="m 377.61,200.81 a 15.27,15.27 0 0 1 -15.55,15.45 15.92,15.92 0 0 1 -15.38,-16 15.28,15.28 0 0 1 15.38,-15.44 15.89,15.89 0 0 1 15.55,15.99 z"
         style="fill:#263238"
         id="path1637" /><line
         x1="253.85001"
         y1="199.82001"
         x2="263.35001"
         y2="199.99001"
         style="fill:none;stroke:#ffffff;stroke-miterlimit:10"
         id="line1639" /><line
         x1="304.81"
         y1="200.7"
         x2="314.67001"
         y2="200.87"
         style="fill:none;stroke:#ffffff;stroke-miterlimit:10"
         id="line1641" /><line
         x1="356.73999"
         y1="201.60001"
         x2="366.97"
         y2="201.78"
         style="fill:none;stroke:#ffffff;stroke-miterlimit:10"
         id="line1643" /><g
         id="freepik--Plant--inject-14"><ellipse
           cx="340.10001"
           cy="470.73001"
           rx="26.549999"
           ry="8.2399998"
           style="fill:#006642"
           id="ellipse1882" /><ellipse
           cx="340.10001"
           cy="470.73001"
           rx="26.549999"
           ry="8.2399998"
           style="opacity:0.5;fill:#ffffff"
           id="ellipse1884" /><path
           d="M 318.72,427.07 A 34.22,34.22 0 0 0 313.91,445 c 0,15.27 9,27.66 20.07,27.66 11.07,0 20.07,-12.39 20.07,-27.66 a 34.31,34.31 0 0 0 -4.8,-17.95 z"
           style="fill:#ffffff;stroke:#263238;stroke-linecap:round;stroke-linejoin:round"
           id="path1886" /><path
           d="m 349.52,427.77 c 0.14,2.47 -6.67,4.5 -15.21,4.53 -8.54,0.03 -15.57,-1.95 -15.71,-4.42 -0.14,-2.47 6.66,-4.49 15.2,-4.52 8.54,-0.03 15.58,1.94 15.72,4.41 z"
           style="fill:#ffffff;stroke:#263238;stroke-linecap:round;stroke-linejoin:round"
           id="path1888" /><path
           d="m 348.29,429.59 c -2.56,-1.51 -7.94,-2.55 -14.13,-2.52 -6.19,0.03 -11.66,1.13 -14,2.71 2.56,1.51 7.95,2.54 14.13,2.52 6.18,-0.02 11.71,-1.14 14,-2.71 z"
           style="fill:#263238;stroke:#263238;stroke-linecap:round;stroke-linejoin:round"
           id="path1890" /><path
           d="m 296.74,296 c 0,0 1.86,3.53 0.2,6.84 -1.66,3.31 -3.72,6.63 -2.48,8.29 1.24,1.66 5,3.73 4.56,7.25 -0.44,3.52 -5.39,10.57 -2.28,14.51 3.11,3.94 8.29,3.73 8.49,8.08 0.2,4.35 -5,7.87 -3.52,11.81 1.48,3.94 10,4.77 10,7.46 0,2.69 -3.32,5.59 -0.62,8.5 2.7,2.91 15.72,10.46 17.59,7.36 1.87,-3.1 5.61,-11.72 3.15,-23.92 -0.42,-2.05 -3.34,-2.51 -3.75,-5.41 -0.41,-2.9 0.83,-8.08 -1.25,-11 -2.08,-2.92 -8.7,-3.94 -9.11,-6.22 -0.41,-2.28 2.48,-7.87 -0.42,-11.4 -2.9,-3.53 -9.74,-5.18 -9.74,-7.45 0,-2.27 2.08,-5.19 -0.83,-8.29 -2.91,-3.1 -9.99,-6.41 -9.99,-6.41 z"
           style="fill:#006642"
           id="path1892" /><path
           d="m 306.66,320.43 c 4.32,13 11.87,30.67 14.94,39.2 3.73,10.36 7,17.86 8.63,28.22 0.77,4.82 1.38,22.39 1.81,39.82"
           style="fill:none;stroke:#263238;stroke-linecap:round;stroke-linejoin:round"
           id="path1894" /><path
           d="m 297.77,297.26 c 0,0 3.53,2.9 6.63,15.54 0.21,0.81 0.44,1.67 0.69,2.57"
           style="fill:none;stroke:#263238;stroke-linecap:round;stroke-linejoin:round"
           id="path1896" /><path
           d="m 361.51,319.62 a 6.55,6.55 0 0 0 -0.17,5.47 c 1.33,2.66 3,5.31 2,6.64 -1,1.33 -4,3 -3.64,5.8 0.36,2.8 4.31,8.46 1.82,11.61 -2.49,3.15 -6.63,3 -6.8,6.47 -0.17,3.47 4,6.3 2.82,9.45 -1.18,3.15 -8,3.81 -8,6 0,2.19 2.65,4.48 0.5,6.8 -2.15,2.32 -12.59,8.38 -14.08,5.89 -1.49,-2.49 -4.49,-9.37 -2.52,-19.14 0.33,-1.64 2.67,-2 3,-4.33 0.33,-2.33 -0.66,-6.47 1,-8.79 1.66,-2.32 7,-3.15 7.29,-5 0.29,-1.85 -2,-6.31 0.33,-9.12 2.33,-2.81 7.8,-4.15 7.8,-6 0,-1.85 -1.66,-4.15 0.66,-6.64 2.32,-2.49 7.99,-5.11 7.99,-5.11 z"
           style="fill:#006642"
           id="path1898" /><path
           d="m 353.57,339.16 c -3.45,10.43 -9.5,24.55 -12,31.37 -3,8.29 -5.58,14.3 -6.91,22.59 -0.66,4.14 -1.17,20.1 -1.52,35"
           style="fill:none;stroke:#263238;stroke-linecap:round;stroke-linejoin:round"
           id="path1900" /><path
           d="m 360.68,320.62 c 0,0 -2.82,2.32 -5.3,12.43 -0.17,0.66 -0.35,1.34 -0.56,2.07"
           style="fill:none;stroke:#263238;stroke-linecap:round;stroke-linejoin:round"
           id="path1902" /><path
           d="m 304.49,366.58 a 5.46,5.46 0 0 1 0.13,4.57 c -1.1,2.22 -2.49,4.43 -1.66,5.54 0.83,1.11 3.33,2.49 3.05,4.85 -0.28,2.36 -3.6,7.07 -1.52,9.7 2.08,2.63 5.54,2.49 5.68,5.4 0.14,2.91 -3.33,5.27 -2.36,7.9 0.97,2.63 6.65,3.19 6.65,5 0,1.81 -2.22,3.74 -0.41,5.68 1.81,1.94 10.51,7 11.76,4.92 1.25,-2.08 3.75,-7.83 2.1,-16 -0.27,-1.37 -2.23,-1.68 -2.5,-3.62 -0.27,-1.94 0.55,-5.4 -0.83,-7.34 -1.38,-1.94 -5.82,-2.63 -6.1,-4.16 -0.28,-1.53 1.66,-5.26 -0.28,-7.62 -1.94,-2.36 -6.51,-3.46 -6.51,-5 0,-1.54 1.39,-3.46 -0.55,-5.54 -1.94,-2.08 -6.65,-4.28 -6.65,-4.28 z"
           style="fill:#006642"
           id="path1904" /><path
           d="m 311.12,382.9 c 2.89,8.71 7.94,20.51 10,26.21 2.5,6.93 4.66,11.94 5.77,18.87"
           style="fill:none;stroke:#263238;stroke-linecap:round;stroke-linejoin:round"
           id="path1906" /><path
           d="m 305.18,367.41 c 0,0 2.35,1.94 4.43,10.39 0.14,0.54 0.29,1.12 0.46,1.72"
           style="fill:none;stroke:#263238;stroke-linecap:round;stroke-linejoin:round"
           id="path1908" /><path
           d="m 375.85,363.13 a 5.44,5.44 0 0 0 -1.18,4.41 c 0.57,2.42 1.41,4.89 0.35,5.78 -1.06,0.89 -3.81,1.67 -4.08,4 -0.27,2.33 1.89,7.71 -0.73,9.79 -2.62,2.08 -6,1.16 -6.77,4 -0.77,2.84 2,5.89 0.49,8.23 -1.51,2.34 -7.21,1.58 -7.62,3.33 -0.41,1.75 1.3,4.15 -0.89,5.63 -2.19,1.48 -11.84,4.41 -12.58,2.1 -0.74,-2.31 -1.86,-8.48 1.61,-16.05 0.59,-1.27 2.55,-1.12 3.27,-2.95 0.72,-1.83 0.7,-5.38 2.49,-7 1.79,-1.62 6.27,-1.23 6.88,-2.65 0.61,-1.42 -0.41,-5.5 2,-7.35 2.41,-1.85 7.13,-1.88 7.48,-3.37 0.35,-1.49 -0.56,-3.69 1.81,-5.27 2.37,-1.58 7.47,-2.63 7.47,-2.63 z"
           style="fill:#006642"
           id="path1910" /><path
           d="m 365.66,377.5 c -4.8,7.82 -12.42,18.15 -15.73,23.23 -4,6.17 -8.82,10.12 -9.93,17 -0.34,2.12 -0.63,6 -0.88,10.38"
           style="fill:none;stroke:#263238;stroke-linecap:round;stroke-linejoin:round"
           id="path1912" /><path
           d="m 375,363.78 c 0,0 -2.74,1.35 -6.7,9.1 -0.25,0.5 -0.53,1 -0.84,1.57"
           style="fill:none;stroke:#263238;stroke-linecap:round;stroke-linejoin:round"
           id="path1914" /></g><g
         id="freepik--character-2--inject-14"><ellipse
           cx="165.71001"
           cy="478.73001"
           rx="41.290001"
           ry="12.27"
           style="fill:#006642"
           id="ellipse1917" /><ellipse
           cx="165.71001"
           cy="478.73001"
           rx="41.290001"
           ry="12.27"
           style="opacity:0.5;fill:#ffffff"
           id="ellipse1919" /><path
           d="m 121.91,331.62 c 0,0 1.71,15.12 2.44,22.93 0.73,7.81 2.68,30 2.44,32.69 -0.24,2.69 -2.68,30.57 -2.68,41.3 0,10.73 1.46,25.86 1.46,25.86 0,0 -2.44,4.14 -1.95,6.34 a 33.45,33.45 0 0 1 1,5.61 13.31,13.31 0 0 0 0.49,2.93 c 0,0 3.66,2.44 5.86,2.68 2.2,0.24 6.58,-1.22 6.58,-1.95 0,-0.73 1.95,-8.05 1.95,-10.74 0,-2.69 0,-1.7 0.74,-5.36 0.74,-3.66 8.53,-54.23 9.51,-58.87 0.98,-4.64 2.44,-39.51 2.44,-39.51 l 1.71,3.17 c 0,0 4.14,37.32 3.9,41.47 -0.24,4.15 -1.71,20 -1,27.32 0.71,7.32 2.2,25.37 2.2,27.32 0,1.95 -0.49,6.34 -0.49,8.05 0,1.71 -1.46,4.39 -0.73,5.61 a 21.31,21.31 0 0 1 1.46,3.66 c 0,0 8.79,1.46 11.22,1.46 2.43,0 4.4,-2.19 4.4,-2.19 v -4.15 c 0,-2.2 0.48,-4.15 0.48,-6.34 0,-2.19 0.25,-6.83 0.25,-10.25 a 88.79,88.79 0 0 1 1,-9.76 c 0.25,-2.19 3.66,-27.8 4.15,-37.32 0.49,-9.52 2.68,-31 2.68,-34.39 0,-3.39 -0.24,-35.37 -0.24,-35.37 l -0.49,-5.86 c 0,0 -25.61,3.42 -37.81,1.71 -12.2,-1.71 -22.2,-2.2 -22.2,-2.2 z"
           style="fill:#263238;stroke:#263238;stroke-linecap:round;stroke-linejoin:round"
           id="path1921" /><path
           d="m 138.48,466.13 a 5.13,5.13 0 0 1 -2,1.08 c -1.34,0.4 -2.15,0.67 -3.22,-0.81 -1.07,-1.48 -3.23,-3.22 -5,-2.42 -1.77,0.8 -3.76,2 -4.16,3 -0.4,1 -0.14,10.75 -0.14,12.64 0,1.89 3.63,2.68 7.26,2.82 a 11.52,11.52 0 0 0 6.45,-1.88 c 0,0 3.09,0.26 4.17,-1.08 1.08,-1.34 0.54,-4.44 -0.14,-5.51 -0.68,-1.07 -1.2,-2 -2.15,-3.9 a 11.48,11.48 0 0 1 -1.07,-3.94 z"
           style="fill:#ffffff;stroke:#263238;stroke-linecap:round;stroke-linejoin:round"
           id="path1923" /><path
           d="m 141.84,479.44 a 3.29,3.29 0 0 0 0.59,-1.75 c -1.77,0.81 -3.86,0.3 -4.62,0.41 -0.94,0.13 -3.09,1.61 -7.93,1.34 a 16.23,16.23 0 0 1 -5.94,-1.35 c 0,0.66 0,1.18 0,1.49 0,1.88 3.63,2.68 7.26,2.82 a 11.52,11.52 0 0 0 6.45,-1.88 c 0,0 3.11,0.26 4.19,-1.08 z"
           style="fill:#006642;stroke:#263238;stroke-linecap:round;stroke-linejoin:round"
           id="path1925" /><line
           x1="137.13"
           y1="480.51999"
           x2="137.67"
           y2="474.06"
           style="fill:none;stroke:#263238;stroke-linecap:round;stroke-linejoin:round"
           id="line1927" /><path
           d="m 134.35,467.4 a 2.76,2.76 0 0 1 -1.11,-1 c -1.08,-1.48 -3.23,-3.22 -5,-2.42 a 13,13 0 0 0 -3.83,2.48 c 0.58,1.66 2,4.59 4.77,4.78 2.3,0.16 4.06,-1.83 5.17,-3.84 z"
           style="fill:#006642;stroke:#263238;stroke-linecap:round;stroke-linejoin:round"
           id="path1929" /><path
           d="m 175,469.2 c 0,0 -2,0.54 -3.09,-0.13 -1.09,-0.67 -2.69,-4.7 -6.32,-4.3 -3.63,0.4 -5.24,3.76 -6,4.17 -0.76,0.41 -0.94,0.53 -1.21,0.94 -0.27,0.41 -0.4,11.29 -0.27,12.37 0.13,1.08 7.8,2.14 12.51,1.61 4.71,-0.53 6.31,-2.56 6.72,-2.83 a 3.83,3.83 0 0 0 2.42,-3.22 c 0.27,-2.42 -0.54,-5.11 -1.89,-6.05 a 20,20 0 0 1 -2.41,-2 z"
           style="fill:#ffffff;stroke:#263238;stroke-linecap:round;stroke-linejoin:round"
           id="path1931" /><path
           d="m 169.8,480.76 a 32.55,32.55 0 0 1 -11.75,-1.8 c 0,1.62 0,2.94 0,3.29 0.14,1.07 7.8,2.14 12.51,1.61 4.71,-0.53 6.31,-2.56 6.72,-2.83 a 3.83,3.83 0 0 0 2.42,-3.22 10.06,10.06 0 0 0 0,-1.82 c -0.2,0.41 -0.43,0.85 -0.69,1.28 -0.74,1.34 -2.76,3.36 -9.21,3.49 z"
           style="fill:#006642;stroke:#263238;stroke-linecap:round;stroke-linejoin:round"
           id="path1933" /><line
           x1="175.08"
           y1="476.17001"
           x2="174.3"
           y2="482.82999"
           style="fill:none;stroke:#263238;stroke-linecap:round;stroke-linejoin:round"
           id="line1935" /><path
           d="m 166,472.7 c 2.41,0.28 5,-1.63 6.44,-3.41 a 1.91,1.91 0 0 1 -0.53,-0.22 c -1.08,-0.67 -2.69,-4.7 -6.32,-4.3 -3.63,0.4 -5.24,3.76 -6,4.17 -0.01,0 2.95,3.36 6.41,3.76 z"
           style="fill:#006642;stroke:#263238;stroke-linecap:round;stroke-linejoin:round"
           id="path1937" /><line
           x1="152.16"
           y1="355.53"
           x2="146.3"
           y2="352.60001"
           style="fill:none;stroke:#636363;stroke-linecap:round;stroke-linejoin:round"
           id="line1939" /><path
           d="m 164.54,217.89 c 0,0 1.47,-2.44 2,0.73 0.53,3.17 -0.74,6.58 -2.44,7.8 -1.7,1.22 -2.44,0 -2.44,-1.22 0,-1.22 2.88,-7.31 2.88,-7.31 z"
           style="fill:#ffffff;stroke:#263238;stroke-linecap:round;stroke-linejoin:round"
           id="path1941" /><path
           d="m 136,219.11 a 2,2 0 0 0 -2.68,2.19 c 0,2.93 3.9,7.08 5.61,6.1 1.71,-0.98 -2.93,-8.29 -2.93,-8.29 z"
           style="fill:#ffffff;stroke:#263238;stroke-linecap:round;stroke-linejoin:round"
           id="path1943" /><path
           d="m 150.15,190.56 c 0,0 -3.81,6.34 -7.8,8.05 -5.13,2.2 -9.27,8.79 -9,14.15 0.27,5.36 8.05,22.93 9.27,23.42 1.22,0.49 16.59,-0.73 17.08,-1.46 0.49,-0.73 2.68,-8.05 4.63,-15.13 1.95,-7.08 1.95,-10.73 1.95,-10.73 a 22.46,22.46 0 0 0 1,-7.07 12.86,12.86 0 0 0 -3.17,-7.81 l -2.93,3.66 1,-8.29 a 9.41,9.41 0 0 0 -5.85,1.21 21.55,21.55 0 0 0 -4.63,4.15 z"
           style="fill:#263238;stroke:#263238;stroke-linecap:round;stroke-linejoin:round"
           id="path1945" /><path
           d="m 235.77,197.16 c -0.36,-1.09 -1.45,-1.09 -2.36,-3.45 -0.91,-2.36 -3.45,-1.81 -4.18,-2.18 -0.73,-0.37 -0.72,-0.72 -0.36,-1.81 0.36,-1.09 1.27,-4.72 -0.36,-4.72 -1.63,0 -2.91,3.81 -3.27,4.72 a 48.72,48.72 0 0 1 -3.27,4.72 12.77,12.77 0 0 1 -2.36,0.36 c -0.9,0 -2,1.82 -2.17,2.72 -0.12,0.57 0.76,2.42 1.44,3.72 a 28.84,28.84 0 0 0 1.1,3.18 c 0,0 0.9,1.27 3.63,0.91 2.73,-0.36 7.8,3.27 8.53,2.72 0.73,-0.55 2.36,-3.81 3.08,-5.62 a 9.34,9.34 0 0 0 0.55,-5.27 z"
           style="fill:#ffffff;stroke:#263238;stroke-linecap:round;stroke-linejoin:round"
           id="path1947" /><path
           d="m 118.36,348.87 c 0,0 3.3,5 3.48,6.94 0.18,1.94 0.17,5.56 0.34,6.77 0.17,1.21 -0.52,2.09 -1.38,2.09 a 1.83,1.83 0 0 1 -1.39,-0.87 20.29,20.29 0 0 0 0.52,2.95 c 0.34,1.22 2.25,2.26 2.08,3.47 -0.17,1.21 -2.08,1.74 -4.69,1.74 a 7.89,7.89 0 0 1 -7.29,-5 c -1.56,-3.64 -3.12,-14.06 -3.12,-16 0,-1.94 9.72,-3.48 11.45,-2.09 z"
           style="fill:#ffffff;stroke:#263238;stroke-linecap:round;stroke-linejoin:round"
           id="path1949" /><path
           d="m 114.72,355.29 c 0,0 0.69,1.56 -0.7,4 a 16.08,16.08 0 0 0 -2.08,4.69 16.72,16.72 0 0 0 1.56,3.47 c 0.7,1.39 3,1.22 3.13,2.44 a 2.68,2.68 0 0 1 -0.35,1.9"
           style="fill:none;stroke:#263238;stroke-linecap:round;stroke-linejoin:round"
           id="path1951" /><path
           d="m 116.91,362.72 a 18.07,18.07 0 0 0 0.93,4 c 0.7,1.74 4.34,2.78 3,4.69"
           style="fill:none;stroke:#263238;stroke-linecap:round;stroke-linejoin:round"
           id="path1953" /><path
           d="m 114.72,363.45 a 15.36,15.36 0 0 0 0.87,3.3 c 0.52,1 4,2.08 3.3,4.86"
           style="fill:none;stroke:#263238;stroke-linecap:round;stroke-linejoin:round"
           id="path1955" /><path
           d="m 119.41,363.8 c 0,0 -0.35,-2.78 -0.52,-3.82 a 23.28,23.28 0 0 1 -0.18,-3"
           style="fill:none;stroke:#263238;stroke-linecap:round;stroke-linejoin:round"
           id="path1957" /><path
           d="m 176.36,242.33 a 36.35,36.35 0 0 0 -15.61,-7.07 c -9.76,-1.95 -22.69,1.22 -27.81,4.63 a 13.42,13.42 0 0 0 -5.61,9.27 z"
           style="fill:#ffffff;stroke:#263238;stroke-linecap:round;stroke-linejoin:round"
           id="path1959" /><path
           d="m 216.61,212.57 a 5.54,5.54 0 0 1 0,-2.92 c 0.49,-1 0.73,-3.91 1.46,-4.64 0.73,-0.73 6.1,-3.66 10,-1.95 3.9,1.71 5.86,9 6.59,10.73 0.73,1.73 -1.46,5.61 -2.44,6.1 -0.98,0.49 -1.95,-2.93 -2.93,-3.9 -0.98,-0.97 -9.29,-4.88 -12.68,-3.42 z"
           style="fill:#ffffff;stroke:#263238;stroke-linecap:round;stroke-linejoin:round"
           id="path1961" /><path
           d="m 152.21,241.85 c -1,0.24 -19.52,2.68 -27.81,5.12 -8.29,2.44 -15.12,5.61 -15.37,8.78 -0.25,3.17 -7,62.26 -7.26,65.68 -0.26,3.42 2.2,23.17 3.42,23.9 1.22,0.73 6.83,1.22 8.78,0.49 a 8.37,8.37 0 0 0 3.17,-2.19 l 0.73,-16.35 c 0,0 0.49,5.61 1.46,5.86 a 109.49,109.49 0 0 0 37.33,3.17 c 21,-1.71 29.76,-4.88 31.46,-6.1 1.7,-1.22 1.47,-4.88 1.47,-4.88 0,0 0.24,-2.68 0.24,-5.37 0,-2.69 -7.83,-56.65 -7.83,-56.65 0,0 32.2,-8.78 34.64,-11.71 2.44,-2.93 14.15,-34.88 14.15,-37.32 0,-2.44 -5.37,-6.1 -9.27,-6.34 -3.9,-0.24 -13.42,19 -15.61,20.49 -2.19,1.49 -23.18,9.76 -31,11.22 -7.82,1.46 -22.7,2.2 -22.7,2.2 z"
           style="fill:#006642;stroke:#263238;stroke-linecap:round;stroke-linejoin:round"
           id="path1963" /><path
           d="m 144.48,258.38 c 0,0 3.3,13 13,18.31"
           style="fill:none;stroke:#263238;stroke-linecap:round;stroke-linejoin:round"
           id="path1965" /><path
           d="m 158.76,282.45 q 1.1,0.57 2.25,1.11"
           style="fill:none;stroke:#263238;stroke-linecap:round;stroke-linejoin:round"
           id="path1967" /><path
           d="m 144.48,271.86 a 57.46,57.46 0 0 0 10.73,8.56"
           style="fill:none;stroke:#263238;stroke-linecap:round;stroke-linejoin:round"
           id="path1969" /><path
           d="m 183.23,273.2 -1.23,-9.89 -12,4.44 4.65,1.91 c -2.27,2 -5.24,4.82 -3.4,4.49 a 31.73,31.73 0 0 0 6.94,-3 z"
           style="fill:#263238;stroke:#263238;stroke-linecap:round;stroke-linejoin:round"
           id="path1971" /><path
           d="m 115.67,320.21 c 0,-4.39 2.14,-49.09 2.14,-49.09 l -0.73,-3.17 -5.41,-8.62 2.88,16.67 c -2.29,-0.71 -6.9,-1.93 -5.16,0.4 a 33.45,33.45 0 0 0 5.46,5.27 l -1.64,33.06 a 14.14,14.14 0 0 0 1.94,7.88 l 1.68,2.86 a 12.51,12.51 0 0 1 -1.16,-5.26 z"
           style="fill:#263238;stroke:#263238;stroke-linecap:round;stroke-linejoin:round"
           id="path1973" /><path
           d="m 116.83,325.51 a 9.25,9.25 0 0 0 1,1.77 z"
           style="fill:#263238;stroke:#263238;stroke-linecap:round;stroke-linejoin:round"
           id="path1975" /><path
           d="m 188.61,324.11 c -37.32,16.83 -70.74,3.17 -70.74,3.17 0,0 0.49,5.61 1.46,5.86 a 109.49,109.49 0 0 0 37.33,3.17 c 21,-1.71 29.76,-4.88 31.46,-6.1 1.7,-1.22 1.47,-4.88 1.47,-4.88 0,0 0,-0.56 0.1,-1.43 z"
           style="fill:#ffffff;stroke:#263238;stroke-linecap:round;stroke-linejoin:round"
           id="path1977" /><path
           d="m 102.5,342.89 c 0,0 5.61,2.44 10.25,1 4.64,-1.44 5.85,-2.93 6.58,-2.68 0.73,0.25 0.74,6.09 0,7.8 -0.74,1.71 -2.44,2.93 -7.56,3.42 -5.12,0.49 -7.8,-2 -8.29,-3.42 a 48.78,48.78 0 0 1 -0.98,-6.12 z"
           style="fill:#ffffff;stroke:#263238;stroke-linecap:round;stroke-linejoin:round"
           id="path1979" /></g><g
         id="freepik--character-1--inject-14"><ellipse
           cx="82.32"
           cy="465.54999"
           rx="36.290001"
           ry="11.26"
           style="fill:#006642"
           id="ellipse1982" /><ellipse
           cx="82.32"
           cy="465.54999"
           rx="36.290001"
           ry="11.26"
           style="opacity:0.5;fill:#ffffff"
           id="ellipse1984" /><path
           d="m 88.05,209.94 c 0,0 3,3.56 2.85,5 a 7.87,7.87 0 0 0 1.1,4.62 c 0.71,0.89 2.67,1.6 2.67,3.2 a 5.74,5.74 0 0 1 -1.07,3 c 0,0 0.72,7.13 0,8.91 -0.72,1.78 -3.56,1.78 -5.16,1.78 -1.6,0 -2.49,-0.18 -3,-0.18 -0.51,0 -3.74,-2.85 -6.23,-9.08 -2.49,-6.23 0.36,-15.5 2.49,-16.74 2.13,-1.24 6.35,-0.51 6.35,-0.51 z"
           style="fill:#ffffff;stroke:#263238;stroke-linecap:round;stroke-linejoin:round"
           id="path1986" /><line
           x1="86.809998"
           y1="220.81"
           x2="94.110001"
           y2="216.71001"
           style="fill:none;stroke:#263238;stroke-linecap:round;stroke-linejoin:round"
           id="line1988" /><path
           d="m 90.9,216 c 0,0 3.92,-1.07 2.5,4.63"
           style="fill:none;stroke:#263238;stroke-linecap:round;stroke-linejoin:round"
           id="path1990" /><path
           d="m 80.25,241.89 -1.11,13.25 -14.07,-3.32 v -10.49 c 0,0 9.93,-2.21 15.18,0.56 z"
           style="fill:#ffffff;stroke:#263238;stroke-linecap:round;stroke-linejoin:round"
           id="path1992" /><path
           d="m 78.8,204 a 22,22 0 0 1 -8,0.55 c -4.12,-0.55 -13.18,0.55 -15.65,6.6 -2.47,6.05 0.55,11.53 0.27,13.18 -0.28,1.65 -4.67,4.12 -4.67,6.6 0,2.48 1.92,4.67 1.1,6.59 -0.82,1.92 -2.2,3.57 -1.1,5.49 1.1,1.92 5.5,-1.37 6,0.55 0.5,1.92 4.67,4.4 6.6,4.4 1.93,0 4.12,-4.12 5.22,-2.48 1.1,1.64 3.29,3.3 5.49,3 2.2,-0.3 3.29,-5.35 8,-3.3 4.71,2.05 6.21,-2.24 6,-6 -0.16,-3.58 -4.39,-8.52 -3.57,-11.27 0.82,-2.75 2.47,-4.67 1.92,-7.69 -0.55,-3.02 -3,-4.12 -1.65,-6.32 1.35,-2.2 3.3,-2.19 3.85,-4.94 0.55,-2.75 -0.55,-6.32 -4.67,-6.87 C 79.82,201.54 78.8,204 78.8,204 Z"
           style="fill:#ffffff;stroke:#263238;stroke-linecap:round;stroke-linejoin:round"
           id="path1994" /><path
           d="m 54,344.3 c 0,0 3.87,22.08 1.94,43.34 -0.78,8.53 -5,10.77 -6.08,22.08 -1.08,11.31 2.76,34.23 0.83,46.38 -0.26,1.66 -2.21,5.8 0,8 2.21,2.2 9.94,0.83 12.15,0.83 2.21,0 7.45,-0.83 8,-2.21 0.55,-1.38 -3.31,-2.76 -5.79,-7.45 a 38.49,38.49 0 0 1 -4.42,-17.39 c 0,-6.35 3.86,-24.29 6.9,-38.92 3.04,-14.63 4.69,-22.64 4.69,-30.92 v -26 c 0,-1.38 -7.45,-4.69 -13.25,-3.59 -5.8,1.1 -4.97,5.85 -4.97,5.85 z"
           style="fill:#ffffff;stroke:#263238;stroke-linecap:round;stroke-linejoin:round"
           id="path1996" /><path
           d="m 65.07,455.27 c -0.43,-0.8 -0.83,-1.66 -1.21,-2.55 -0.72,1.52 -1,3.34 -2.38,3.66 -2.49,0.55 -10.77,-0.28 -10.77,-0.28 -0.27,1.66 -2.21,5.8 0,8 2.21,2.2 9.94,0.83 12.15,0.83 2.21,0 7.45,-0.83 8,-2.21 0.55,-1.38 -3.31,-2.72 -5.79,-7.45 z"
           style="fill:#263238;stroke:#263238;stroke-linecap:round;stroke-linejoin:round"
           id="path1998" /><path
           d="m 61.26,444.16 a 34.71,34.71 0 0 1 -0.61,-6.28 c 0,-6.35 3.86,-24.29 6.9,-38.92 3.04,-14.63 4.69,-22.64 4.69,-30.92 v -26 c 0,-1.38 -7.45,-4.69 -13.25,-3.59 -5.8,1.1 -5,5.8 -5,5.8 0,0 3.87,22.08 1.94,43.34 -0.78,8.53 -5,10.77 -6.08,22.08 -0.8,8.22 1,22.55 1.33,34.44 a 21,21 0 0 0 10.08,0.05 z"
           style="fill:#006642;stroke:#263238;stroke-linecap:round;stroke-linejoin:round"
           id="path2000" /><path
           d="m 50.44,439 a 44.66,44.66 0 0 0 6.34,0.83 19.33,19.33 0 0 0 5.25,-1.1 l 0.83,7.18 a 35.44,35.44 0 0 1 -7.73,1.38 10.24,10.24 0 0 1 -4.14,-0.56 c 0,0 -0.55,-5.54 -0.55,-7.73 z"
           style="fill:#ffffff;stroke:#263238;stroke-linecap:round;stroke-linejoin:round"
           id="path2002" /><path
           d="m 51,323.87 c 0,0 -1.66,11 0,16.56 1.66,5.56 6.07,13.26 7.18,15.46 1.11,2.2 2.48,9.11 2.48,10.49 0,1.38 1.1,17.67 -0.55,25.95 -1.65,8.28 -3.59,13 -3.59,21 0,8 3.86,37.89 3.86,43.13 0,5.24 -1.93,11.87 -0.55,13.25 1.38,1.38 25.12,-1.43 27.33,-2.26 A 2.94,2.94 0 0 0 88.53,463 c -0.83,-1.1 -10.77,-4.36 -12.42,-5.74 -1.65,-1.38 -2.76,-5.8 -3,-7.73 -0.24,-1.93 0.55,-31.54 1.66,-38.16 1.11,-6.62 5.52,-19.6 8,-26.78 2.48,-7.18 6.9,-32.57 6.9,-41.68 a 159.86,159.86 0 0 0 -0.82,-16.29 c 0,0 -25.72,1.94 -37.85,-2.75 z"
           style="fill:#ffffff;stroke:#263238;stroke-linecap:round;stroke-linejoin:round"
           id="path2004" /><path
           d="M 87.15,467.43 A 2.94,2.94 0 0 0 88.53,463 c -0.83,-1.1 -10.77,-4.36 -12.42,-5.74 a 3.77,3.77 0 0 1 -0.68,-0.78 l -0.7,4.37 a 10,10 0 0 1 -6.08,2.21 c -2.76,0 -6.82,-1.8 -8.55,-2.63 -0.47,4.18 -1.45,8.36 -0.28,9.25 5.61,4.32 25.12,-1.42 27.33,-2.25 z"
           style="fill:#263238;stroke:#263238;stroke-linecap:round;stroke-linejoin:round"
           id="path2006" /><path
           d="m 73,448.51 c -0.08,-5.28 0.7,-31.08 1.71,-37.13 1.1,-6.63 5.52,-19.6 8,-26.78 2.48,-7.18 6.9,-32.57 6.9,-41.68 a 159.86,159.86 0 0 0 -0.82,-16.29 c 0,0 -25.66,1.93 -37.79,-2.76 0,0 -1.66,11 0,16.56 1.66,5.56 6.07,13.26 7.18,15.46 1.11,2.2 2.48,9.11 2.48,10.49 0,1.38 1.1,17.67 -0.55,25.95 -1.65,8.28 -3.59,13 -3.59,21 0,5.67 1.94,24.12 3.07,34.14 A 42.31,42.31 0 0 0 69.21,449 16,16 0 0 0 73,448.51 Z"
           style="fill:#006642;stroke:#263238;stroke-linecap:round;stroke-linejoin:round"
           id="path2008" /><path
           d="m 59.55,450.92 a 15.58,15.58 0 0 0 5.79,1.08 c 3.31,0 8.28,0.82 8,-0.83 a 48.87,48.87 0 0 1 0.27,-7.18 c 0,0 -6.07,0.83 -9.66,0.28 -3.59,-0.55 -5.79,-0.83 -5.79,-0.83 0,0 0.56,5.83 1.39,7.48 z"
           style="fill:#ffffff;stroke:#263238;stroke-linecap:round;stroke-linejoin:round"
           id="path2010" /><path
           d="m 82.18,258.17 a 21.23,21.23 0 0 0 -11.32,-7.45 c -7.45,-1.93 -14.63,9.11 -16.56,15.18 -1.93,6.07 -2.21,22.36 -5,30.64 -2.79,8.28 -4.69,24.85 -3.59,26.78 1.1,1.93 24.85,8 33.13,8 8.28,0 17.16,-6.62 17.42,-9.93 C 96.52,318.08 94.88,296 93.5,284.12 92.12,272.24 82.18,258.17 82.18,258.17 Z"
           style="fill:#263238;stroke:#263238;stroke-linecap:round;stroke-linejoin:round"
           id="path2012" /><path
           d="m 78.5,350 c 0,0 -0.09,3.83 0,6.08 a 18.86,18.86 0 0 1 -0.84,6.08 c -0.47,1.49 -1.59,2.52 -1.68,1.49 -0.09,-1.03 0.37,-2.9 0.37,-3.74 0,-0.84 -0.28,-4.67 -0.28,-4.67 a 41.87,41.87 0 0 1 -0.84,4.11 c -0.56,2.15 -2.15,4.39 -2.9,4.58 -0.75,0.19 -1.22,-0.47 -0.84,-1.49 0.38,-1.02 1.31,-4 1.4,-4.68 C 72.98,357.08 73,355 73,355 a 53.58,53.58 0 0 1 -2.52,6.26 c -0.75,1.13 -0.84,1.69 -1.59,1.78 -0.75,0.09 -0.65,-1.5 -0.19,-2.71 a 37.85,37.85 0 0 0 1.22,-5.52 c 0,-0.37 -0.84,1.68 -1.87,2.81 -1.03,1.13 -1.78,2.05 -2.25,1.87 -0.47,-0.18 0.19,-2 0.57,-2.81 a 12.58,12.58 0 0 0 0.93,-3.08 v -2.43 c 0,0 -0.84,-1.88 3.09,-2.53 3.93,-0.65 7.27,-1.4 8.11,1.36 z"
           style="fill:#ffffff;stroke:#263238;stroke-linecap:round;stroke-linejoin:round"
           id="path2014" /><path
           d="m 64.8,347.34 a 3.4,3.4 0 0 0 1.2,3.86 c 2.06,1.38 9.41,2.49 11.76,0.28 a 6.66,6.66 0 0 0 2.35,-4.42 z"
           style="fill:#ffffff;stroke:#263238;stroke-linecap:round;stroke-linejoin:round"
           id="path2016" /><path
           d="m 67,261.48 c 0,0 -6.07,9.94 -6.07,16.29 0,6.35 -3.32,50.79 -3.59,56.32 -0.27,5.53 0.27,9.93 3.59,12.69 3.32,2.76 16.83,2.76 20.42,1.38 3.59,-1.38 6.9,-7.73 6.9,-12.14 0,-4.41 -4.14,-37 -5,-43.34 -0.86,-6.34 -1.11,-23.19 -3.59,-27.05 -2.48,-3.86 -3.32,-4.15 -3.32,-4.15"
           style="fill:#263238;stroke:#263238;stroke-linecap:round;stroke-linejoin:round"
           id="path2018" /><path
           d="m 57.93,324.09 c 0,0 1.69,-38.47 3,-46.32 a 56.48,56.48 0 0 1 4.53,-14.3"
           style="fill:none;stroke:#636363;stroke-linecap:round;stroke-linejoin:round"
           id="path2020" /><path
           d="m 78,263.83 c 0,0 4.77,9.17 5,19 0.23,9.83 3.59,41.25 3.59,41.25"
           style="fill:none;stroke:#636363;stroke-linecap:round;stroke-linejoin:round"
           id="path2022" /><line
           x1="81.910004"
           y1="273.35001"
           x2="82.730003"
           y2="267.82999"
           style="fill:none;stroke:#636363;stroke-linecap:round;stroke-linejoin:round"
           id="line2024" /></g></g></g></svg>
