<?xml version="1.0" encoding="UTF-8" standalone="no"?>
<!-- Created with Inkscape (http://www.inkscape.org/) -->

<svg
   width="968mm"
   height="775mm"
   viewBox="0 0 968 775"
   version="1.1"
   id="svg2233"
   xml:space="preserve"
   inkscape:version="1.2.2 (732a01da63, 2022-12-09, custom)"
   sodipodi:docname="gst-loan.svg"
   xmlns:inkscape="http://www.inkscape.org/namespaces/inkscape"
   xmlns:sodipodi="http://sodipodi.sourceforge.net/DTD/sodipodi-0.dtd"
   xmlns="http://www.w3.org/2000/svg"
   xmlns:svg="http://www.w3.org/2000/svg"><sodipodi:namedview
     id="namedview2235"
     pagecolor="#ffffff"
     bordercolor="#000000"
     borderopacity="0.25"
     inkscape:showpageshadow="2"
     inkscape:pageopacity="0.0"
     inkscape:pagecheckerboard="0"
     inkscape:deskcolor="#d1d1d1"
     inkscape:document-units="px"
     showgrid="false"
     inkscape:zoom="0.2481917"
     inkscape:cx="1502.8705"
     inkscape:cy="1392.0691"
     inkscape:window-width="1846"
     inkscape:window-height="1016"
     inkscape:window-x="0"
     inkscape:window-y="0"
     inkscape:window-maximized="1"
     inkscape:current-layer="layer1" /><defs
     id="defs2230" /><g
     inkscape:label="Layer 1"
     inkscape:groupmode="layer"
     id="layer1"><g
       id="g5475"
       transform="matrix(1.1223957,0,0,1.1223957,-21.061254,267.29844)"><g
         id="freepik--background-simple--inject-121"><path
           d="m 710.55,186.34 c 0,0 -54.55,-100.7 -164.31,-124 -109.76,-23.3 -164.08,33.24 -237.52,47.91 -73.44,14.67 -110.9,-69 -197.35,-3.82 -86.45,65.18 -115.93,229 -35.06,275.79 80.87,46.79 162.11,48.78 268,35.5 105.89,-13.28 163.37,18.4 238.53,18.75 75.16,0.35 182.01,-107.6 127.71,-250.13 z"
           style="fill:#006642"
           id="path18" /><path
           d="m 710.55,186.34 c 0,0 -54.55,-100.7 -164.31,-124 -109.76,-23.3 -164.08,33.24 -237.52,47.91 -73.44,14.67 -110.9,-69 -197.35,-3.82 -86.45,65.18 -115.93,229 -35.06,275.79 80.87,46.79 162.11,48.78 268,35.5 105.89,-13.28 163.37,18.4 238.53,18.75 75.16,0.35 182.01,-107.6 127.71,-250.13 z"
           style="opacity:0.7;fill:#ffffff"
           id="path20" /></g><g
         id="freepik--Gears--inject-121"><path
           d="m 707,330.33 v -15.1 l -12,-1.43 a 36,36 0 0 0 -3.92,-10.3 l 7.35,-9.34 -10.68,-10.68 -9,7.08 a 36.26,36.26 0 0 0 -10.6,-4.54 l -1.36,-11.38 h -15.1 L 650.34,286 a 36.3,36.3 0 0 0 -10.48,4.46 l -9.24,-7.27 -10.68,10.68 7.51,9.53 a 36.56,36.56 0 0 0 -3.87,9.94 l -12.48,1.49 V 330 l 13,1.54 a 35.92,35.92 0 0 0 3.91,9 l -8.34,10.46 10.68,10.68 10.74,-8.45 a 36.36,36.36 0 0 0 8.58,3.55 l 1.64,13.74 h 15.1 L 668,357 a 36.66,36.66 0 0 0 8.8,-3.43 l 10.68,8.43 10.68,-10.68 -8,-10.2 a 36.54,36.54 0 0 0 4.2,-9.25 z m -47.76,12 a 20.86,20.86 0 1 1 20.87,-20.86 20.86,20.86 0 0 1 -20.87,20.89 z"
           style="fill:none;stroke:#263238;stroke-linejoin:round"
           id="path23" /><path
           d="m 695.94,218.17 v -7.89 l -6.27,-0.74 a 19,19 0 0 0 -2,-5.39 l 3.84,-4.88 -5.58,-5.58 -4.7,3.7 a 19.24,19.24 0 0 0 -5.54,-2.37 l -0.71,-6 H 667 l -0.71,6 a 18.85,18.85 0 0 0 -5.47,2.33 l -4.83,-3.8 -5.58,5.58 3.92,5 a 19.12,19.12 0 0 0 -2,5.19 l -6.52,0.78 v 7.9 l 6.77,0.81 a 18.92,18.92 0 0 0 2,4.69 l -4.27,5.5 5.58,5.58 5.61,-4.41 A 19.29,19.29 0 0 0 666,232 l 0.85,7.18 h 7.89 l 0.84,-7.07 a 19.11,19.11 0 0 0 4.6,-1.79 l 5.57,4.38 5.58,-5.58 -4.2,-5.33 a 18.72,18.72 0 0 0 2.2,-4.83 z m -25,6.29 a 10.9,10.9 0 1 1 10.9,-10.9 10.91,10.91 0 0 1 -10.84,10.9 z"
           style="fill:none;stroke:#263238;stroke-linejoin:round"
           id="path25" /><path
           d="m 538,341.15 v -6.92 l -5.5,-0.65 a 16.7,16.7 0 0 0 -1.79,-4.72 l 3.37,-4.28 -4.9,-4.9 -4.12,3.25 a 16.57,16.57 0 0 0 -4.86,-2.08 l -0.62,-5.22 h -6.92 l -0.62,5.22 a 16.79,16.79 0 0 0 -4.8,2 l -4.24,-3.29 -4.89,4.89 3.44,4.37 a 16.81,16.81 0 0 0 -1.77,4.56 l -5.72,0.68 V 341 l 5.94,0.71 a 16.58,16.58 0 0 0 1.79,4.11 l -3.8,4.83 4.89,4.9 4.92,-3.88 a 16.38,16.38 0 0 0 3.93,1.63 l 0.75,6.3 h 6.92 l 0.74,-6.2 a 16.79,16.79 0 0 0 4,-1.57 l 4.89,3.84 4.89,-4.89 -3.68,-4.68 a 16.73,16.73 0 0 0 1.93,-4.23 z m -21.88,5.51 a 9.56,9.56 0 1 1 9.56,-9.55 9.55,9.55 0 0 1 -9.53,9.55 z"
           style="fill:none;stroke:#263238;stroke-linejoin:round"
           id="path27" /></g><g
         id="freepik--Plants--inject-121"><path
           d="m 57.48,201.34 c 5.94,0.19 18.19,-5 18.2,-5 0.01,0 -5.88,-7 -6.31,-7.43 -5,-4.6 -17.28,-10.55 -23.89,-6.83 -4.75,2.68 -5.55,8.83 -2.53,13.11 3.02,4.28 9.48,5.98 14.53,6.15 z"
           style="fill:#006642"
           id="path30" /><path
           d="m 76,235.45 c 5.55,-1.32 15.31,-8.91 16.08,-9.52 a 159.68,159.68 0 0 0 14.07,15.85 c 2.92,2.91 5.94,5.75 9,8.56 -1.6,-1.07 -3,-2 -3.24,-2.13 -6,-3.12 -19.46,-5.61 -24.84,-0.28 -3.89,3.84 -3,10 1,13.31 4,3.31 10.72,3.28 15.64,2.11 4.92,-1.17 13.44,-7.5 15.65,-9.2 l 3.56,3.2 c 5.73,5.09 11.47,10.15 16.95,15.28 1.93,1.8 3.76,3.65 5.61,5.5 -1.42,-0.95 -2.62,-1.74 -2.82,-1.85 -6,-3.11 -19.45,-5.61 -24.84,-0.27 -3.88,3.84 -3,10 1,13.31 4,3.31 10.73,3.28 15.65,2.1 4.76,-1.13 12.61,-6.88 15.25,-8.89 1.83,2 3.67,3.89 5.36,5.86 1.12,1.37 2.29,2.61 3.34,4.05 l 3.17,4.17 c 1.92,2.72 3.92,5.52 5.73,8.22 1.27,1.87 2.45,3.67 3.64,5.49 -1.91,-1.82 -5.7,-5.31 -6.05,-5.56 -5.47,-4 -18.38,-8.49 -24.52,-4 -4.41,3.21 -4.49,9.41 -1,13.32 3.49,3.91 10.1,4.86 15.14,4.44 5.55,-0.45 16,-6.2 17.24,-6.92 2,3 3.84,5.95 5.57,8.76 1.55,2.52 3,4.92 4.35,7.22 l 4.42,-1.76 c -1.55,-2.49 -3.19,-5.1 -5,-7.86 -2,-3.06 -4.15,-6.3 -6.41,-9.6 a 97.44,97.44 0 0 0 7.83,-8.36 c 5.16,2.46 16.22,3.36 17.64,3.46 0,3.59 -0.08,7.09 -0.19,10.38 q -0.1,3.4 -0.26,6.55 l 4.68,-1.86 c 0,-1.5 0,-3 0.07,-4.6 0,-3.64 0,-7.54 -0.05,-11.54 1.43,-0.25 13.15,-2.37 17.75,-5.52 4.17,-2.86 8.69,-7.67 8.93,-13 0.24,-5.33 -3.73,-10 -9.18,-9.69 -7.57,0.41 -14.75,12.06 -16.46,18.6 -0.11,0.39 -0.74,4.71 -1.09,7.43 0,-1.63 -0.06,-3.22 -0.11,-4.9 -0.09,-3.33 -0.28,-6.65 -0.47,-10.22 -0.15,-1.72 -0.31,-3.46 -0.46,-5.22 -0.15,-1.76 -0.47,-3.57 -0.69,-5.38 -0.61,-4.18 -1.43,-8.37 -2.36,-12.59 2.92,-0.08 13.27,-0.54 17.84,-2.75 4.57,-2.21 9.75,-6.25 10.8,-11.5 1.05,-5.25 -2.17,-10.44 -7.61,-11 -7.55,-0.74 -16.4,9.68 -19.09,15.9 -0.17,0.38 -1.6,5.06 -2.33,7.64 -0.58,-2.53 -1.14,-5.05 -1.8,-7.59 -1.92,-7.33 -4.08,-14.69 -6.21,-22 -0.65,-2.25 -1.28,-4.51 -1.91,-6.76 1,0 13.35,-0.29 18.47,-2.76 4.56,-2.2 9.75,-6.26 10.81,-11.51 1.06,-5.25 -2.18,-10.44 -7.62,-11 -7.54,-0.73 -16.4,9.69 -19.09,15.9 -0.2,0.47 -2.25,7.2 -2.68,8.93 -1.4,-5 -2.74,-9.91 -3.86,-14.85 a 157.53,157.53 0 0 1 -3.35,-20.22 c 0.48,0 13.33,-0.24 18.58,-2.77 4.56,-2.19 9.75,-6.25 10.81,-11.5 1.06,-5.25 -2.18,-10.44 -7.62,-11 -7.54,-0.74 -16.4,9.68 -19.09,15.9 -0.21,0.48 -2.41,7.73 -2.71,9.07 0,-0.4 -0.12,-0.8 -0.15,-1.2 a 114.39,114.39 0 0 1 0.36,-20.53 c 0.35,-3.78 0.9,-7.36 1.51,-10.84 2.4,0.2 13.37,1 18.34,-0.75 4.77,-1.68 10.38,-5.15 12,-10.25 1.62,-5.1 -1,-10.61 -6.36,-11.74 -7.42,-1.56 -17.36,7.83 -20.72,13.71 -0.18,0.32 -1.68,3.77 -2.73,6.3 0.3,-1.56 0.58,-3.18 0.9,-4.68 1.18,-5.61 2.6,-10.67 3.9,-15.15 0.76,-2.54 1.5,-4.82 2.21,-7 2.46,-1 12.3,-5.29 15.85,-9.08 3.55,-3.79 6.83,-9.35 5.92,-14.62 -0.91,-5.27 -5.79,-9 -11.05,-7.49 -7.31,2 -11.81,14.95 -12.08,21.71 0,0.59 0.66,9.77 0.79,9.72 l 0.15,-0.06 c -0.73,2 -1.48,4.22 -2.26,6.63 -1.4,4.45 -2.94,9.5 -4.24,15.11 a 158.71,158.71 0 0 0 -3.36,18.29 116.1,116.1 0 0 0 -0.81,20.79 c 0,0.08 0,0.16 0,0.24 -0.78,-2.07 -3.17,-7.81 -3.41,-8.23 C 174.2,173 164.36,163.55 156.92,165 c -5.35,1.06 -8,6.65 -6.49,11.66 1.51,5.01 7.14,8.65 11.89,10.39 5.35,1.95 17.68,1 18.67,0.92 a 158.09,158.09 0 0 0 3,21 c 0.83,4 1.79,8.08 2.8,12.12 -0.73,-1.78 -1.41,-3.36 -1.52,-3.57 -3.3,-5.92 -13.13,-15.41 -20.57,-13.93 -5.36,1.06 -8,6.66 -6.49,11.67 1.51,5.01 7.13,8.64 11.88,10.38 4.75,1.74 15.35,1.16 18.13,1 0.41,1.55 0.8,3.1 1.21,4.64 2,7.41 4,14.79 5.7,22.09 0.62,2.57 1.13,5.12 1.64,7.68 -0.65,-1.58 -1.22,-2.9 -1.32,-3.09 -3.3,-5.92 -13.13,-15.41 -20.57,-13.93 -5.36,1.06 -8,6.65 -6.49,11.67 1.51,5.02 7.13,8.64 11.88,10.38 4.6,1.68 14.33,1.21 17.63,1 0.46,2.64 0.92,5.27 1.24,7.85 0.17,1.76 0.47,3.44 0.55,5.22 0.08,1.78 0.23,3.5 0.35,5.22 0.1,3.33 0.22,6.77 0.24,10 0,2.26 0,4.42 0,6.59 -0.58,-2.57 -1.82,-7.57 -2,-8 a 34.89,34.89 0 0 0 -10.61,-14 11.35,11.35 0 0 0 -0.85,-1.8 c -2.69,-4.49 -8.63,-6.27 -13,-3 -6.09,4.52 -5.64,18.19 -3.47,24.6 0.13,0.38 2,4.33 3.2,6.8 -0.94,-1.35 -1.83,-2.66 -2.8,-4 -1.92,-2.73 -3.9,-5.39 -6,-8.27 l -3.27,-4.1 c -1.06,-1.39 -2.35,-2.72 -3.54,-4.1 -2.81,-3.15 -5.81,-6.2 -8.91,-9.2 2.39,-1.68 10.77,-7.77 13.37,-12.14 2.6,-4.37 4.67,-10.6 2.66,-15.55 -2.01,-4.95 -7.58,-7.51 -12.4,-4.95 -6.7,3.55 -8.34,17.12 -7.16,23.79 0.08,0.41 1.46,5.1 2.27,7.66 -1.87,-1.79 -3.73,-3.59 -5.68,-5.34 -5.64,-5.06 -11.51,-10 -17.34,-15 -1.79,-1.51 -3.55,-3.05 -5.32,-4.58 0.86,-0.59 11,-7.61 13.88,-12.5 2.59,-4.34 4.68,-10.59 2.67,-15.55 -2.01,-4.96 -7.58,-7.51 -12.4,-5 -6.7,3.55 -8.34,17.12 -7.16,23.79 0.09,0.5 2.09,7.25 2.69,8.93 -3.9,-3.36 -7.75,-6.75 -11.41,-10.25 a 157.65,157.65 0 0 1 -14,-15 c 0.4,-0.27 11,-7.56 14,-12.56 2.59,-4.35 4.68,-10.6 2.67,-15.56 -2.01,-4.96 -7.58,-7.5 -12.4,-5 -6.7,3.55 -8.34,17.13 -7.16,23.79 0.1,0.53 2.26,7.78 2.74,9.07 -0.25,-0.31 -0.54,-0.6 -0.78,-0.91 a 115.53,115.53 0 0 1 -11,-17.33 c -1.79,-3.35 -3.31,-6.64 -4.71,-9.88 2.11,-1.15 11.7,-6.53 14.88,-10.74 3,-4 5.81,-10 4.35,-15.17 -1.46,-5.17 -6.7,-8.29 -11.78,-6.28 -7,2.79 -10.16,16.1 -9.72,22.86 0,0.37 0.68,4.08 1.2,6.77 -0.61,-1.47 -1.27,-3 -1.83,-4.4 C 72,184.59 70.4,179.58 69,175.13 c -0.77,-2.54 -1.42,-4.85 -2,-7 1.48,-2.22 7.33,-11.21 8.2,-16.32 0.87,-5.11 0.54,-11.57 -3.12,-15.47 -3.66,-3.9 -9.77,-4.27 -13.35,-0.15 -5,5.73 -1.6,19 1.9,24.78 0.3,0.5 5.94,7.78 6,7.67 l 0.09,-0.14 c 0.52,2.1 1.09,4.34 1.77,6.78 1.29,4.48 2.79,9.54 4.8,14.94 a 159.2,159.2 0 0 0 7.29,17.11 117.15,117.15 0 0 0 10.79,17.79 c 0,0.06 0.11,0.12 0.16,0.19 -1.8,-1.3 -7,-4.77 -7.39,-5 -6,-3.12 -19.45,-5.61 -24.84,-0.27 -3.88,3.84 -3,10 1,13.31 4,3.31 10.79,3.28 15.7,2.1 z"
           style="fill:#006642"
           id="path32" /><path
           d="m 183.62,154.26 c 0.14,0 -1,-9.11 -1.16,-9.68 -1.61,-6.57 -8.59,-18.33 -16.16,-18.87 -5.45,-0.39 -9.5,4.3 -9.34,9.54 0.16,5.24 4.6,10.22 8.72,13.15 4.84,3.44 17.93,5.86 17.94,5.86 z"
           style="fill:#006642"
           id="path34" /><path
           d="m 664.9,123.17 c -5,2.46 -17.55,2.74 -17.56,2.74 -0.01,0 2.33,-8.31 2.54,-8.82 2.49,-5.87 10.75,-15.74 17.86,-15.1 5.12,0.46 8.18,5.43 7.24,10.27 -0.94,4.84 -5.81,8.81 -10.08,10.91 z"
           style="fill:#006642"
           id="path36" /><path
           d="m 662.19,159.61 c -5.27,1 -16.58,-1.73 -17.48,-2 a 148.41,148.41 0 0 1 -5.94,19 c -1.37,3.62 -2.88,7.23 -4.42,10.83 0.95,-1.54 1.81,-2.9 1.95,-3.08 4,-5 14.53,-12.34 21.21,-9.85 4.82,1.8 6.45,7.4 4.27,11.82 -2.18,4.42 -7.93,7 -12.6,7.85 -4.67,0.85 -14.44,-1.23 -17,-1.83 -0.61,1.37 -1.2,2.75 -1.81,4.12 -3,6.59 -5.92,13.15 -8.63,19.67 -1,2.29 -1.82,4.59 -2.69,6.89 0.85,-1.37 1.57,-2.51 1.7,-2.67 4,-5 14.53,-12.34 21.21,-9.85 4.82,1.8 6.46,7.4 4.28,11.82 -2.18,4.42 -7.94,7 -12.61,7.85 -4.67,0.85 -13.49,-1 -16.53,-1.73 -0.82,2.38 -1.65,4.76 -2.33,7.1 -0.43,1.61 -1,3.13 -1.3,4.77 -0.3,1.64 -0.75,3.22 -1.11,4.8 -0.6,3.08 -1.23,6.26 -1.74,9.27 -0.36,2.1 -0.68,4.1 -1,6.12 0.92,-2.3 2.83,-6.76 3,-7.11 3.15,-5.54 12.49,-14.4 19.48,-12.94 5,1 7.5,6.33 6,11 -1.5,4.67 -6.79,8.08 -11.27,9.67 -4.94,1.76 -16.09,0.85 -17.48,0.73 -0.52,3.34 -1,6.6 -1.38,9.68 -0.36,2.75 -0.67,5.37 -0.95,7.87 l -4.47,0.2 c 0.36,-2.74 0.77,-5.61 1.23,-8.66 0.51,-3.4 1.13,-7 1.79,-10.73 a 89.45,89.45 0 0 1 -10,-4.15 c -3.47,4.12 -12.62,9.16 -13.8,9.8 1.41,3.07 2.81,6.05 4.18,8.83 q 1.41,2.88 2.75,5.52 l -4.73,0.21 c -0.6,-1.27 -1.21,-2.56 -1.84,-3.91 -1.44,-3.11 -2.93,-6.47 -4.42,-9.93 -1.33,0.34 -12.2,3.06 -17.37,2.13 -4.68,-0.84 -10.41,-3.21 -12.7,-7.7 -2.29,-4.49 -0.66,-10 4.14,-11.87 6.66,-2.57 17.32,4.64 21.32,9.6 0.24,0.29 2.45,3.75 3.81,5.95 -0.6,-1.42 -1.2,-2.79 -1.8,-4.25 -1.21,-2.89 -2.33,-5.82 -3.55,-8.95 L 570,247 c -0.57,-1.54 -1,-3.25 -1.49,-4.88 -1.09,-3.82 -2,-7.74 -2.85,-11.71 -2.53,1 -11.58,4.66 -16.37,4.54 -4.79,-0.12 -10.78,-1.6 -13.71,-5.7 -2.93,-4.1 -2.18,-9.8 2.28,-12.35 6.2,-3.55 17.82,2 22.54,6.25 0.29,0.27 3.32,3.73 5,5.66 -0.49,-2.39 -1,-4.78 -1.4,-7.21 -1.19,-7 -2.18,-14.18 -3.2,-21.31 -0.31,-2.19 -0.64,-4.36 -1,-6.54 -0.9,0.39 -11.57,4.91 -16.92,4.77 -4.76,-0.12 -10.79,-1.6 -13.72,-5.69 -2.93,-4.09 -2.17,-9.8 2.29,-12.36 6.19,-3.55 17.81,2 22.53,6.26 0.35,0.32 4.71,5.3 5.76,6.62 -0.73,-4.79 -1.49,-9.56 -2.44,-14.23 a 146.67,146.67 0 0 0 -5,-18.64 c -0.41,0.18 -11.53,4.95 -17,4.81 -4.76,-0.12 -10.79,-1.6 -13.72,-5.7 -2.93,-4.1 -2.17,-9.79 2.29,-12.35 6.19,-3.55 17.82,2 22.53,6.25 0.37,0.34 5.06,5.7 5.84,6.74 -0.12,-0.36 -0.21,-0.74 -0.34,-1.09 a 108.39,108.39 0 0 0 -8.25,-17.48 c -1.76,-3.1 -3.62,-6 -5.49,-8.71 -2,1.1 -11.08,6 -16,6.45 -4.74,0.4 -10.9,-0.41 -14.26,-4.15 -3.36,-3.74 -3.23,-9.5 0.92,-12.54 5.76,-4.21 17.92,0 23.08,3.75 0.28,0.2 2.9,2.59 4.78,4.35 -0.86,-1.23 -1.73,-2.51 -2.58,-3.66 -3.18,-4.36 -6.36,-8.16 -9.21,-11.5 -1.63,-1.88 -3.15,-3.55 -4.58,-5.1 -2.51,0.06 -12.61,0.21 -17.11,-1.66 -4.5,-1.87 -9.49,-5.38 -10.75,-10.26 -1.26,-4.88 1.51,-9.93 6.6,-10.7 7.05,-1.08 15.91,8.25 18.76,14 0.24,0.5 3.21,8.64 3.08,8.65 h -0.16 c 1.41,1.47 2.91,3.05 4.51,4.82 2.92,3.28 6.2,7 9.48,11.32 a 148.53,148.53 0 0 1 10,14.4 110.53,110.53 0 0 1 8.74,17.52 1.87,1.87 0 0 1 0.07,0.22 c -0.13,-2.08 -0.29,-7.93 -0.26,-8.38 0.54,-6.35 5.31,-18.31 12.26,-19.91 5,-1.16 9.47,2.6 10.09,7.5 0.62,4.9 -2.78,10.18 -6.19,13.5 -3.84,3.75 -14.78,7.71 -15.65,8 a 150.14,150.14 0 0 1 5.55,19.16 c 0.85,3.78 1.59,7.62 2.28,11.48 -0.05,-1.81 -0.09,-3.43 -0.07,-3.66 0.54,-6.35 5.31,-18.3 12.26,-19.91 5,-1.16 9.46,2.61 10.08,7.5 0.62,4.89 -2.77,10.18 -6.18,13.51 -3.41,3.33 -12.72,6.93 -15.18,7.84 0.25,1.48 0.51,3 0.76,4.45 1.17,7.11 2.31,14.22 3.65,21.15 0.46,2.45 1,4.84 1.56,7.23 -0.05,-1.6 -0.07,-3 -0.06,-3.16 0.54,-6.35 5.31,-18.31 12.26,-19.91 5,-1.16 9.46,2.6 10.09,7.5 0.63,4.9 -2.78,10.18 -6.19,13.5 -3.41,3.32 -11.82,6.58 -14.74,7.68 0.63,2.43 1.26,4.87 2,7.2 0.52,1.58 0.92,3.14 1.54,4.7 l 1.72,4.62 c 1.2,2.89 2.43,5.89 3.67,8.69 0.85,1.95 1.7,3.79 2.54,5.65 -0.49,-2.43 -1.36,-7.2 -1.39,-7.61 a 32.79,32.79 0 0 1 3.66,-16.18 9.73,9.73 0 0 1 0,-1.87 c 0.56,-4.9 5,-8.72 10,-7.62 7,1.53 11.88,13.42 12.49,19.77 0,0.37 0,4.47 -0.11,7.06 0.28,-1.51 0.53,-3 0.84,-4.54 0.58,-3.08 1.26,-6.13 2,-9.42 0.41,-1.58 0.81,-3.17 1.22,-4.78 0.41,-1.61 1,-3.25 1.45,-4.89 1.2,-3.79 2.59,-7.57 4.09,-11.34 -2.7,-0.53 -12.24,-2.51 -16.16,-5.25 -3.92,-2.74 -8.12,-7.28 -8.31,-12.32 -0.19,-5.04 3.6,-9.37 8.73,-9 7.12,0.45 13.78,11.47 15.34,17.65 0.1,0.38 0.72,4.94 1,7.45 0.91,-2.26 1.81,-4.52 2.81,-6.78 2.89,-6.52 6,-13 9.09,-19.54 0.95,-2 1.87,-4 2.79,-6 -1,-0.18 -12.35,-2.29 -16.74,-5.36 -3.9,-2.72 -8.12,-7.28 -8.3,-12.31 -0.18,-5.03 3.59,-9.37 8.72,-9.05 7.12,0.46 13.78,11.47 15.34,17.65 0.12,0.47 1,7 1.15,8.71 2,-4.4 4,-8.8 5.83,-13.22 A 149.94,149.94 0 0 0 643,157.67 c -0.45,-0.08 -12.35,-2.23 -16.84,-5.37 -3.91,-2.73 -8.12,-7.29 -8.31,-12.32 -0.19,-5.03 3.6,-9.37 8.73,-9 7.12,0.46 13.78,11.47 15.34,17.65 0.12,0.49 1.08,7.55 1.16,8.84 0.09,-0.36 0.23,-0.73 0.32,-1.09 a 109.21,109.21 0 0 0 2.76,-19.13 c 0.24,-3.56 0.27,-7 0.22,-10.3 -2.26,-0.17 -12.57,-1.08 -16.92,-3.46 -4.18,-2.28 -8.87,-6.35 -9.61,-11.33 -0.74,-4.98 2.55,-9.71 7.68,-10 7.13,-0.33 15,9.89 17.19,15.86 0.12,0.32 1,3.76 1.59,6.27 -0.05,-1.5 -0.06,-3.05 -0.13,-4.48 -0.26,-5.39 -0.82,-10.32 -1.35,-14.67 -0.32,-2.47 -0.66,-4.7 -1,-6.79 -2.13,-1.32 -10.63,-6.78 -13.36,-10.82 -2.73,-4.04 -4.94,-9.72 -3.3,-14.48 1.64,-4.76 6.73,-7.45 11.4,-5.3 6.48,3 8.72,15.67 7.95,22 -0.07,0.54 -2.09,9 -2.2,8.91 l -0.13,-0.08 c 0.37,2 0.74,4.14 1.1,6.49 0.63,4.36 1.3,9.28 1.67,14.68 a 151,151 0 0 1 0.36,17.5 110.4,110.4 0 0 1 -2.32,19.44 l -0.06,0.23 c 1,-1.82 4.13,-6.79 4.41,-7.14 3.95,-5 14.52,-12.34 21.21,-9.85 4.81,1.8 6.45,7.4 4.27,11.82 -2.18,4.42 -7.96,6.96 -12.64,7.86 z"
           style="fill:#006642"
           id="path38" /><path
           d="m 538.45,131.57 c -0.11,0.07 -2.65,-8.22 -2.75,-8.76 -1.16,-6.27 0.29,-19 6.57,-22.44 4.52,-2.44 9.81,0 11.7,4.57 1.89,4.57 0,10.55 -2.39,14.66 -2.83,4.82 -13.12,11.96 -13.13,11.97 z"
           style="fill:#006642"
           id="path40" /><path
           d="m 699.78,388.93 c -2,0.71 -6.63,0.31 -6.64,0.31 -0.01,0 1.2,-3 1.31,-3.18 1.16,-2.08 4.63,-5.42 7.25,-4.89 a 3.17,3.17 0 0 1 2.28,4.12 c -0.56,1.8 -2.52,3.03 -4.2,3.64 z"
           style="fill:#006642"
           id="path42" /><path
           d="m 697.3,402.37 c -2,0.16 -6.1,-1.32 -6.43,-1.43 a 55.8,55.8 0 0 1 -3,6.84 c -0.66,1.29 -1.36,2.57 -2.09,3.84 0.42,-0.53 0.8,-1 0.86,-1.06 1.67,-1.7 5.9,-4 8.28,-2.8 a 3.16,3.16 0 0 1 1.11,4.57 c -1,1.59 -3.23,2.26 -5,2.4 -1.77,0.14 -5.32,-1 -6.25,-1.37 l -0.84,1.46 c -1.37,2.33 -2.74,4.65 -4,7 -0.45,0.82 -0.86,1.64 -1.28,2.46 0.37,-0.48 0.69,-0.87 0.74,-0.93 1.67,-1.7 5.9,-4 8.29,-2.8 a 3.16,3.16 0 0 1 1.11,4.57 c -1,1.59 -3.23,2.27 -5,2.41 -1.77,0.14 -5,-0.93 -6.08,-1.32 -0.4,0.86 -0.8,1.71 -1.15,2.55 -0.23,0.58 -0.49,1.12 -0.68,1.72 -0.19,0.6 -0.41,1.17 -0.61,1.74 -0.34,1.12 -0.71,2.28 -1,3.38 -0.22,0.76 -0.42,1.5 -0.62,2.23 0.44,-0.81 1.33,-2.4 1.42,-2.52 1.4,-1.93 5.23,-4.84 7.77,-4 a 3.16,3.16 0 0 1 1.79,4.35 c -0.76,1.72 -2.86,2.73 -4.59,3.14 -1.91,0.45 -6,-0.34 -6.53,-0.44 -0.33,1.22 -0.63,2.41 -0.9,3.54 -0.27,1.13 -0.47,2 -0.68,2.89 l -1.67,-0.11 c 0.25,-1 0.51,-2.06 0.81,-3.17 0.3,-1.11 0.71,-2.56 1.1,-3.92 a 34.66,34.66 0 0 1 -3.53,-1.94 c -1.46,1.39 -5.06,2.89 -5.53,3.08 0.4,1.2 0.8,2.36 1.2,3.45 0.27,0.76 0.54,1.48 0.8,2.17 l -1.77,-0.12 c -0.17,-0.49 -0.35,-1 -0.53,-1.53 -0.41,-1.21 -0.82,-2.52 -1.24,-3.87 -0.51,0.07 -4.66,0.64 -6.54,0.09 -1.71,-0.5 -3.75,-1.62 -4.41,-3.38 a 3.16,3.16 0 0 1 2,-4.25 c 2.58,-0.68 6.25,2.43 7.54,4.44 0.07,0.11 0.76,1.49 1.17,2.37 -0.16,-0.56 -0.33,-1.09 -0.5,-1.66 -0.33,-1.12 -0.63,-2.26 -1,-3.47 l -0.42,-1.8 c -0.15,-0.6 -0.23,-1.25 -0.35,-1.88 -0.25,-1.46 -0.44,-3 -0.59,-4.47 -1,0.29 -4.5,1.27 -6.27,1 -1.77,-0.27 -3.94,-1 -4.87,-2.68 a 3.16,3.16 0 0 1 1.36,-4.5 c 2.44,-1.07 6.54,1.46 8.12,3.24 0.1,0.11 1.09,1.52 1.61,2.31 -0.08,-0.91 -0.17,-1.82 -0.22,-2.74 -0.16,-2.66 -0.24,-5.36 -0.33,-8.06 0,-0.82 -0.06,-1.64 -0.09,-2.47 -0.35,0.11 -4.5,1.36 -6.49,1.09 -1.76,-0.24 -3.94,-1 -4.87,-2.67 a 3.17,3.17 0 0 1 1.35,-4.51 c 2.45,-1.07 6.55,1.46 8.13,3.25 0.12,0.13 1.54,2.16 1.87,2.69 -0.07,-1.81 -0.16,-3.61 -0.32,-5.39 a 55.84,55.84 0 0 0 -1.09,-7.13 c -0.16,0 -4.49,1.37 -6.52,1.09 -1.77,-0.23 -3.95,-1 -4.87,-2.67 a 3.15,3.15 0 0 1 1.35,-4.5 c 2.45,-1.07 6.55,1.45 8.13,3.24 0.12,0.14 1.65,2.32 1.89,2.74 0,-0.14 0,-0.28 -0.08,-0.42 a 40.31,40.31 0 0 0 -2.35,-6.83 c -0.53,-1.23 -1.11,-2.37 -1.69,-3.47 -0.78,0.33 -4.37,1.8 -6.23,1.75 -1.86,-0.05 -4,-0.59 -5.13,-2.12 a 3.16,3.16 0 0 1 0.85,-4.63 c 2.32,-1.33 6.67,0.73 8.43,2.33 0.1,0.09 1,1.09 1.6,1.82 -0.27,-0.49 -0.54,-1 -0.81,-1.47 -1,-1.75 -2,-3.29 -3,-4.65 -0.53,-0.76 -1,-1.45 -1.49,-2.08 -0.94,-0.08 -4.7,-0.44 -6.3,-1.32 -1.6,-0.88 -3.3,-2.38 -3.58,-4.25 a 3.17,3.17 0 0 1 2.89,-3.71 c 2.67,-0.11 5.58,3.72 6.41,5.95 0.07,0.2 0.84,3.35 0.79,3.34 v 0 c 0.46,0.6 0.95,1.25 1.48,2 1,1.34 2,2.86 3.06,4.6 a 54,54 0 0 1 3.12,5.76 40.68,40.68 0 0 1 2.54,6.87 c 0,0 0,0.06 0,0.08 0,-0.78 0.21,-3 0.24,-3.12 0.46,-2.34 2.72,-6.59 5.37,-6.91 a 3.16,3.16 0 0 1 3.45,3.2 c 0,1.88 -1.45,3.67 -2.85,4.77 -1.58,1.24 -5.82,2.26 -6.15,2.35 a 55.36,55.36 0 0 1 1.28,7.34 c 0.17,1.45 0.29,2.9 0.39,4.37 0.05,-0.68 0.1,-1.28 0.12,-1.36 0.46,-2.34 2.72,-6.6 5.37,-6.91 a 3.15,3.15 0 0 1 3.44,3.2 c 0,1.88 -1.44,3.67 -2.85,4.77 -1.41,1.1 -5,2.06 -6,2.3 0,0.56 0.07,1.12 0.1,1.68 0.15,2.7 0.28,5.39 0.5,8 0.07,0.93 0.18,1.84 0.28,2.75 0.05,-0.6 0.1,-1.1 0.11,-1.18 0.46,-2.34 2.72,-6.59 5.37,-6.91 a 3.17,3.17 0 0 1 3.45,3.2 c 0,1.89 -1.45,3.68 -2.85,4.77 -1.4,1.09 -4.67,2 -5.8,2.26 0.14,0.93 0.27,1.86 0.45,2.76 0.13,0.61 0.21,1.2 0.38,1.81 l 0.45,1.79 c 0.33,1.12 0.66,2.29 1,3.38 0.24,0.76 0.48,1.48 0.72,2.2 -0.09,-0.92 -0.22,-2.73 -0.21,-2.88 a 12.22,12.22 0 0 1 2,-5.85 3.27,3.27 0 0 1 0.08,-0.7 3.16,3.16 0 0 1 4,-2.42 c 2.53,0.85 3.87,5.47 3.84,7.85 0,0.15 -0.19,1.67 -0.33,2.63 0.17,-0.55 0.32,-1.09 0.5,-1.66 0.35,-1.12 0.72,-2.23 1.12,-3.42 0.21,-0.57 0.43,-1.15 0.65,-1.73 0.22,-0.58 0.49,-1.17 0.74,-1.76 0.59,-1.36 1.27,-2.71 2,-4.05 -1,-0.3 -4.44,-1.43 -5.79,-2.61 -1.35,-1.18 -2.72,-3 -2.59,-4.92 a 3.15,3.15 0 0 1 3.61,-3 c 2.64,0.45 4.66,4.82 5,7.18 0,0.15 0.07,1.87 0.08,2.82 0.43,-0.81 0.86,-1.61 1.32,-2.41 1.34,-2.31 2.76,-4.61 4.17,-6.9 0.44,-0.7 0.86,-1.41 1.29,-2.11 -0.35,-0.11 -4.51,-1.36 -6,-2.68 -1.34,-1.17 -2.73,-3 -2.59,-4.91 a 3.16,3.16 0 0 1 3.61,-3 c 2.63,0.46 4.66,4.82 5,7.18 0,0.18 0.09,2.66 0.07,3.29 0.94,-1.55 1.86,-3.11 2.71,-4.68 a 56.56,56.56 0 0 0 3,-6.55 c -0.16,-0.05 -4.5,-1.33 -6,-2.68 -1.34,-1.17 -2.72,-3 -2.58,-4.92 a 3.15,3.15 0 0 1 3.61,-3 c 2.63,0.46 4.66,4.83 5,7.19 0,0.18 0.09,2.85 0.07,3.33 l 0.16,-0.39 a 40.3,40.3 0 0 0 1.8,-7 c 0.24,-1.32 0.39,-2.58 0.51,-3.82 -0.84,-0.16 -4.63,-0.92 -6.16,-2 -1.53,-1.08 -3,-2.72 -3.11,-4.6 a 3.16,3.16 0 0 1 3.26,-3.39 c 2.67,0.17 5.16,4.29 5.75,6.6 0,0.12 0.21,1.43 0.33,2.39 0,-0.56 0.11,-1.13 0.14,-1.67 0.12,-2 0.11,-3.87 0.09,-5.51 0,-0.93 0,-1.77 -0.09,-2.56 -0.74,-0.58 -3.68,-3 -4.53,-4.57 -0.85,-1.57 -1.44,-3.82 -0.64,-5.52 a 3.15,3.15 0 0 1 4.45,-1.5 c 2.29,1.37 2.61,6.18 2.07,8.5 -0.05,0.2 -1.14,3.25 -1.18,3.22 v 0 q 0.09,1.13 0.15,2.46 c 0,1.64 0.1,3.5 0,5.52 a 56.35,56.35 0 0 1 -0.58,6.53 40.69,40.69 0 0 1 -1.67,7.13 v 0.08 c 0.46,-0.63 1.81,-2.36 1.93,-2.48 1.67,-1.7 5.9,-4 8.28,-2.8 a 3.16,3.16 0 0 1 1.13,4.54 c -1.01,1.55 -3.23,2.23 -5,2.37 z"
           style="fill:#006642"
           id="path44" /><path
           d="m 652.42,386.91 c 0,0 -0.65,-3.16 -0.67,-3.36 -0.17,-2.38 0.88,-7.08 3.36,-8.08 a 3.15,3.15 0 0 1 4.16,2.17 c 0.53,1.81 -0.42,3.93 -1.48,5.36 -1.25,1.68 -5.37,3.91 -5.37,3.91 z"
           style="fill:#006642"
           id="path46" /><path
           d="m 512.25,410.19 a 14.1,14.1 0 0 0 4.17,0.19 c 0,0 -0.75,-1.88 -0.82,-2 -0.73,-1.31 -2.91,-3.4 -4.55,-3.07 a 2,2 0 0 0 -1.43,2.58 4.15,4.15 0 0 0 2.63,2.3 z"
           style="fill:#006642"
           id="path48" /><path
           d="m 513.81,418.62 a 13.76,13.76 0 0 0 4,-0.9 32.8,32.8 0 0 0 1.87,4.29 c 0.41,0.82 0.85,1.62 1.31,2.42 l -0.54,-0.67 c -1,-1.07 -3.7,-2.51 -5.2,-1.76 a 2,2 0 0 0 -0.7,2.87 4.15,4.15 0 0 0 3.15,1.51 13.11,13.11 0 0 0 3.92,-0.86 l 0.52,0.92 c 0.86,1.46 1.72,2.91 2.52,4.36 0.28,0.52 0.54,1 0.8,1.54 L 525,431.76 c -1,-1.06 -3.71,-2.5 -5.2,-1.75 a 2,2 0 0 0 -0.7,2.87 4.18,4.18 0 0 0 3.14,1.51 12.91,12.91 0 0 0 3.82,-0.83 c 0.25,0.54 0.5,1.07 0.72,1.6 0.14,0.36 0.31,0.7 0.43,1.08 0.12,0.38 0.25,0.73 0.38,1.09 0.22,0.7 0.45,1.43 0.64,2.12 0.14,0.48 0.26,0.94 0.39,1.4 -0.28,-0.51 -0.84,-1.5 -0.89,-1.58 -0.88,-1.21 -3.28,-3 -4.88,-2.52 a 2,2 0 0 0 -1.12,2.72 4.11,4.11 0 0 0 2.88,2 13.6,13.6 0 0 0 4.1,-0.27 c 0.2,0.76 0.4,1.51 0.57,2.22 l 0.42,1.81 1,-0.06 -0.51,-2 c -0.21,-0.78 -0.44,-1.61 -0.69,-2.46 a 21.25,21.25 0 0 0 2.21,-1.22 14.67,14.67 0 0 0 3.47,1.93 c -0.25,0.76 -0.5,1.49 -0.75,2.17 -0.17,0.47 -0.33,0.92 -0.5,1.36 l 1.11,-0.07 c 0.11,-0.32 0.22,-0.63 0.33,-1 0.26,-0.77 0.52,-1.59 0.78,-2.43 a 13.79,13.79 0 0 0 4.11,0 4.09,4.09 0 0 0 2.76,-2.12 2,2 0 0 0 -1.26,-2.67 c -1.62,-0.43 -3.93,1.53 -4.74,2.79 0,0.07 -0.47,0.94 -0.73,1.48 0.1,-0.34 0.21,-0.68 0.31,-1 0.21,-0.71 0.4,-1.42 0.6,-2.18 0.09,-0.38 0.17,-0.75 0.26,-1.13 0.09,-0.38 0.15,-0.78 0.22,-1.18 0.16,-0.92 0.28,-1.86 0.37,-2.8 a 13.07,13.07 0 0 0 3.94,0.64 4.15,4.15 0 0 0 3,-1.68 2,2 0 0 0 -0.85,-2.83 c -1.53,-0.67 -4.1,0.92 -5.1,2 -0.06,0.07 -0.68,0.95 -1,1.44 0.05,-0.57 0.11,-1.13 0.14,-1.71 0.1,-1.67 0.15,-3.37 0.21,-5.06 0,-0.52 0,-1 0.06,-1.55 a 13.61,13.61 0 0 0 4.07,0.68 4.15,4.15 0 0 0 3.18,-1.57 2,2 0 0 0 -0.85,-2.82 c -1.53,-0.67 -4.1,0.91 -5.09,2 -0.08,0.09 -1,1.36 -1.18,1.7 0,-1.14 0.1,-2.27 0.21,-3.39 a 32.06,32.06 0 0 1 0.68,-4.47 13.79,13.79 0 0 0 4.09,0.68 4.14,4.14 0 0 0 3.06,-1.67 2,2 0 0 0 -0.85,-2.83 c -1.54,-0.67 -4.11,0.91 -5.1,2 -0.08,0.08 -1,1.45 -1.19,1.72 0,-0.09 0,-0.18 0,-0.27 A 24.87,24.87 0 0 1 541,411.4 c 0.33,-0.77 0.69,-1.48 1.06,-2.17 a 13.18,13.18 0 0 0 3.9,1.1 4.15,4.15 0 0 0 3.22,-1.34 2,2 0 0 0 -0.53,-2.9 c -1.45,-0.83 -4.18,0.46 -5.29,1.47 -0.06,0.05 -0.61,0.67 -1,1.13 0.17,-0.31 0.34,-0.63 0.51,-0.92 0.63,-1.1 1.28,-2.06 1.86,-2.92 0.33,-0.48 0.64,-0.91 0.94,-1.3 a 13.43,13.43 0 0 0 4,-0.83 4.14,4.14 0 0 0 2.24,-2.67 2,2 0 0 0 -1.81,-2.33 c -1.67,-0.07 -3.5,2.34 -4,3.74 0,0.12 -0.53,2.1 -0.5,2.1 v 0 l -0.93,1.24 c -0.6,0.84 -1.27,1.8 -1.92,2.89 a 32.69,32.69 0 0 0 -2,3.61 25.79,25.79 0 0 0 -1.59,4.31 v 0.06 c 0,-0.49 -0.13,-1.86 -0.15,-2 -0.29,-1.46 -1.7,-4.13 -3.37,-4.33 a 2,2 0 0 0 -2.16,2 4.15,4.15 0 0 0 1.79,3 13.68,13.68 0 0 0 3.86,1.47 35.61,35.61 0 0 0 -0.81,4.62 q -0.15,1.35 -0.24,2.73 c 0,-0.42 -0.07,-0.8 -0.08,-0.85 -0.28,-1.47 -1.7,-4.14 -3.37,-4.34 a 2,2 0 0 0 -2.16,2 4.16,4.16 0 0 0 1.79,3 13.07,13.07 0 0 0 3.74,1.44 l -0.06,1.06 c -0.09,1.69 -0.18,3.37 -0.31,5 0,0.58 -0.12,1.15 -0.18,1.72 0,-0.37 -0.06,-0.69 -0.07,-0.74 -0.29,-1.47 -1.71,-4.13 -3.37,-4.33 a 2,2 0 0 0 -2.16,2 4.15,4.15 0 0 0 1.79,3 12.53,12.53 0 0 0 3.63,1.42 c -0.08,0.58 -0.17,1.17 -0.28,1.73 -0.08,0.38 -0.13,0.75 -0.24,1.13 -0.11,0.38 -0.19,0.76 -0.28,1.13 -0.21,0.7 -0.42,1.43 -0.63,2.12 l -0.45,1.38 c 0,-0.58 0.13,-1.72 0.13,-1.81 a 7.74,7.74 0 0 0 -1.27,-3.67 3.32,3.32 0 0 0 -0.06,-0.44 2,2 0 0 0 -2.53,-1.52 c -1.59,0.53 -2.43,3.44 -2.41,4.93 0,0.09 0.12,1.05 0.21,1.65 -0.11,-0.35 -0.2,-0.69 -0.31,-1 -0.22,-0.7 -0.46,-1.4 -0.71,-2.15 L 528,436 c -0.13,-0.37 -0.31,-0.74 -0.47,-1.11 -0.37,-0.85 -0.79,-1.7 -1.24,-2.54 a 13,13 0 0 0 3.64,-1.64 4.1,4.1 0 0 0 1.62,-3.08 2,2 0 0 0 -2.26,-1.89 c -1.65,0.29 -2.93,3 -3.13,4.51 0,0.09 -0.05,1.17 -0.05,1.76 -0.27,-0.5 -0.54,-1 -0.83,-1.51 -0.84,-1.45 -1.73,-2.89 -2.62,-4.33 l -0.81,-1.32 a 14,14 0 0 0 3.78,-1.68 4.16,4.16 0 0 0 1.62,-3.09 2,2 0 0 0 -2.27,-1.88 c -1.65,0.28 -2.92,3 -3.13,4.51 0,0.11 0,1.66 0,2.06 -0.59,-1 -1.17,-2 -1.7,-2.94 a 34.37,34.37 0 0 1 -1.9,-4.11 13.91,13.91 0 0 0 3.75,-1.72 4.14,4.14 0 0 0 1.62,-3.09 2,2 0 0 0 -2.26,-1.89 c -1.65,0.29 -2.92,3 -3.13,4.51 0,0.12 -0.06,1.79 0,2.1 0,-0.09 -0.07,-0.17 -0.1,-0.25 A 25.9,25.9 0 0 1 517,413 c -0.15,-0.82 -0.24,-1.62 -0.32,-2.39 a 13.61,13.61 0 0 0 3.87,-1.24 4.18,4.18 0 0 0 2,-2.89 2,2 0 0 0 -2.05,-2.13 c -1.67,0.11 -3.24,2.69 -3.6,4.14 0,0.08 -0.14,0.9 -0.22,1.51 0,-0.35 -0.06,-0.72 -0.08,-1.05 -0.08,-1.27 -0.07,-2.43 -0.06,-3.46 0,-0.59 0,-1.12 0.06,-1.61 a 13.07,13.07 0 0 0 2.84,-2.87 4.11,4.11 0 0 0 0.4,-3.46 2,2 0 0 0 -2.79,-0.94 c -1.44,0.86 -1.64,3.87 -1.3,5.33 0,0.13 0.72,2 0.74,2 v 0 c 0,0.48 -0.06,1 -0.09,1.55 0,1 -0.06,2.19 0,3.46 a 34.51,34.51 0 0 0 0.36,4.1 25.29,25.29 0 0 0 1,4.47 c 0,0 0,0 0,0.05 -0.29,-0.39 -1.14,-1.47 -1.21,-1.55 -1.05,-1.06 -3.71,-2.51 -5.2,-1.76 a 2,2 0 0 0 -0.7,2.87 4.14,4.14 0 0 0 3.16,1.49 z"
           style="fill:#006642"
           id="path50" /><path
           d="m 542,408.92 c 0,0 0.41,-2 0.42,-2.11 0.11,-1.49 -0.56,-4.44 -2.11,-5.07 a 2,2 0 0 0 -2.61,1.37 4.08,4.08 0 0 0 0.93,3.35 14,14 0 0 0 3.37,2.46 z"
           style="fill:#006642"
           id="path52" /><path
           d="m 315.4,388.93 c -2,0.71 -6.64,0.31 -6.64,0.31 0,0 1.2,-3 1.3,-3.18 1.17,-2.08 4.64,-5.42 7.26,-4.89 a 3.16,3.16 0 0 1 2.27,4.12 c -0.59,1.8 -2.52,3.03 -4.19,3.64 z"
           style="fill:#006642"
           id="path54" /><path
           d="m 312.91,402.37 c -2,0.16 -6.09,-1.32 -6.42,-1.43 a 55.8,55.8 0 0 1 -3,6.84 c -0.66,1.29 -1.37,2.57 -2.09,3.84 l 0.85,-1.06 c 1.68,-1.7 5.91,-4 8.29,-2.8 a 3.16,3.16 0 0 1 1.11,4.57 c -1,1.59 -3.23,2.26 -5,2.4 -1.77,0.14 -5.31,-1 -6.24,-1.37 l -0.84,1.46 c -1.37,2.33 -2.74,4.65 -4,7 -0.45,0.82 -0.86,1.64 -1.28,2.46 0.37,-0.48 0.69,-0.87 0.74,-0.93 1.67,-1.7 5.9,-4 8.29,-2.8 a 3.16,3.16 0 0 1 1.11,4.57 c -1,1.59 -3.24,2.27 -5,2.41 -1.76,0.14 -5,-0.93 -6.08,-1.32 -0.4,0.86 -0.8,1.71 -1.15,2.55 -0.23,0.58 -0.49,1.12 -0.68,1.72 l -0.61,1.74 c -0.35,1.12 -0.71,2.28 -1,3.38 -0.22,0.76 -0.42,1.5 -0.62,2.23 0.44,-0.81 1.33,-2.4 1.42,-2.52 1.39,-1.93 5.23,-4.84 7.77,-4 a 3.15,3.15 0 0 1 1.78,4.35 c -0.76,1.72 -2.85,2.73 -4.58,3.14 -1.91,0.45 -6,-0.34 -6.53,-0.44 -0.33,1.22 -0.63,2.41 -0.91,3.54 -0.28,1.13 -0.46,2 -0.67,2.89 l -1.67,-0.11 c 0.25,-1 0.51,-2.06 0.81,-3.17 0.3,-1.11 0.7,-2.56 1.1,-3.92 a 34.66,34.66 0 0 1 -3.53,-1.94 c -1.46,1.39 -5.06,2.89 -5.53,3.08 0.4,1.2 0.8,2.36 1.2,3.45 0.27,0.76 0.53,1.48 0.79,2.17 l -1.76,-0.12 c -0.18,-0.49 -0.35,-1 -0.53,-1.53 -0.41,-1.21 -0.83,-2.52 -1.24,-3.87 -0.51,0.07 -4.66,0.64 -6.54,0.09 -1.71,-0.5 -3.75,-1.62 -4.41,-3.38 a 3.16,3.16 0 0 1 2,-4.25 c 2.58,-0.68 6.25,2.43 7.54,4.44 0.07,0.11 0.75,1.49 1.17,2.37 l -0.5,-1.66 c -0.33,-1.12 -0.63,-2.26 -0.95,-3.47 l -0.42,-1.8 c -0.15,-0.6 -0.23,-1.25 -0.35,-1.88 -0.26,-1.46 -0.44,-3 -0.59,-4.47 -1,0.29 -4.5,1.27 -6.27,1 -1.77,-0.27 -3.95,-1 -4.87,-2.68 a 3.15,3.15 0 0 1 1.35,-4.5 c 2.45,-1.07 6.55,1.46 8.13,3.24 0.1,0.11 1.08,1.52 1.61,2.31 -0.08,-0.91 -0.17,-1.82 -0.22,-2.74 -0.16,-2.66 -0.24,-5.36 -0.33,-8.06 0,-0.82 -0.06,-1.64 -0.09,-2.47 -0.35,0.11 -4.5,1.36 -6.49,1.09 -1.76,-0.24 -4,-1 -4.87,-2.67 a 3.16,3.16 0 0 1 1.35,-4.51 c 2.45,-1.07 6.55,1.46 8.13,3.25 0.12,0.13 1.53,2.16 1.87,2.69 -0.07,-1.81 -0.16,-3.61 -0.33,-5.39 a 55.84,55.84 0 0 0 -1.08,-7.13 c -0.16,0 -4.49,1.37 -6.52,1.09 -1.77,-0.23 -3.95,-1 -4.87,-2.67 a 3.15,3.15 0 0 1 1.35,-4.5 c 2.45,-1.07 6.55,1.45 8.12,3.24 0.13,0.14 1.65,2.32 1.9,2.74 0,-0.14 0,-0.28 -0.08,-0.42 a 40.32,40.32 0 0 0 -2.36,-6.83 c -0.53,-1.23 -1.1,-2.37 -1.68,-3.47 -0.79,0.33 -4.37,1.8 -6.23,1.75 -1.86,-0.05 -4,-0.59 -5.13,-2.12 a 3.16,3.16 0 0 1 0.85,-4.63 c 2.31,-1.33 6.67,0.73 8.43,2.33 0.1,0.09 1,1.09 1.6,1.82 -0.27,-0.49 -0.54,-1 -0.81,-1.47 -1,-1.75 -2,-3.29 -3,-4.65 -0.53,-0.76 -1,-1.45 -1.49,-2.08 -0.94,-0.08 -4.7,-0.44 -6.3,-1.32 -1.6,-0.88 -3.31,-2.38 -3.58,-4.25 a 3.17,3.17 0 0 1 2.89,-3.71 c 2.67,-0.11 5.58,3.72 6.41,5.95 0.07,0.2 0.84,3.35 0.79,3.34 h -0.05 c 0.46,0.6 0.95,1.25 1.47,2 1,1.34 2,2.86 3.07,4.6 a 55.83,55.83 0 0 1 3.12,5.76 41.56,41.56 0 0 1 2.54,6.87 0.19,0.19 0 0 0 0,0.08 c 0,-0.78 0.21,-3 0.24,-3.12 0.46,-2.34 2.72,-6.59 5.37,-6.91 a 3.15,3.15 0 0 1 3.44,3.2 c 0,1.88 -1.44,3.67 -2.85,4.77 -1.58,1.24 -5.81,2.26 -6.14,2.35 a 55.36,55.36 0 0 1 1.28,7.34 c 0.17,1.45 0.28,2.9 0.38,4.37 0.06,-0.68 0.11,-1.28 0.13,-1.36 0.46,-2.34 2.71,-6.6 5.37,-6.91 a 3.15,3.15 0 0 1 3.44,3.2 c 0,1.88 -1.45,3.67 -2.85,4.77 -1.4,1.1 -5,2.06 -6,2.3 0,0.56 0.07,1.12 0.1,1.68 0.15,2.7 0.28,5.39 0.5,8 0.07,0.93 0.18,1.84 0.28,2.75 0.05,-0.6 0.1,-1.1 0.11,-1.18 0.46,-2.34 2.72,-6.59 5.37,-6.91 a 3.16,3.16 0 0 1 3.44,3.2 c 0,1.89 -1.44,3.68 -2.84,4.77 -1.4,1.09 -4.67,2 -5.8,2.26 0.14,0.93 0.27,1.86 0.44,2.76 0.14,0.61 0.22,1.2 0.39,1.81 l 0.45,1.79 c 0.33,1.12 0.66,2.29 1,3.38 0.24,0.76 0.48,1.48 0.72,2.2 -0.09,-0.92 -0.22,-2.73 -0.21,-2.88 a 12.2,12.2 0 0 1 2,-5.85 4.06,4.06 0 0 1 0.09,-0.7 3.16,3.16 0 0 1 4,-2.42 c 2.53,0.85 3.87,5.47 3.84,7.85 0,0.15 -0.19,1.67 -0.33,2.63 0.17,-0.55 0.32,-1.09 0.5,-1.66 0.34,-1.12 0.72,-2.23 1.12,-3.42 0.21,-0.57 0.43,-1.15 0.65,-1.73 0.22,-0.58 0.49,-1.17 0.73,-1.76 0.6,-1.36 1.28,-2.71 2,-4.05 -1,-0.3 -4.45,-1.43 -5.79,-2.61 -1.34,-1.18 -2.72,-3 -2.59,-4.92 a 3.15,3.15 0 0 1 3.61,-3 c 2.63,0.45 4.66,4.82 5,7.18 0,0.15 0.07,1.87 0.08,2.82 0.43,-0.81 0.86,-1.61 1.32,-2.41 1.34,-2.31 2.76,-4.61 4.17,-6.9 0.44,-0.7 0.86,-1.41 1.28,-2.11 -0.35,-0.11 -4.5,-1.36 -6,-2.68 -1.34,-1.17 -2.72,-3 -2.58,-4.91 a 3.16,3.16 0 0 1 3.61,-3 c 2.63,0.46 4.66,4.82 5,7.18 0,0.18 0.09,2.66 0.07,3.29 0.94,-1.55 1.86,-3.11 2.7,-4.68 a 55,55 0 0 0 3,-6.55 c -0.17,-0.05 -4.51,-1.33 -6.05,-2.68 -1.34,-1.17 -2.72,-3 -2.59,-4.92 a 3.17,3.17 0 0 1 3.62,-3 c 2.63,0.46 4.65,4.83 5,7.19 0,0.18 0.1,2.85 0.07,3.33 0.05,-0.13 0.12,-0.26 0.17,-0.39 a 41.22,41.22 0 0 0 1.8,-7 c 0.24,-1.32 0.39,-2.58 0.5,-3.82 -0.83,-0.16 -4.63,-0.92 -6.15,-2 -1.52,-1.08 -3,-2.72 -3.11,-4.6 a 3.16,3.16 0 0 1 3.26,-3.39 c 2.66,0.17 5.16,4.29 5.75,6.6 0,0.12 0.21,1.43 0.33,2.39 0.05,-0.56 0.1,-1.13 0.14,-1.67 0.12,-2 0.11,-3.87 0.09,-5.51 0,-0.93 -0.05,-1.77 -0.1,-2.56 -0.73,-0.58 -3.67,-3 -4.52,-4.57 -0.85,-1.57 -1.44,-3.82 -0.64,-5.52 a 3.15,3.15 0 0 1 4.45,-1.5 c 2.29,1.37 2.61,6.18 2.06,8.5 0,0.2 -1.14,3.25 -1.18,3.22 v 0 c 0.06,0.75 0.11,1.57 0.14,2.46 0.06,1.64 0.11,3.5 0,5.52 a 56.35,56.35 0 0 1 -0.58,6.53 40.69,40.69 0 0 1 -1.67,7.13 0.19,0.19 0 0 0 0,0.08 c 0.46,-0.63 1.81,-2.36 1.93,-2.48 1.67,-1.7 5.9,-4 8.28,-2.8 a 3.16,3.16 0 0 1 1.11,4.57 c -0.93,1.52 -3.15,2.2 -4.93,2.34 z"
           style="fill:#006642"
           id="path56" /><path
           d="m 268,386.91 c -0.05,0 -0.66,-3.16 -0.67,-3.36 -0.18,-2.38 0.88,-7.08 3.35,-8.08 a 3.15,3.15 0 0 1 4.17,2.17 c 0.53,1.81 -0.42,3.93 -1.49,5.36 -1.2,1.68 -5.36,3.91 -5.36,3.91 z"
           style="fill:#006642"
           id="path58" /></g><g
         id="freepik--light-bulb--inject-121"><path
           d="m 672.39,251.76 a 75.06,75.06 0 1 0 -132.73,48 73.75,73.75 0 0 1 17.1,47.24 v 10.28 H 637.9 V 347 a 73.56,73.56 0 0 1 17.1,-47.18 74.73,74.73 0 0 0 17.39,-48.06 z"
           style="fill:#ffffff;stroke:#263238;stroke-linejoin:round"
           id="path61" /><rect
           x="556.76001"
           y="357.31"
           width="81.150002"
           height="20.07"
           style="fill:#ffffff;stroke:#263238;stroke-linecap:round;stroke-linejoin:round"
           id="rect63" /><path
           d="m 556.76,377.43 h 81.14 v 15.35 a 4.73,4.73 0 0 1 -4.73,4.73 h -71.7 a 4.73,4.73 0 0 1 -4.73,-4.73 v -15.35 z"
           style="fill:#ffffff;stroke:#263238;stroke-linecap:round;stroke-linejoin:round"
           id="path65" /><path
           d="m 620.84,417.56 h -47 a 6.84,6.84 0 0 1 -6.52,-4.8 49.31,49.31 0 0 0 -2.13,-6 l -4.24,-9.27 h 72.8 l -4.24,9.27 a 49.31,49.31 0 0 0 -2.13,6 6.84,6.84 0 0 1 -6.54,4.8 z"
           style="fill:#263238;stroke:#263238;stroke-miterlimit:10"
           id="path67" /><circle
           cx="597.32001"
           cy="252.39999"
           r="66.080002"
           transform="rotate(-45,597.31002,252.40609)"
           style="fill:#006642"
           id="circle69" /><circle
           cx="597.32001"
           cy="252.39999"
           r="33.860001"
           transform="rotate(-50.78,597.27032,252.40793)"
           style="opacity:0.65;fill:#ffffff"
           id="circle71" /><path
           d="m 588.48,357.18 c 0,0 -2.86,-93.72 -9.23,-106.8 -6.37,-13.08 -11.29,0.88 -5.55,18.94 5.74,18.06 23.81,14.78 27.92,-4.92 4.11,-19.7 -2.46,-30.38 -5.75,-14 -3.29,16.38 3.64,37.65 15.37,29.09 11.73,-8.56 28.15,-41.41 15.83,-35.66 -12.32,5.75 -26.27,61.58 -17.24,113.31"
           style="fill:none;stroke:#263238;stroke-linecap:round;stroke-linejoin:round"
           id="path73" /></g><path
         d="m 200.57,258.08 15.18,-48.18 c 0,0 -1.09,-2.57 -9.9,-4.77 -8.81,-2.2 -12.67,3.67 -17.62,5.32 -4.95,1.65 -11.18,-8 -17.62,-8.25 -12,-0.44 -14.86,4.4 -22.57,7.7 -7.71,3.3 -7.71,-3.3 -16,-6.05 -8.29,-2.75 -16,6.6 -16,6.6 l 21.32,45.23 c -36.45,12.67 -62.76,49 -62.76,91.79 0,53.36 40.86,96.61 91.26,96.61 50.4,0 91.26,-43.25 91.26,-96.61 0.07,-40.37 -23.33,-74.95 -56.55,-89.39 z"
         style="fill:#ffffff;stroke:#263238;stroke-linejoin:round"
         id="path76" /><line
         x1="146.53"
         y1="249.78999"
         x2="139.77"
         y2="239.50999"
         style="fill:none;stroke:#263238;stroke-miterlimit:10"
         id="line78" /><line
         x1="190.34"
         y1="235.47"
         x2="186.28999"
         y2="250.34"
         style="fill:none;stroke:#263238;stroke-miterlimit:10"
         id="line80" /><line
         x1="148.41"
         y1="235.81"
         x2="147.89999"
         y2="231.42"
         style="fill:none;stroke:#263238;stroke-miterlimit:10"
         id="line82" /><line
         x1="150.09"
         y1="250.34"
         x2="148.83"
         y2="239.45"
         style="fill:none;stroke:#263238;stroke-miterlimit:10"
         id="line84" /><line
         x1="197.61"
         y1="232.3"
         x2="199.17999"
         y2="228.95"
         style="fill:none;stroke:#263238;stroke-miterlimit:10"
         id="line86" /><line
         x1="189.3"
         y1="250.07001"
         x2="196.11"
         y2="235.50999"
         style="fill:none;stroke:#263238;stroke-miterlimit:10"
         id="line88" /><path
         d="m 206.52,312.61 a 3.65,3.65 0 0 1 -3.64,-3.42 C 201,278.56 181.22,258.47 181,258.28 a 3.6522082,3.6522082 0 0 1 5.16,-5.17 c 0.89,0.9 21.9,22.27 24,55.62 a 3.64,3.64 0 0 1 -3.41,3.87 z"
         style="fill:#ffffff;stroke:#263238;stroke-linejoin:round"
         id="path90" /><path
         d="m 225.32,305.39 a 3.64,3.64 0 0 1 -4.39,-2.37 c -9.73,-29.11 -34,-43.44 -34.22,-43.58 a 3.65,3.65 0 1 1 3.66,-6.31 c 1.09,0.63 26.89,15.88 37.48,47.58 a 3.64,3.64 0 0 1 -2.3,4.61 z"
         style="fill:#ffffff;stroke:#263238;stroke-linejoin:round"
         id="path92" /><path
         d="M 199.11,259.74 H 135.73 A 4.72,4.72 0 0 1 131,255 v 0 a 4.72,4.72 0 0 1 4.72,-4.72 h 63.38 a 4.72,4.72 0 0 1 4.72,4.72 v 0 a 4.72,4.72 0 0 1 -4.71,4.74 z"
         style="fill:#ffffff;stroke:#263238;stroke-linejoin:round"
         id="path94" /><rect
         x="115.04"
         y="417.14999"
         width="100.16"
         height="27.32"
         style="fill:#006642;stroke:#263238;stroke-miterlimit:10"
         id="rect98" /><rect
         x="215.06"
         y="417.14999"
         width="48.009998"
         height="27.32"
         style="fill:#a3a3a3;stroke:#263238;stroke-linejoin:round"
         id="rect100" /><line
         x1="115.77"
         y1="422.35999"
         x2="140.44"
         y2="422.35999"
         style="fill:none;stroke:#263238;stroke-linejoin:round"
         id="line102" /><line
         x1="129.92"
         y1="428.85999"
         x2="150.60001"
         y2="428.85999"
         style="fill:none;stroke:#263238;stroke-linejoin:round"
         id="line104" /><polyline
         points="204.67 425.39 215.56 425.39 222.52 425.39"
         style="fill:none;stroke:#263238;stroke-linejoin:round"
         id="polyline106" /><line
         x1="115.77"
         y1="436.67001"
         x2="124.48"
         y2="436.67001"
         style="fill:none;stroke:#263238;stroke-linejoin:round"
         id="line108" /><line
         x1="128.10001"
         y1="436.67001"
         x2="135.36"
         y2="436.67001"
         style="fill:none;stroke:#263238;stroke-linejoin:round"
         id="line110" /><line
         x1="215.56"
         y1="434.5"
         x2="177.09"
         y2="434.5"
         style="fill:none;stroke:#263238;stroke-linejoin:round"
         id="line112" /><rect
         x="154.74001"
         y="417.14999"
         width="22.360001"
         height="27.32"
         style="fill:#ffffff;stroke:#263238;stroke-linejoin:round"
         id="rect114" /><line
         x1="262.81"
         y1="431.23001"
         x2="247.92"
         y2="431.23001"
         style="fill:none;stroke:#263238;stroke-linejoin:round"
         id="line116" /><line
         x1="215.07001"
         y1="439.56"
         x2="226.11"
         y2="439.56"
         style="fill:none;stroke:#263238;stroke-linejoin:round"
         id="line118" /><line
         x1="215.33"
         y1="430.51001"
         x2="236.37"
         y2="430.51001"
         style="fill:none;stroke:#263238;stroke-linejoin:round"
         id="line120" /><line
         x1="262.81"
         y1="425.79999"
         x2="242.78999"
         y2="425.79999"
         style="fill:none;stroke:#263238;stroke-linejoin:round"
         id="line122" /><line
         x1="230.47"
         y1="439.56"
         x2="235.86"
         y2="439.56"
         style="fill:none;stroke:#263238;stroke-linejoin:round"
         id="line124" /><rect
         x="107.51"
         y="390.32001"
         width="100.16"
         height="27.32"
         style="fill:#006642;stroke:#263238;stroke-miterlimit:10"
         id="rect126" /><rect
         x="207.53"
         y="390.32001"
         width="48.009998"
         height="27.32"
         style="fill:#a3a3a3;stroke:#263238;stroke-linejoin:round"
         id="rect128" /><line
         x1="108.24"
         y1="395.51999"
         x2="132.91"
         y2="395.51999"
         style="fill:none;stroke:#263238;stroke-linejoin:round"
         id="line130" /><line
         x1="122.39"
         y1="402.01999"
         x2="143.07001"
         y2="402.01999"
         style="fill:none;stroke:#263238;stroke-linejoin:round"
         id="line132" /><polyline
         points="197.14 398.56 208.03 398.56 214.99 398.56"
         style="fill:none;stroke:#263238;stroke-linejoin:round"
         id="polyline134" /><line
         x1="108.24"
         y1="409.82999"
         x2="116.95"
         y2="409.82999"
         style="fill:none;stroke:#263238;stroke-linejoin:round"
         id="line136" /><line
         x1="120.58"
         y1="409.82999"
         x2="127.83"
         y2="409.82999"
         style="fill:none;stroke:#263238;stroke-linejoin:round"
         id="line138" /><line
         x1="208.03"
         y1="407.66"
         x2="169.56"
         y2="407.66"
         style="fill:none;stroke:#263238;stroke-linejoin:round"
         id="line140" /><rect
         x="147.21001"
         y="390.31"
         width="22.360001"
         height="27.32"
         style="fill:#ffffff;stroke:#263238;stroke-linejoin:round"
         id="rect142" /><line
         x1="255.28"
         y1="404.39999"
         x2="240.39"
         y2="404.39999"
         style="fill:none;stroke:#263238;stroke-linejoin:round"
         id="line144" /><line
         x1="207.55"
         y1="412.72"
         x2="218.58"
         y2="412.72"
         style="fill:none;stroke:#263238;stroke-linejoin:round"
         id="line146" /><line
         x1="207.8"
         y1="403.67001"
         x2="228.85001"
         y2="403.67001"
         style="fill:none;stroke:#263238;stroke-linejoin:round"
         id="line148" /><line
         x1="255.28"
         y1="398.97"
         x2="235.25999"
         y2="398.97"
         style="fill:none;stroke:#263238;stroke-linejoin:round"
         id="line150" /><line
         x1="222.94"
         y1="412.72"
         x2="228.33"
         y2="412.72"
         style="fill:none;stroke:#263238;stroke-linejoin:round"
         id="line152" /><rect
         x="115.54"
         y="363.48001"
         width="100.16"
         height="27.32"
         style="fill:#006642;stroke:#263238;stroke-miterlimit:10"
         id="rect154" /><rect
         x="215.56"
         y="363.48001"
         width="48.009998"
         height="27.32"
         style="fill:#a3a3a3;stroke:#263238;stroke-linejoin:round"
         id="rect156" /><line
         x1="116.27"
         y1="368.67999"
         x2="140.94"
         y2="368.67999"
         style="fill:none;stroke:#263238;stroke-linejoin:round"
         id="line158" /><line
         x1="130.42"
         y1="375.19"
         x2="151.10001"
         y2="375.19"
         style="fill:none;stroke:#263238;stroke-linejoin:round"
         id="line160" /><polyline
         points="205.17 371.72 216.06 371.72 223.02 371.72"
         style="fill:none;stroke:#263238;stroke-linejoin:round"
         id="polyline162" /><line
         x1="116.27"
         y1="382.98999"
         x2="124.98"
         y2="382.98999"
         style="fill:none;stroke:#263238;stroke-linejoin:round"
         id="line164" /><line
         x1="128.60001"
         y1="382.98999"
         x2="135.86"
         y2="382.98999"
         style="fill:none;stroke:#263238;stroke-linejoin:round"
         id="line166" /><line
         x1="216.06"
         y1="380.82001"
         x2="177.59"
         y2="380.82001"
         style="fill:none;stroke:#263238;stroke-linejoin:round"
         id="line168" /><rect
         x="155.24001"
         y="363.48001"
         width="22.360001"
         height="27.32"
         style="fill:#ffffff;stroke:#263238;stroke-linejoin:round"
         id="rect170" /><line
         x1="263.31"
         y1="377.56"
         x2="248.42"
         y2="377.56"
         style="fill:none;stroke:#263238;stroke-linejoin:round"
         id="line172" /><line
         x1="215.57001"
         y1="385.89001"
         x2="226.61"
         y2="385.89001"
         style="fill:none;stroke:#263238;stroke-linejoin:round"
         id="line174" /><line
         x1="215.83"
         y1="376.84"
         x2="236.87"
         y2="376.84"
         style="fill:none;stroke:#263238;stroke-linejoin:round"
         id="line176" /><line
         x1="263.31"
         y1="372.13"
         x2="243.28999"
         y2="372.13"
         style="fill:none;stroke:#263238;stroke-linejoin:round"
         id="line178" /><line
         x1="230.97"
         y1="385.89001"
         x2="236.36"
         y2="385.89001"
         style="fill:none;stroke:#263238;stroke-linejoin:round"
         id="line180" /><rect
         x="132.38"
         y="386.92999"
         width="124.4"
         height="57.549999"
         style="fill:#cccccc;stroke:#263238;stroke-linejoin:round"
         id="rect182" /><line
         x1="245.12"
         y1="387.23001"
         x2="245.12"
         y2="411.23001"
         style="fill:none;stroke:#263238;stroke-linejoin:round"
         id="line184" /><line
         x1="248.46001"
         y1="387.39999"
         x2="248.46001"
         y2="394.70001"
         style="fill:none;stroke:#263238;stroke-linejoin:round"
         id="line186" /><line
         x1="247.46001"
         y1="444.32001"
         x2="247.46001"
         y2="422.57999"
         style="fill:none;stroke:#263238;stroke-linejoin:round"
         id="line188" /><line
         x1="250.94"
         y1="444.64999"
         x2="250.94"
         y2="440.82999"
         style="fill:none;stroke:#263238;stroke-linejoin:round"
         id="line190" /><line
         x1="254.25999"
         y1="444.48001"
         x2="254.25999"
         y2="433.70001"
         style="fill:none;stroke:#263238;stroke-linejoin:round"
         id="line192" /><line
         x1="247.28999"
         y1="420.42001"
         x2="247.28999"
         y2="415.94"
         style="fill:none;stroke:#263238;stroke-linejoin:round"
         id="line194" /><line
         x1="248.28999"
         y1="396.53"
         x2="248.28999"
         y2="399.17999"
         style="fill:none;stroke:#263238;stroke-linejoin:round"
         id="line196" /><rect
         x="132.38"
         y="386.92999"
         width="109.98"
         height="57.549999"
         style="fill:#006642;stroke:#263238;stroke-linejoin:round"
         id="rect198" /><path
         d="m 235.15,435.31 v -39.2 a 3.91,3.91 0 0 1 -3.91,-3.91 h -87.18 a 3.91,3.91 0 0 1 -3.91,3.91 4.89,4.89 0 0 1 -0.55,-0.05 v 39.31 a 3.31,3.31 0 0 1 0.55,-0.06 3.91,3.91 0 0 1 3.91,3.92 h 87.18 a 3.91,3.91 0 0 1 3.91,-3.92 z m -47.78,-3.37 a 16.23,16.23 0 1 1 16.23,-16.23 16.23,16.23 0 0 1 -16.23,16.23 z"
         style="fill:#ffffff;stroke:#263238;stroke-linejoin:round"
         id="path200" /><rect
         x="182.46001"
         y="386.76999"
         width="9.9499998"
         height="57.630001"
         style="fill:#ffffff;stroke:#263238;stroke-linejoin:round"
         id="rect202" /><rect
         x="81.970001"
         y="429.87"
         width="42.34"
         height="14.6"
         style="fill:#ffffff;stroke:#263238;stroke-linejoin:round"
         id="rect204" /><rect
         x="87.360001"
         y="429.87"
         width="5.3899999"
         height="14.6"
         style="fill:#263238;stroke:#263238;stroke-linejoin:round"
         id="rect206" /><rect
         x="95.260002"
         y="429.87"
         width="2.7"
         height="14.6"
         style="fill:#263238;stroke:#263238;stroke-linejoin:round"
         id="rect208" /><rect
         x="85.5"
         y="415.23001"
         width="42.34"
         height="14.6"
         style="fill:#ffffff;stroke:#263238;stroke-linejoin:round"
         id="rect210" /><rect
         x="90.889999"
         y="415.23001"
         width="5.3899999"
         height="14.6"
         style="fill:#263238;stroke:#263238;stroke-linejoin:round"
         id="rect212" /><rect
         x="98.790001"
         y="415.23001"
         width="2.7"
         height="14.6"
         style="fill:#263238;stroke:#263238;stroke-linejoin:round"
         id="rect214" /><rect
         x="81.970001"
         y="400.57999"
         width="42.34"
         height="14.6"
         style="fill:#ffffff;stroke:#263238;stroke-linejoin:round"
         id="rect216" /><rect
         x="87.360001"
         y="400.57999"
         width="5.3899999"
         height="14.6"
         style="fill:#263238;stroke:#263238;stroke-linejoin:round"
         id="rect218" /><rect
         x="95.260002"
         y="400.57999"
         width="2.7"
         height="14.6"
         style="fill:#263238;stroke:#263238;stroke-linejoin:round"
         id="rect220" /><rect
         x="79.870003"
         y="385.94"
         width="42.34"
         height="14.6"
         style="fill:#ffffff;stroke:#263238;stroke-linejoin:round"
         id="rect222" /><rect
         x="85.269997"
         y="385.94"
         width="5.3899999"
         height="14.6"
         style="fill:#263238;stroke:#263238;stroke-linejoin:round"
         id="rect224" /><rect
         x="93.169998"
         y="385.94"
         width="2.7"
         height="14.6"
         style="fill:#263238;stroke:#263238;stroke-linejoin:round"
         id="rect226" /><rect
         x="81.970001"
         y="371.29999"
         width="42.34"
         height="14.6"
         style="fill:#ffffff;stroke:#263238;stroke-linejoin:round"
         id="rect228" /><rect
         x="87.360001"
         y="371.29999"
         width="5.3899999"
         height="14.6"
         style="fill:#263238;stroke:#263238;stroke-linejoin:round"
         id="rect230" /><rect
         x="95.260002"
         y="371.29999"
         width="2.7"
         height="14.6"
         style="fill:#263238;stroke:#263238;stroke-linejoin:round"
         id="rect232" /><rect
         x="45.200001"
         y="429.87"
         width="42.34"
         height="14.6"
         style="fill:#ffffff;stroke:#263238;stroke-linejoin:round"
         id="rect234" /><rect
         x="50.599998"
         y="429.87"
         width="5.3899999"
         height="14.6"
         style="fill:#263238;stroke:#263238;stroke-linejoin:round"
         id="rect236" /><rect
         x="58.5"
         y="429.87"
         width="2.7"
         height="14.6"
         style="fill:#263238;stroke:#263238;stroke-linejoin:round"
         id="rect238" /><rect
         x="48.73"
         y="415.23001"
         width="42.34"
         height="14.6"
         style="fill:#ffffff;stroke:#263238;stroke-linejoin:round"
         id="rect240" /><rect
         x="54.130001"
         y="415.23001"
         width="5.3899999"
         height="14.6"
         style="fill:#263238;stroke:#263238;stroke-linejoin:round"
         id="rect242" /><rect
         x="62.029999"
         y="415.23001"
         width="2.7"
         height="14.6"
         style="fill:#263238;stroke:#263238;stroke-linejoin:round"
         id="rect244" /><rect
         x="45.200001"
         y="400.57999"
         width="42.34"
         height="14.6"
         style="fill:#ffffff;stroke:#263238;stroke-linejoin:round"
         id="rect246" /><rect
         x="50.599998"
         y="400.57999"
         width="5.3899999"
         height="14.6"
         style="fill:#263238;stroke:#263238;stroke-linejoin:round"
         id="rect248" /><rect
         x="58.5"
         y="400.57999"
         width="2.7"
         height="14.6"
         style="fill:#263238;stroke:#263238;stroke-linejoin:round"
         id="rect250" /><rect
         x="43.110001"
         y="385.94"
         width="42.34"
         height="14.6"
         style="fill:#ffffff;stroke:#263238;stroke-linejoin:round"
         id="rect252" /><rect
         x="48.5"
         y="385.94"
         width="5.3899999"
         height="14.6"
         style="fill:#263238;stroke:#263238;stroke-linejoin:round"
         id="rect254" /><rect
         x="56.400002"
         y="385.94"
         width="2.7"
         height="14.6"
         style="fill:#263238;stroke:#263238;stroke-linejoin:round"
         id="rect256" /><rect
         x="45.200001"
         y="371.29999"
         width="42.34"
         height="14.6"
         style="fill:#ffffff;stroke:#263238;stroke-linejoin:round"
         id="rect258" /><rect
         x="50.599998"
         y="371.29999"
         width="5.3899999"
         height="14.6"
         style="fill:#263238;stroke:#263238;stroke-linejoin:round"
         id="rect260" /><rect
         x="58.5"
         y="371.29999"
         width="2.7"
         height="14.6"
         style="fill:#263238;stroke:#263238;stroke-linejoin:round"
         id="rect262" /><rect
         x="45.200001"
         y="356.89001"
         width="42.34"
         height="14.6"
         style="fill:#ffffff;stroke:#263238;stroke-linejoin:round"
         id="rect264" /><rect
         x="50.599998"
         y="356.89001"
         width="5.3899999"
         height="14.6"
         style="fill:#263238;stroke:#263238;stroke-linejoin:round"
         id="rect266" /><rect
         x="58.5"
         y="356.89001"
         width="2.7"
         height="14.6"
         style="fill:#263238;stroke:#263238;stroke-linejoin:round"
         id="rect268" /><rect
         x="45.200001"
         y="342.48999"
         width="42.34"
         height="14.6"
         style="fill:#ffffff;stroke:#263238;stroke-linejoin:round"
         id="rect270" /><rect
         x="50.599998"
         y="342.48999"
         width="5.3899999"
         height="14.6"
         style="fill:#263238;stroke:#263238;stroke-linejoin:round"
         id="rect272" /><rect
         x="58.5"
         y="342.48999"
         width="2.7"
         height="14.6"
         style="fill:#263238;stroke:#263238;stroke-linejoin:round"
         id="rect274" /><circle
         cx="100.08"
         cy="423.63"
         r="20.629999"
         style="fill:#ffffff;stroke:#263238;stroke-linejoin:round"
         id="circle276" /><circle
         cx="98"
         cy="423.63"
         r="20.629999"
         style="fill:#ffffff;stroke:#263238;stroke-linejoin:round"
         id="circle278" /><circle
         cx="98"
         cy="423.63"
         r="17.67"
         style="fill:#ffffff;stroke:#263238;stroke-linejoin:round"
         id="circle280" /><g
         id="freepik--Characters--inject-121"><path
           d="m 436.11,250 c 0,0 -26.16,3.88 -28.58,3.72 -2.42,-0.16 -12.11,-1.62 -12.11,-1.62 l -8.08,1.13 2.91,12.11 c 0,0 5.81,1 8.56,-0.16 a 39.52,39.52 0 0 0 5.49,-2.91 c 0,0 34.07,5 37.14,2.27 3.07,-2.73 -5.33,-14.54 -5.33,-14.54 z"
           style="fill:#ffffff;stroke:#263238;stroke-miterlimit:10"
           id="path285" /><path
           d="m 324.26,428.76 c 0,0 5.53,2.94 10.2,5.36 4.67,2.42 10.71,3.8 11.75,4.66 1.04,0.86 -0.52,5.36 -0.52,5.36 h -43.55 a 12.78,12.78 0 0 1 0,-6.39 46.79,46.79 0 0 1 2.07,-6.75 z"
           style="fill:#ffffff;stroke:#263238;stroke-miterlimit:10"
           id="path287" /><path
           d="m 298.13,295.72 3.22,18.28 c 0,0 4.59,37.9 4.07,42.57 -0.52,4.67 -5.53,15.38 -5.36,24.89 0.17,9.51 3.63,35.08 3.63,35.59 0,0.51 -2.59,3.46 -2.59,3.46 0,0 2.59,11.41 2.77,12.1 0.18,0.69 10.71,1 14.34,0.17 A 32.6,32.6 0 0 0 325.3,430 c 0,0 1,-6.57 0.69,-10 a 39.71,39.71 0 0 0 -2.25,-8.29 c 0,0 14.69,-56.34 15.21,-65 0.52,-8.66 2.59,-46 2.59,-46 l -25.4,-13.82 z"
           style="fill:#263238;stroke:#263238;stroke-miterlimit:10"
           id="path289" /><path
           d="m 351.05,230.87 c 0,0 3.28,19 3.11,35.43 -0.17,16.43 0,31.28 -0.52,33.36 -0.52,2.08 -9.68,0.69 -9.68,0.69 L 350,238 Z"
           style="fill:#ffffff;stroke:#263238;stroke-miterlimit:10"
           id="path291" /><path
           d="m 313.72,177.46 c 0,0 -20.23,20.54 -21.09,24.89 -0.86,4.35 -0.17,14.69 0,15.9 0.17,1.21 5,47.53 5,47.53 0,0 -5.35,11.58 -5.18,12.1 0.17,0.52 0.34,21.43 0.34,21.43 0,0 2.94,2.77 9,3.8 6.06,1.03 6.91,1 6.91,1 l 4.15,-8.47 1.39,9.34 a 29,29 0 0 0 15.76,2.46 c 8.65,-1.21 15.73,-3.29 16.42,-3.81 0.69,-0.52 4.84,-45.45 5.19,-49.6 0.35,-4.15 -0.17,-17.63 -0.52,-23.16 -0.35,-5.53 -6.05,-28.35 -6.74,-31.11 -0.69,-2.76 -14.52,-14.52 -19,-16.25 a 95.68,95.68 0 0 1 -11.63,-6.05 z"
           style="fill:#ffffff;stroke:#263238;stroke-linejoin:round"
           id="path293" /><path
           d="m 351.53,241.67 c -0.13,-4.16 -0.32,-8.3 -0.48,-10.8 -0.35,-5.53 -6.05,-28.35 -6.74,-31.11 -0.69,-2.76 -14.52,-14.52 -19,-16.25 a 95.68,95.68 0 0 1 -11.58,-6 c 0,0 -1.38,1.4 -3.43,3.55 l 14.49,19.09 8.64,-0.34 -3.8,6.22 z"
           style="fill:#ffffff;stroke:#263238;stroke-linejoin:round"
           id="path295" /><path
           d="m 313.72,177.46 26.28,24.2 8.29,26.62 c 0,0 -2.42,-24.37 -4,-28.52 -1.58,-4.15 -7.61,-9.51 -7.61,-9.51 z"
           style="fill:#263238;stroke:#263238;stroke-linejoin:round"
           id="path297" /><path
           d="m 351.05,136.67 c 0,0 2.77,9.51 2.59,11.93 -0.18,2.42 -1.9,5.7 -1.73,6.22 0.17,0.52 5.19,7.43 4.67,8.3 -0.52,0.87 -4.32,2.93 -4.32,2.93 0,0 -0.86,10 -1.56,12.45 -0.7,2.45 -3.28,3.28 -7.95,2.59 l -4.66,-0.69 -1.9,12.44 -20.05,-15.38 0.52,-8.64 c 0,0 -7.09,-10.37 -8.13,-13.48 -1.04,-3.11 3.11,-23 4.5,-24.89 1.39,-1.89 12.61,-4.84 21.43,-4.84 8.82,0 17.45,4.67 18.32,7.26 0.87,2.59 -1.73,3.8 -1.73,3.8 z"
           style="fill:#ffffff;stroke:#263238;stroke-linejoin:round"
           id="path299" /><path
           d="m 350.7,178.5 c 0.58,-2 1.27,-9.26 1.49,-11.66 a 13.33,13.33 0 0 0 -1.66,-0.1 13.89,13.89 0 0 0 -9.5,3.63 c -2.6,2.42 -2.6,2.94 -4.33,1.91 a 12.86,12.86 0 0 1 -4.14,-4.67 c -0.52,-1.21 -0.35,-16.42 -0.35,-16.42 0,0 3.28,-2.94 4.49,-4.15 1.21,-1.21 -1.55,-7.95 -1.72,-9.16 -0.17,-1.21 16.07,-1.21 16.07,-1.21 0,0 2.59,-1.21 1.73,-3.8 -0.86,-2.59 -9.51,-7.26 -18.32,-7.26 -8.81,0 -20,2.94 -21.43,4.84 -1.43,1.9 -5.54,21.78 -4.5,24.89 1.04,3.11 8.13,13.48 8.13,13.48 l 7.08,-3.46 a 26.79,26.79 0 0 1 -4.49,-5.18 c -1.56,-2.6 0.17,-6.92 2.94,-9 2.77,-2.08 4.66,0.69 5.35,1.56 0.69,0.87 1,4.49 1,7.08 0,2.59 -1,10.72 -0.34,13.14 0.66,2.42 9.85,7.43 9.85,7.43 l 4.66,0.69 c 4.71,0.7 7.29,-0.16 7.99,-2.58 z"
           style="fill:#263238;stroke:#263238;stroke-linejoin:round"
           id="path301" /><ellipse
           cx="347.42001"
           cy="155.42"
           rx="1.04"
           ry="1.99"
           style="fill:#263238"
           id="ellipse303" /><path
           d="m 345,151.36 c 0,0 2.25,-2.42 5,-0.86"
           style="fill:none;stroke:#263238;stroke-linejoin:round"
           id="path305" /><path
           d="m 350.88,172.1 c 0,0 -4.32,-0.34 -5.71,-2.42"
           style="fill:none;stroke:#ffffff;stroke-linejoin:round"
           id="path307" /><polygon
           points="313.72,177.46 315.79,174.52 339.12,190.94 338.43,200.45 "
           style="fill:#ffffff;stroke:#263238;stroke-linejoin:round"
           id="polygon309" /><path
           d="m 375.25,252.47 c 0,0 7.08,-2.76 7.78,-3.11 0.7,-0.35 4.83,0.87 4.83,0.87 0,0 8.65,13 8.82,14 0.17,1 0.17,2.07 -1.9,2.59 -2.07,0.52 -2.32,0.35 -2.32,0.35 0,0 -4.4,1.54 -6.82,0.16 -2.42,-1.38 -9.87,-2.24 -9.87,-2.24 z"
           style="fill:#ffffff;stroke:#263238;stroke-miterlimit:10"
           id="path311" /><polygon
           points="369.54,263.71 369.2,251.78 375.25,252.47 375.77,265.09 "
           style="fill:#ffffff;stroke:#263238;stroke-miterlimit:10"
           id="polygon313" /><path
           d="m 297.82,216.35 c 0,0 15.38,32 19,38.54 3.62,6.54 7.26,6.92 8.12,7.26 0.86,0.34 44.94,4.32 44.94,4.32 L 370.4,251.95 336.19,245 323.4,205.46 c 0,0 -6.92,-10.89 -10.89,-12.1 -3.97,-1.21 -8.64,0.35 -8.64,0.35"
           style="fill:#ffffff;stroke:#263238;stroke-linejoin:round"
           id="path315" /><path
           d="m 314.06,250.05 c 0,0 -9,5.71 -11.58,6.92"
           style="fill:none;stroke:#263238;stroke-miterlimit:10"
           id="path317" /><path
           d="m 313.89,255.58 c 0,0 -9.68,7.61 -12.79,9.68"
           style="fill:none;stroke:#263238;stroke-miterlimit:10"
           id="path319" /><path
           d="M 441.44,264.54 C 444.51,261.79 436.11,250 436.11,250 l -3.4,0.5 c 0.92,2.83 3.65,11.08 5.29,14.8 1.73,-0.1 3,-0.3 3.44,-0.76 z"
           style="fill:#006642;stroke:#263238;stroke-miterlimit:10"
           id="path321" /><path
           d="m 446.28,242.25 c 0,0 -10.33,6 -10.17,7.75 0.16,1.75 3.39,13.73 5.33,14.54 1.94,0.81 10.17,-4.2 10.17,-4.2 z"
           style="fill:#006642;stroke:#263238;stroke-miterlimit:10"
           id="path323" /><path
           d="m 474.05,139.93 c 0,0 3.21,-5.42 6.26,-7.28 3.05,-1.86 10.33,1.52 13.55,5.08 3.22,3.56 8.47,16.09 10,25.41 1.53,9.32 -2.54,17.61 -4.07,19 -1.53,1.39 -6.1,3 -4.57,7.45 1.53,4.45 3.55,2 3.55,2 0,0 -0.16,4.74 -2.71,6.95 a 10.75,10.75 0 0 1 -13,0.84 c -5.59,-3.38 -11,-10 -11.35,-14.56 a 25.76,25.76 0 0 1 0.68,-9 c 0.34,-0.85 7.79,-7.79 8.3,-14.57 0.51,-6.78 -3.73,-15.24 -6.1,-16.93 -2.37,-1.69 -0.54,-4.39 -0.54,-4.39 z"
           style="fill:#263238;stroke:#263238;stroke-miterlimit:10"
           id="path325" /><path
           d="m 491.83,283.23 c -3.56,-12.37 -4.57,-14.74 -4.57,-14.74 l -37.61,-0.85 c 0,0 -1,14.57 0,24.39 1,9.82 1.7,17.45 1.7,17.45 0,0 -0.85,21.51 1.86,38.62 2.71,17.11 5.42,28.45 5.76,30.49 0.19,1.16 1.23,15.78 2.07,28 l -2.61,-0.08 2.14,17.09 -4.14,9.51 c -2.54,2.2 -12.7,7.62 -13.55,9.14 -0.85,1.52 2.54,2.21 4.23,2.21 h 30.15 a 3.67,3.67 0 0 0 2.54,-2.82 c 0.23,-2.13 -1.19,-13.77 -1.19,-13.77 l 3.56,-20.65 -2.49,-0.07 c 1.47,-10.51 3,-23.55 2.33,-27.91 -1.19,-7.62 -3.22,-16.26 -3.22,-18.29 0,-2.03 3.22,-33.54 4.91,-40.31 1.69,-6.77 7.45,-16.94 7.45,-16.94 0,0 4.24,-8.11 0.68,-20.47 z"
           style="fill:#263238;stroke:#263238;stroke-miterlimit:10"
           id="path327" /><path
           d="m 444.12,153.13 c 0,0 -4.66,-3.86 -4.66,-7.07 0,-3.21 13,-9.49 14.62,-10.61 1.62,-1.12 12.7,-0.48 17,1.77 4.3,2.25 11.73,8.67 13,12.69 1.27,4.02 1.28,12.22 0.48,17.36 -0.8,5.14 -9.81,11.89 -9.81,11.89 l 3.06,11.41 a 29.35,29.35 0 0 1 9.64,11.25 c 3.86,7.72 2.73,45.64 2.73,45.64 0,0 -0.16,12.38 0,14.31 a 11.88,11.88 0 0 1 -0.64,5.94 c -1,3.06 -1.61,3.06 -3.7,2.9 -2.09,-0.16 -32.46,0.64 -32.46,0.64 a 9.7,9.7 0 0 1 -5,-1.77 c -1.93,-1.61 -1.29,-18.64 -1.45,-19.12 -0.16,-0.48 -3.86,-13 -4.5,-16.88 a 18.2,18.2 0 0 1 2.09,-11.09 c 1.61,-2.89 16.3,-29.59 16.3,-29.59 l -4.05,-8.8 c 0,0 -7.23,2.25 -8.68,2.25 -1.45,0 -4.78,-12.84 -4.78,-12.84 0,0 -3.85,-3.38 -4.17,-4.18 -0.32,-0.8 4.82,-5.47 4.82,-5.47 0,0 -0.32,-4.66 0.16,-6.42 a 14.14,14.14 0 0 1 1.59,-2.8 z"
           style="fill:#ffffff;stroke:#263238;stroke-miterlimit:10"
           id="path329" /><path
           d="m 444.12,153.13 1.59,1.38 5,-5.08 c 0,0 -0.48,5.63 2.25,9.64 2.73,4.01 8.51,6.27 9.16,6.75 0.65,0.48 1.28,1.61 0.8,4.82 -0.4,2.68 -2.36,3.8 -3.28,3.81 1,0.46 3.58,1.57 4.89,0.37 1.77,-1.6 1.61,-4.82 1.44,-6.59 -0.17,-1.77 0.17,-3 2.58,-4.17 2.41,-1.17 6.59,-1.45 6.59,1.92 0,3.37 -1.61,6.75 -3.06,7.4 a 12.3,12.3 0 0 1 -3.37,0.8 c 0,0 1.93,4.5 6.1,5 0,0 9,-6.75 9.81,-11.89 0.81,-5.14 0.8,-13.34 -0.48,-17.36 -1.28,-4.02 -8.68,-10.44 -13,-12.69 -4.32,-2.25 -15.43,-2.9 -17,-1.77 -1.57,1.13 -14.62,7.39 -14.62,10.61 0,3.22 4.6,7.05 4.6,7.05 z"
           style="fill:#263238;stroke:#263238;stroke-miterlimit:10"
           id="path331" /><path
           d="m 459.22,174.34 a 0.57,0.57 0 0 0 0.42,0.11 c -0.36,-0.15 -0.54,-0.23 -0.42,-0.11 z"
           style="fill:none;stroke:#263238;stroke-miterlimit:10"
           id="path333" /><path
           d="m 448.77,165.18 c 0,1.07 -0.47,1.93 -1,1.93 -0.53,0 -1,-0.86 -1,-1.93 0,-1.07 0.46,-1.93 1,-1.93 0.54,0 1,0.87 1,1.93 z"
           style="fill:#263238"
           id="path335" /><path
           d="m 445.4,161.16 c 0,0 2.58,-2.73 4.83,0.32"
           style="fill:none;stroke:#263238;stroke-miterlimit:10"
           id="path337" /><path
           d="m 445.73,176.75 a 7.8,7.8 0 0 0 6.42,-2.73"
           style="fill:none;stroke:#263238;stroke-miterlimit:10"
           id="path339" /><path
           d="m 487.51,201.82 a 29.35,29.35 0 0 0 -9.64,-11.25 10.57,10.57 0 0 0 -8.23,3.9 c -3.56,4.24 -13.89,20.16 -13.89,20.16 l -6.34,-1.34 c -2.27,4.34 -4.23,8.07 -4.81,9.1 a 18.2,18.2 0 0 0 -2.09,11.09 c 0.64,3.86 4.34,16.39 4.5,16.88 0.16,0.49 -0.48,17.51 1.45,19.12 a 9.7,9.7 0 0 0 5,1.77 c 0,0 30.37,-0.8 32.46,-0.64 2.09,0.16 2.73,0.16 3.7,-2.9 a 11.88,11.88 0 0 0 0.64,-5.94 c -0.16,-1.93 0,-14.31 0,-14.31 0,0 1.11,-37.92 -2.75,-45.64 z"
           style="fill:#006642;stroke:#263238;stroke-miterlimit:10"
           id="path341" /><path
           d="m 468.62,266.12 -7.79,40 c 0,0 -5.08,5.59 -5.92,7 -0.84,1.41 -0.51,7.62 -0.51,9.31 0,1.69 0.84,4.75 1.52,5.42 0.68,0.67 1.7,2 3.22,1.87 1.52,-0.13 2.54,-0.51 2.2,-1.87 a 24.69,24.69 0 0 1 0.17,-6.26 c 0.17,-0.68 3.22,-2.71 4.57,-6.27 1.35,-3.56 1.7,-9.82 1.7,-9.82 L 484,268.32 Z"
           style="fill:#ffffff;stroke:#263238;stroke-miterlimit:10"
           id="path343" /><path
           d="m 484,268.32 -15.42,-2.2 -1.09,5.61 a 23.76,23.76 0 0 0 12.84,5 z"
           style="fill:#006642;stroke:#263238;stroke-miterlimit:10"
           id="path345" /><path
           d="m 460.66,329.64 a 7.42,7.42 0 0 1 -2,-3.05 35.26,35.26 0 0 1 0,-6.1"
           style="fill:#ffffff;stroke:#263238;stroke-miterlimit:10"
           id="path347" /><path
           d="m 457.45,329.13 a 21.53,21.53 0 0 1 -1,-4.07 c -0.17,-1.69 0,-6.6 0,-6.6"
           style="fill:#ffffff;stroke:#263238;stroke-miterlimit:10"
           id="path349" /><path
           d="m 469,209.38 a 53.76,53.76 0 0 0 -2.71,13.89 c -0.17,6.6 -0.67,38.11 -0.67,40.65 0,2.54 3.38,5.08 7.38,6.26 4,1.18 8.81,1.19 10.67,-0.17 1.86,-1.36 1.52,-1 2,-7.11 0.48,-6.11 0.51,-12.7 0.51,-12.7 0,0 4.49,-31.24 2.88,-39.81 -1.61,-8.57 -5.76,-15.41 -11.69,-15.58 -5.93,-0.17 -7.28,1.86 -7.28,1.86"
           style="fill:#006642;stroke:#263238;stroke-miterlimit:10"
           id="path351" /><path
           d="m 381.34,263.84 c 0,0 -1.51,2.75 -1.24,3.28 0.27,0.53 1.15,1.15 1.77,0.62 a 5,5 0 0 0 1.5,-3.37 c -0.09,-1.24 -0.79,-1.95 -2.03,-0.53 z"
           style="fill:#ffffff;stroke:#263238;stroke-miterlimit:10"
           id="path353" /><path
           d="m 384.26,264.55 c 0,0 -1.51,2.75 -1.24,3.28 0.27,0.53 1.15,1.15 1.77,0.62 a 5,5 0 0 0 1.51,-3.37 c -0.09,-1.24 -0.8,-1.95 -2.04,-0.53 z"
           style="fill:#ffffff;stroke:#263238;stroke-miterlimit:10"
           id="path355" /><path
           d="m 386.47,265.26 c 0,0 -1.5,2.74 -1.24,3.28 0.26,0.54 1.16,1.15 1.78,0.62 a 5,5 0 0 0 1.5,-3.37 c -0.09,-1.24 -0.8,-1.95 -2.04,-0.53 z"
           style="fill:#ffffff;stroke:#263238;stroke-miterlimit:10"
           id="path357" /><path
           d="m 389.11,265.83 c 0,0 -1.17,2.13 -1,2.54 0.17,0.41 0.89,0.89 1.37,0.48 a 3.87,3.87 0 0 0 1.17,-2.61 c -0.03,-0.96 -0.58,-1.51 -1.54,-0.41 z"
           style="fill:#ffffff;stroke:#263238;stroke-miterlimit:10"
           id="path359" /><path
           d="m 402.17,253.74 c 0,0 -12.1,-6.05 -13,-4.84 a 47.46,47.46 0 0 0 -4.15,7.08 c -0.52,1.56 -0.35,2.08 1.38,1.39 a 22.58,22.58 0 0 0 4.5,-3.11 c 0,0 4.14,5.53 7.08,4.66"
           style="fill:#ffffff;stroke:#263238;stroke-miterlimit:10"
           id="path361" /></g><g
         id="freepik--Floor--inject-121"><line
           x1="33.099998"
           y1="444.48001"
           x2="715.63"
           y2="444.48001"
           style="fill:none;stroke:#263238;stroke-miterlimit:10"
           id="line364" /></g><g
         id="layer1-3"
         inkscape:label="Layer 1"><text
           xml:space="preserve"
           style="font-size:87.8586px;fill:#1a1a1a;stroke-width:1.17668"
           x="134.36479"
           y="357.22357"
           id="text786"><tspan
             sodipodi:role="line"
             id="tspan784"
             x="134.36479"
             y="357.22357"
             style="font-size:87.8586px;fill:#1a1a1a;stroke-width:1.17668"></tspan></text></g><text
         xml:space="preserve"
         style="font-size:29.0529px;fill:#1a1a1a;stroke-width:0.389102"
         x="90.997459"
         y="434.69641"
         id="text786-6"><tspan
           sodipodi:role="line"
           id="tspan784-7"
           x="90.997459"
           y="434.69641"
           style="font-size:29.0529px;fill:#1a1a1a;stroke-width:0.389102"></tspan></text></g></g></svg>
