<?xml version="1.0" encoding="UTF-8" standalone="no"?>
<!-- Created with Inkscape (http://www.inkscape.org/) -->

<svg
   width="968mm"
   height="775mm"
   viewBox="0 0 968 775"
   version="1.1"
   id="svg2233"
   xml:space="preserve"
   inkscape:version="1.2.2 (732a01da63, 2022-12-09, custom)"
   sodipodi:docname="gst-filing"
   xmlns:inkscape="http://www.inkscape.org/namespaces/inkscape"
   xmlns:sodipodi="http://sodipodi.sourceforge.net/DTD/sodipodi-0.dtd"
   xmlns="http://www.w3.org/2000/svg"
   xmlns:svg="http://www.w3.org/2000/svg"><sodipodi:namedview
     id="namedview2235"
     pagecolor="#ffffff"
     bordercolor="#000000"
     borderopacity="0.25"
     inkscape:showpageshadow="2"
     inkscape:pageopacity="0.0"
     inkscape:pagecheckerboard="0"
     inkscape:deskcolor="#d1d1d1"
     inkscape:document-units="px"
     showgrid="false"
     inkscape:zoom="0.2481917"
     inkscape:cx="1502.8705"
     inkscape:cy="1392.0691"
     inkscape:window-width="1846"
     inkscape:window-height="1016"
     inkscape:window-x="0"
     inkscape:window-y="0"
     inkscape:window-maximized="1"
     inkscape:current-layer="layer1" /><defs
     id="defs2230" /><g
     inkscape:label="Layer 1"
     inkscape:groupmode="layer"
     id="layer1"><g
       id="g3927"
       transform="matrix(1.4550466,0,0,1.5729182,34.208856,84.481529)"><rect
         x="416.78"
         y="398.48999"
         width="33.119999"
         height="0.25"
         style="fill:#ebebeb"
         id="rect2645" /><rect
         x="322.53"
         y="401.20999"
         width="8.6899996"
         height="0.25"
         style="fill:#ebebeb"
         id="rect2647" /><rect
         x="396.59"
         y="389.20999"
         width="19.190001"
         height="0.25"
         style="fill:#ebebeb"
         id="rect2649" /><rect
         x="52.459999"
         y="390.89001"
         width="43.189999"
         height="0.25"
         style="fill:#ebebeb"
         id="rect2651" /><rect
         x="104.56"
         y="390.89001"
         width="6.3299999"
         height="0.25"
         style="fill:#ebebeb"
         id="rect2653" /><rect
         x="131.47"
         y="395.10999"
         width="93.68"
         height="0.25"
         style="fill:#ebebeb"
         id="rect2655" /><path
         d="M 238.4,337.8 H 45.3 a 5.71,5.71 0 0 1 -5.71,-5.71 V 60.66 A 5.71,5.71 0 0 1 45.3,55 h 193.1 a 5.71,5.71 0 0 1 5.71,5.71 v 271.38 a 5.71,5.71 0 0 1 -5.71,5.71 z M 45.3,55.2 a 5.47,5.47 0 0 0 -5.46,5.46 v 271.43 a 5.47,5.47 0 0 0 5.46,5.46 h 193.1 a 5.47,5.47 0 0 0 5.46,-5.46 V 60.66 A 5.47,5.47 0 0 0 238.4,55.2 Z"
         style="fill:#ebebeb"
         id="path2657" /><path
         d="M 454.7,337.8 H 261.6 a 5.71,5.71 0 0 1 -5.71,-5.71 V 60.66 A 5.71,5.71 0 0 1 261.6,55 h 193.1 a 5.71,5.71 0 0 1 5.71,5.71 v 271.38 a 5.71,5.71 0 0 1 -5.71,5.71 z M 261.6,55.2 a 5.47,5.47 0 0 0 -5.46,5.46 v 271.43 a 5.47,5.47 0 0 0 5.46,5.46 h 193.1 a 5.47,5.47 0 0 0 5.46,-5.46 V 60.66 A 5.47,5.47 0 0 0 454.7,55.2 Z"
         style="fill:#ebebeb"
         id="path2659" /><rect
         y="382.39999"
         width="500"
         height="0.25"
         style="fill:#ebebeb"
         id="rect2661"
         x="0" /><path
         d="m 412.38,356.07 -0.76,0.09 c -0.05,-0.39 -4.67,-39 4.86,-70.64 9.47,-31.39 2.95,-51.4 2.88,-51.6 l 0.73,-0.25 c 0.07,0.21 6.67,20.45 -2.87,52.08 -9.49,31.43 -4.89,69.93 -4.84,70.32 z"
         style="fill:#e0e0e0"
         id="path2663" /><path
         d="m 420.72,238.23 a 11.91,11.91 0 0 0 -6.42,-4 l 0.18,-0.75 a 12.77,12.77 0 0 1 6.83,4.21 z"
         style="fill:#e0e0e0"
         id="path2665" /><rect
         x="247.82045"
         y="418.78506"
         width="2.52"
         height="0.76999998"
         transform="rotate(-29.47)"
         style="fill:#e0e0e0"
         id="rect2667" /><path
         d="m 419.9,259.25 a 18.24,18.24 0 0 0 -9.87,-9.57 l 0.29,-0.72 a 19,19 0 0 1 10.28,10 z"
         style="fill:#e0e0e0"
         id="path2669" /><path
         d="m 417.84,283.4 h -0.77 a 10.54,10.54 0 0 0 -4,-8.07 l 0.48,-0.6 a 11.29,11.29 0 0 1 4.29,8.67 z"
         style="fill:#e0e0e0"
         id="path2671" /><path
         d="m 416.13,289.57 -0.72,-0.28 a 7.7,7.7 0 0 1 4.37,-4.3 l 0.27,0.72 a 6.89,6.89 0 0 0 -3.92,3.86 z"
         style="fill:#e0e0e0"
         id="path2673" /><path
         d="m 411.16,328.76 -0.59,-0.49 c 0.93,-1.13 1.64,-5.41 2,-7.72 0.09,-0.55 0.16,-1 0.23,-1.35 l 0.75,0.14 c -0.06,0.33 -0.14,0.8 -0.23,1.34 -0.54,3.44 -1.18,6.89 -2.16,8.08 z"
         style="fill:#e0e0e0"
         id="path2675" /><path
         d="m 410.71,341.06 a 7.54,7.54 0 0 0 -7.32,-5.05 v -0.77 a 8.35,8.35 0 0 1 8.08,5.58 z"
         style="fill:#e0e0e0"
         id="path2677" /><rect
         x="9.1473761"
         y="543.21124"
         width="8.1099997"
         height="0.76999998"
         transform="rotate(-48.22)"
         style="fill:#e0e0e0"
         id="rect2679" /><path
         d="m 420.4,309.63 c 1.22,4 -7.32,11.52 -7.32,11.52 0,0 -11.32,-1.42 -12.54,-5.38 -1.22,-3.96 1.64,-10.46 7.12,-12.15 5.48,-1.69 11.51,2.05 12.74,6.01 z"
         style="fill:#f0f0f0"
         id="path2681" /><path
         d="m 429.88,261.51 c -1.08,4.21 -9.18,7.2 -9.18,7.2 0,0 -5.64,-6.53 -4.55,-10.74 1.09,-4.21 5.55,-8.85 9.35,-7.87 3.8,0.98 5.5,7.2 4.38,11.41 z"
         style="fill:#ebebeb"
         id="path2683" /><path
         d="m 397.41,324.44 c 5.08,2 8.19,11 8.19,11 0,0 -8.37,4.51 -13.45,2.53 -5.08,-1.98 -10.46,-7.55 -9,-11.28 1.46,-3.73 9.18,-4.23 14.26,-2.25 z"
         style="fill:#f5f5f5"
         id="path2685" /><path
         d="m 408.55,275 a 10.68,10.68 0 0 0 3.47,2 3.68,3.68 0 0 0 3.71,-0.87 c 1.08,-1.26 0.79,-3.2 0.11,-4.71 -1.36,-3 -6.37,-8.06 -10.22,-6.61 -5.55,2.07 0.45,8.35 2.93,10.19 z"
         style="fill:#e6e6e6"
         id="path2687" /><path
         d="m 419.91,282.62 c -0.73,0.91 -1.5,2 -1.1,3.13 a 2.33,2.33 0 0 0 2.56,1.26 6.87,6.87 0 0 0 2.75,-1.35 c 2,-1.36 6,-4.21 3.41,-6.88 -2.59,-2.67 -6.08,1.94 -7.62,3.84 z"
         style="fill:#ebebeb"
         id="path2689" /><path
         d="m 403.51,244.61 a 2,2 0 0 0 -1.83,1.49 c -0.16,1 0.64,1.82 1.42,2.42 1.95,1.5 7.8,5.55 9.11,1.65 1.23,-3.69 -6.11,-5.84 -8.7,-5.56 z"
         style="fill:#e0e0e0"
         id="path2691" /><path
         d="m 414.3,231.77 c -1.21,0.11 -2.41,-0.33 -3.62,-0.25 -1.21,0.08 -2.56,1 -2.29,2.23 0.27,1.23 1.61,1.46 2.73,1.53 a 21.79,21.79 0 0 0 5.7,-0.39 1.74,1.74 0 0 0 1.16,-0.59 c 0.49,-0.72 -0.29,-1.68 -1.12,-1.94 a 12.45,12.45 0 0 1 -2.53,-0.6 z"
         style="fill:#e6e6e6"
         id="path2693" /><path
         d="m 426.09,240.07 c 1.21,0 2.39,-0.48 3.6,-0.48 1.21,0 2.62,0.88 2.42,2.07 -0.2,1.19 -1.5,1.56 -2.61,1.71 a 21.9,21.9 0 0 1 -5.72,0 1.78,1.78 0 0 1 -1.2,-0.51 c -0.53,-0.68 0.18,-1.7 1,-2 a 12.09,12.09 0 0 0 2.48,-0.76 z"
         style="fill:#f0f0f0"
         id="path2695" /><path
         d="m 424.9,329.36 a 1.72,1.72 0 0 1 1,-0.51 1.17,1.17 0 0 1 1,1 3.36,3.36 0 0 1 -0.2,1.53 c -0.82,2.74 -10,22.65 -12.16,19.07 -1.26,-2.11 1.83,-9.11 2.74,-11.09 a 28.82,28.82 0 0 1 7.62,-10 z"
         style="fill:#f0f0f0"
         id="path2697" /><path
         d="m 419.38,232.52 a 10.45,10.45 0 0 1 3,-4.42 c 1.46,-1 3.79,-1.13 4.85,0.32 1.18,1.62 0,4.09 -1.82,5 -1.82,0.91 -3.94,0.61 -5.93,0.33 0,-0.3 0,-0.6 0,-0.89 z"
         style="fill:#e6e6e6"
         id="path2699" /><path
         d="m 425.83,382.62 v 0 a 89.49,89.49 0 0 1 -29.84,0 v 0 l -11.61,-34.25 h 53.05 z"
         style="fill:#f0f0f0"
         id="path2701" /><path
         d="m 400.15,113 c -0.45,-5.09 2.21,-8.5 6.64,-8.5 4.43,0 7.73,3.37 8.18,8.5 0.45,5.13 -2.27,8.49 -6.69,8.49 -4.42,0 -7.69,-3.49 -8.13,-8.49 z m 11.19,0 c -0.3,-3.45 -1.89,-5.4 -4.28,-5.4 -2.39,0 -3.63,2 -3.33,5.4 0.3,3.4 2,5.39 4.28,5.39 2.28,0 3.63,-1.98 3.33,-5.39 z m 14.06,-8.19 h 4.33 l -18.43,31 H 407 Z m -3.67,22.79 c -0.45,-5.09 2.22,-8.5 6.65,-8.5 4.43,0 7.73,3.41 8.17,8.5 0.44,5.09 -2.26,8.49 -6.69,8.49 -4.43,0 -7.69,-3.44 -8.13,-8.53 z m 11.19,0 c -0.3,-3.41 -1.93,-5.4 -4.27,-5.4 -2.34,0 -3.64,2 -3.34,5.4 0.3,3.4 1.94,5.4 4.28,5.4 2.34,0 3.63,-2 3.33,-5.44 z"
         style="fill:#e6e6e6"
         id="path2703" /><circle
         cx="223.83501"
         cy="203.73984"
         r="16.540001"
         transform="rotate(-7.52)"
         style="fill:#e0e0e0"
         id="circle2705" /><path
         d="m 266.47,167.92 a 16.54,16.54 0 1 1 -20.25,-11.72 16.55,16.55 0 0 1 20.25,11.72 z"
         style="fill:#e6e6e6"
         id="path2707" /><circle
         cx="250.48"
         cy="172.17999"
         r="12.38"
         style="fill:#f0f0f0"
         id="circle2709" /><circle
         cx="-99.62175"
         cy="122.74409"
         r="23.27"
         transform="rotate(-72.97)"
         style="fill:#e0e0e0"
         id="circle2713" /><circle
         cx="-28.43619"
         cy="157.09839"
         r="23.27"
         transform="rotate(-45)"
         style="fill:#e6e6e6"
         id="circle2715" /><circle
         cx="-28.43619"
         cy="157.09839"
         r="17.41"
         transform="rotate(-45)"
         style="fill:#f0f0f0"
         id="circle2717" /><path
         d="m 62.57,289.29 q 5.38,14.5 10.78,29 c 22.85,-0.57 37.94,-22 60.79,-22.59 q -5.38,-14.51 -10.78,-29 c -22.85,0.57 -37.94,22.02 -60.79,22.59 z"
         style="fill:#e6e6e6"
         id="path2721" /><path
         d="m 66.22,291.64 q 4.5,12.11 9,24.19 c 20.6,-2 35.08,-20.49 55.75,-22.3 l -9,-24.18 c -20.67,1.81 -35.15,20.28 -55.75,22.29 z"
         style="fill:#fafafa"
         id="path2723" /><path
         d="m 107.2,287.55 a 10.93,10.93 0 0 1 -4.79,12.78 7.37,7.37 0 0 1 -11,-3.9 11,11 0 0 1 4.76,-12.86 7.43,7.43 0 0 1 11.03,3.98 z"
         style="fill:#e0e0e0"
         id="path2725" /><path
         d="m 105.19,288.61 a 8.21,8.21 0 0 1 -3.57,9.61 5.5,5.5 0 0 1 -8.21,-2.89 8.25,8.25 0 0 1 3.59,-9.65 5.52,5.52 0 0 1 8.19,2.93 z"
         style="fill:#f5f5f5"
         id="path2727" /><path
         d="m 89.1,296.76 c 1.64,4.39 -0.41,9.85 -4.83,11.5 -4.42,1.65 -9.59,-1.32 -11.24,-5.74 -1.65,-4.42 0.89,-8.58 5.3,-10.26 4.41,-1.68 9.12,0.06 10.77,4.5 z"
         style="fill:#ffffff"
         id="path2731" /><path
         d="m 125.65,280.62 c 1.64,4.42 -1,8.32 -5.47,9.79 -4.47,1.47 -9.24,-0.36 -10.89,-4.8 -1.65,-4.44 0.45,-9.76 4.94,-11.2 4.49,-1.44 9.77,1.8 11.42,6.21 z"
         style="fill:#ffffff"
         id="path2733" /><path
         d="m 66.22,291.64 1,2.73 v 0 A 2,2 0 0 0 69,291.59 l -0.11,-0.3 c -0.89,0.15 -1.78,0.27 -2.67,0.35 z"
         style="fill:#ebebeb"
         id="path2735" /><path
         d="m 74.2,313.1 c 0.33,0.91 0.67,1.82 1,2.73 0.89,-0.09 1.77,-0.21 2.64,-0.35 l -0.11,-0.3 a 3.48,3.48 0 0 0 -3.54,-2.08 z"
         style="fill:#ebebeb"
         id="path2737" /><path
         d="m 128.21,293.56 0.11,0.3 q 1.31,-0.21 2.64,-0.33 c -0.33,-0.91 -0.67,-1.82 -1,-2.73 v 0 a 2,2 0 0 0 -1.75,2.76 z"
         style="fill:#ebebeb"
         id="path2739" /><path
         d="m 119.33,269.67 c 0,0.1 0.07,0.2 0.11,0.3 a 3.55,3.55 0 0 0 3.55,2.11 v 0 l -1,-2.73 c -0.91,0.08 -1.79,0.19 -2.66,0.32 z"
         style="fill:#ebebeb"
         id="path2741" /><path
         d="m 64.91,250.77 -2.34,30.85 c 21,9 43.67,-4.13 64.66,4.91 q 1.19,-15.42 2.35,-30.85 c -21,-9.04 -43.68,4.13 -64.67,-4.91 z"
         style="fill:#e6e6e6"
         id="path2743" /><path
         d="m 67.24,254.44 -1.95,25.72 c 19.55,6.78 40.43,-3.93 60,3.07 l 1.95,-25.72 c -19.56,-7.01 -40.45,3.71 -60,-3.07 z"
         style="fill:#fafafa"
         id="path2745" /><path
         d="m 106.17,267.86 a 10.91,10.91 0 0 1 -9.7,9.6 7.37,7.37 0 0 1 -8.35,-8.14 11,11 0 0 1 9.71,-9.69 7.42,7.42 0 0 1 8.34,8.23 z"
         style="fill:#e0e0e0"
         id="path2747" /><path
         d="m 103.91,268 a 8.22,8.22 0 0 1 -7.27,7.24 5.5,5.5 0 0 1 -6.25,-6.06 8.28,8.28 0 0 1 7.27,-7.29 5.54,5.54 0 0 1 6.25,6.11 z"
         style="fill:#f5f5f5"
         id="path2749" /><path
         d="m 85.89,268.65 c -0.36,4.68 -4.5,8.78 -9.2,8.43 -4.7,-0.35 -8.17,-5.21 -7.81,-9.91 0.36,-4.7 4.4,-7.43 9.1,-7.11 4.7,0.32 8.26,3.87 7.91,8.59 z"
         style="fill:#ffffff"
         id="path2753" /><path
         d="m 125.83,269.29 c -0.36,4.7 -4.38,7.14 -9.06,6.6 -4.68,-0.54 -8.24,-4.19 -7.89,-8.92 0.35,-4.73 4.5,-8.68 9.18,-8.1 4.68,0.58 8.12,5.72 7.77,10.42 z"
         style="fill:#ffffff"
         id="path2755" /><path
         d="m 67.24,254.44 c -0.07,1 -0.14,1.93 -0.22,2.9 v 0 a 2,2 0 0 0 2.74,-1.81 v -0.31 q -1.25,-0.34 -2.52,-0.78 z"
         style="fill:#ebebeb"
         id="path2757" /><path
         d="m 65.51,277.26 -0.22,2.9 c 0.84,0.29 1.69,0.55 2.54,0.78 v -0.31 a 3.49,3.49 0 0 0 -2.35,-3.37 z"
         style="fill:#ebebeb"
         id="path2759" /><path
         d="m 122.74,282.11 v 0.31 c 0.85,0.24 1.69,0.51 2.54,0.81 l 0.22,-2.9 v 0 a 2,2 0 0 0 -2.76,1.78 z"
         style="fill:#ebebeb"
         id="path2761" /><path
         d="m 124.67,256.7 v 0.31 a 3.54,3.54 0 0 0 2.34,3.4 v 0 c 0.07,-1 0.15,-1.93 0.22,-2.9 -0.86,-0.3 -1.71,-0.57 -2.56,-0.81 z"
         style="fill:#ebebeb"
         id="path2763" /><path
         d="M 80.35,218.07 67.09,246 c 16.35,16 42.25,11.82 58.6,27.79 L 139,245.87 C 122.6,229.89 96.7,234.05 80.35,218.07 Z"
         style="fill:#e6e6e6"
         id="path2765" /><path
         d="m 81.21,222.33 -11,23.31 C 86,259 109.31,256.48 125,270 l 11.05,-23.31 C 120.36,233.17 97,235.68 81.21,222.33 Z"
         style="fill:#fafafa"
         id="path2767" /><path
         d="m 112.73,248.83 a 10.92,10.92 0 0 1 -12.5,5.49 7.38,7.38 0 0 1 -4.87,-10.6 11,11 0 0 1 12.54,-5.56 7.43,7.43 0 0 1 4.83,10.67 z"
         style="fill:#e0e0e0"
         id="path2769" /><path
         d="m 110.57,248.14 a 8.22,8.22 0 0 1 -9.37,4.15 5.5,5.5 0 0 1 -3.66,-7.91 8.27,8.27 0 0 1 9.39,-4.19 5.53,5.53 0 0 1 3.64,7.95 z"
         style="fill:#f5f5f5"
         id="path2771" /><path
         d="m 93.51,242.29 c -2,4.24 -7.35,6.58 -11.61,4.57 -4.26,-2.01 -5.75,-7.8 -3.73,-12.06 2.02,-4.26 6.77,-5.35 11,-3.36 4.23,1.99 6.37,6.56 4.34,10.85 z"
         style="fill:#ffffff"
         id="path2775" /><path
         d="m 130.56,257.22 c -2,4.26 -6.64,5.1 -10.82,2.91 -4.18,-2.19 -6.19,-6.87 -4.16,-11.15 2.03,-4.28 7.31,-6.49 11.47,-4.27 4.16,2.22 5.53,8.29 3.51,12.51 z"
         style="fill:#ffffff"
         id="path2777" /><path
         d="m 81.21,222.33 c -0.41,0.88 -0.83,1.76 -1.25,2.63 v 0 a 2,2 0 0 0 3.21,-0.7 l 0.14,-0.28 c -0.72,-0.52 -1.41,-1.07 -2.1,-1.65 z"
         style="fill:#ebebeb"
         id="path2779" /><path
         d="m 71.4,243 c -0.41,0.88 -0.83,1.76 -1.24,2.63 0.68,0.58 1.38,1.13 2.09,1.65 L 72.38,247 a 3.49,3.49 0 0 0 -1,-4 z"
         style="fill:#ebebeb"
         id="path2781" /><path
         d="m 123.08,268.08 -0.13,0.29 c 0.7,0.52 1.4,1.08 2.08,1.67 0.41,-0.88 0.83,-1.76 1.24,-2.63 v 0 a 2,2 0 0 0 -3.19,0.67 z"
         style="fill:#ebebeb"
         id="path2783" /><path
         d="m 134,245.06 -0.13,0.28 a 3.54,3.54 0 0 0 1,4 v 0 c 0.41,-0.88 0.83,-1.76 1.24,-2.63 -0.71,-0.57 -1.4,-1.13 -2.11,-1.65 z"
         style="fill:#ebebeb"
         id="path2785" /><g
         id="freepik--Shadow--inject-24"><ellipse
           id="freepik--path--inject-24"
           cx="250"
           cy="415.69"
           rx="193.89"
           ry="11.32"
           style="fill:#f5f5f5" /></g><g
         id="freepik--Clipboard--inject-24"
         transform="translate(-6)"><path
           d="M 396.89,279.13 H 273.71 a 10.21,10.21 0 0 1 -10,-9.38 L 250.91,87.16 a 8.63,8.63 0 0 1 8.72,-9.37 h 123.18 a 10.21,10.21 0 0 1 10,9.37 l 12.77,182.59 a 8.63,8.63 0 0 1 -8.69,9.38 z"
           id="path2790" /><path
           d="M 396.89,279.13 H 273.71 a 10.21,10.21 0 0 1 -10,-9.38 L 250.91,87.16 a 8.63,8.63 0 0 1 8.72,-9.37 h 123.18 a 10.21,10.21 0 0 1 10,9.37 l 12.77,182.59 a 8.63,8.63 0 0 1 -8.69,9.38 z"
           style="opacity:0.7;fill:#ffffff"
           id="path2792" /><polygon
           points="257.26,84.08 385.33,84.08 398.52,272.63 270.44,272.63 "
           style="fill:#ffffff"
           id="polygon2794" /><path
           d="m 347.5,88.38 h -52 l -0.87,-12.32 a 8.16,8.16 0 0 1 8.25,-8.87 h 34.28 a 9.66,9.66 0 0 1 9.49,8.87 z"
           style="fill:#006642"
           id="path2796" /><text
           transform="matrix(1,0,0.07,1,268.63,111.75)"
           style="font-weight:600;font-size:23.005px;font-family:Montserrat-SemiBold, Montserrat"
           id="text2802"><tspan
             style="letter-spacing:-0.0729798em"
             id="tspan2798">T</tspan><tspan
             x="12.15"
             y="0"
             id="tspan2800">AX</tspan></text><polygon
           points="273.1,120.11 374.7,120.11 375,124.35 273.39,124.35 "
           id="polygon2804" /><polygon
           points="277.68,185.65 379.28,185.65 379.58,189.89 277.98,189.89 "
           id="polygon2806" /><path
           d="m 377.52,153.28 h -9.14 l -0.64,-9.14 h 9.14 z m -8.21,-1 h 7.14 l -0.5,-7.14 h -7.14 z"
           id="path2808" /><rect
           x="273.85001"
           y="130.10001"
           width="101.6"
           height="1.5"
           id="rect2810" /><rect
           x="274.32999"
           y="137.25"
           width="101.6"
           height="1"
           id="rect2812" /><rect
           x="274.81"
           y="144.14"
           width="37.470001"
           height="1"
           id="rect2814" /><rect
           x="318.85999"
           y="107.07"
           width="1"
           height="88.190002"
           transform="rotate(-90,319.08,151.26)"
           id="rect2816" /><path
           d="m 332.07,163.65 h -5 l -0.35,-5 h 5 z m -4.11,-1 h 3 l -0.21,-3 h -3 z"
           id="path2818" /><path
           d="m 332.51,169.87 h -5.05 l -0.35,-5.05 h 5.05 z m -4.11,-1 h 3 l -0.22,-3.05 h -3 z"
           id="path2820" /><path
           d="m 332.93,175.91 h -5 l -0.36,-5 h 5.05 z m -4.11,-1 h 3 l -0.21,-3 h -3 z"
           id="path2822" /><rect
           x="355.54001"
           y="140.91"
           width="1"
           height="43.799999"
           transform="rotate(-90,355.73,162.92)"
           id="rect2824" /><rect
           x="356"
           y="147.58"
           width="1"
           height="43.799999"
           transform="rotate(-89.93,356.51138,169.47594)"
           id="rect2826" /><rect
           x="356.44"
           y="153.78"
           width="1"
           height="43.799999"
           transform="rotate(-89.93,356.94543,175.67947)"
           id="rect2828" /><path
           d="m 280.69,163.65 h -5.05 l -0.35,-5 h 5 z m -4.12,-1 h 3 l -0.21,-3 h -3 z"
           id="path2830" /><path
           d="m 281.12,169.87 h -5 l -0.36,-5.05 h 5 z m -4.11,-1 h 3 l -0.21,-3.05 h -3 z"
           id="path2832" /><path
           d="m 281.54,175.91 h -5 l -0.35,-5 h 5 z m -4.11,-1 h 3 l -0.21,-3 h -3 z"
           id="path2834" /><rect
           x="302.87"
           y="142.17999"
           width="1"
           height="41.25"
           transform="rotate(-89.93,303.35982,162.80932)"
           id="rect2836" /><rect
           x="303.34"
           y="148.86"
           width="1"
           height="41.25"
           transform="rotate(-89.93,303.82918,169.47811)"
           id="rect2838" /><rect
           x="303.76999"
           y="155.06"
           width="1"
           height="41.25"
           transform="rotate(-89.93,304.26323,175.68163)"
           id="rect2840" /><path
           d="M 384.71,262.49 H 333.17 L 328.45,195 H 380 Z m -50.61,-1 h 49.54 L 379.06,196 h -49.54 z"
           id="path2842" /><rect
           x="330.04999"
           y="203.89999"
           width="50.540001"
           height="1"
           id="rect2844" /><rect
           x="330.73999"
           y="213.75999"
           width="50.540001"
           height="1"
           id="rect2846" /><rect
           x="331.42999"
           y="223.62"
           width="50.540001"
           height="1"
           id="rect2848" /><rect
           x="332.12"
           y="233.48"
           width="50.540001"
           height="1"
           id="rect2850" /><rect
           x="332.81"
           y="243.34"
           width="50.540001"
           height="1"
           id="rect2852" /><rect
           x="333.5"
           y="253.2"
           width="50.540001"
           height="1"
           id="rect2854" /><path
           d="M 333.66,262.49 H 282.55 L 277.84,195 H 329 Z m -50.17,-1 h 49.1 L 328,196 h -49.1 z"
           id="path2856" /><rect
           x="279.44"
           y="203.89999"
           width="50.110001"
           height="1"
           id="rect2858" /><rect
           x="280.13"
           y="213.75999"
           width="50.110001"
           height="1"
           id="rect2860" /><rect
           x="280.82001"
           y="223.62"
           width="50.110001"
           height="1"
           id="rect2862" /><rect
           x="281.5"
           y="233.48"
           width="50.110001"
           height="1"
           id="rect2864" /><rect
           x="282.19"
           y="243.34"
           width="50.110001"
           height="1"
           id="rect2866" /><rect
           x="282.88"
           y="253.2"
           width="50.110001"
           height="1"
           id="rect2868" /></g><g
         id="freepik--Device--inject-24"
         transform="translate(2)"><path
           d="m 105.17,74.94 h 21.15 l 21.33,243.82 H 126.5 A 19.76,19.76 0 0 1 107.19,301 L 89,92.7 a 16,16 0 0 1 16.17,-17.76 z"
           style="fill:#263238"
           id="path2871" /><path
           d="M 130.83,318.76 H 218 A 16,16 0 0 0 234.18,301 L 216,92.7 A 19.77,19.77 0 0 0 196.69,74.94 H 109.5 A 16,16 0 0 0 93.3,92.7 L 111.52,301 a 19.76,19.76 0 0 0 19.31,17.76 z"
           style="fill:#006642"
           id="path2873" /><path
           d="m 109.85,79 h 22.66 a 3.29,3.29 0 0 1 3.15,2.57 l 0.15,0.71 a 8,8 0 0 0 7.69,6.29 H 165 a 6.47,6.47 0 0 0 6.59,-6.29 V 81.57 A 2.64,2.64 0 0 1 174.29,79 H 197 a 15.23,15.23 0 0 1 14.89,13.7 L 230.11,301 a 12.33,12.33 0 0 1 -12.48,13.68 H 130.47 A 15.22,15.22 0 0 1 115.6,301 L 97.37,92.7 A 12.33,12.33 0 0 1 109.85,79 Z"
           style="fill:#006642"
           id="path2875" /><path
           d="m 109.85,79 h 22.66 a 3.29,3.29 0 0 1 3.15,2.57 l 0.15,0.71 a 8,8 0 0 0 7.69,6.29 H 165 a 6.47,6.47 0 0 0 6.59,-6.29 V 81.57 A 2.64,2.64 0 0 1 174.29,79 H 197 a 15.23,15.23 0 0 1 14.89,13.7 L 230.11,301 a 12.33,12.33 0 0 1 -12.48,13.68 H 130.47 A 15.22,15.22 0 0 1 115.6,301 L 97.37,92.7 A 12.33,12.33 0 0 1 109.85,79 Z"
           style="opacity:0.7;fill:#ffffff"
           id="path2877" /><g
           style="opacity:0.2"
           id="g2883"><path
             d="m 158.9,81.33 a 1.94,1.94 0 0 0 1.89,1.73 1.57,1.57 0 0 0 1.58,-1.73 1.94,1.94 0 0 0 -1.89,-1.74 1.57,1.57 0 0 0 -1.58,1.74 z"
             id="path2879" /><path
             d="m 146.48,79.59 h 5.94 a 1.94,1.94 0 0 1 1.88,1.74 1.57,1.57 0 0 1 -1.58,1.73 h -5.94 a 1.93,1.93 0 0 1 -1.88,-1.73 1.57,1.57 0 0 1 1.58,-1.74 z"
             id="path2881" /></g><polygon
           points="201.88,86.72 202.04,88.56 200.21,88.56 200.04,86.72 "
           style="fill:#006642"
           id="polygon2885" /><polygon
           points="196.38,86.72 196.22,84.89 198.05,84.89 198.21,86.72 198.37,88.56 196.54,88.56 "
           style="fill:#006642"
           id="polygon2887" /><polygon
           points="194.71,88.56 192.87,88.56 192.71,86.72 192.55,84.89 192.39,83.06 194.22,83.06 194.38,84.89 194.55,86.72 "
           style="fill:#006642"
           id="polygon2889" /><path
           d="m 107.35,83.18 0.47,5.37 h 8.07 l -0.12,-1.34 h 0.9 l -0.24,-2.69 h -0.9 l -0.11,-1.34 z m 4.6,1.34 h 2.69 l 0.23,2.69 h -2.68 z"
           style="fill:#006642"
           id="path2891" /><path
           d="M 211.89,92.67 230.11,301 a 12.34,12.34 0 0 1 -12.48,13.68 H 130.47 A 15.24,15.24 0 0 1 115.59,301 L 97.37,92.67 A 12.34,12.34 0 0 1 109.85,79 h 22.65 a 3.31,3.31 0 0 1 3.16,2.58 l 0.15,0.71 a 8,8 0 0 0 7.69,6.29 H 165 a 6.48,6.48 0 0 0 6.59,-6.29 V 81.58 A 2.65,2.65 0 0 1 174.35,79 H 197 a 15.24,15.24 0 0 1 14.89,13.67 z"
           style="opacity:0.7;fill:#263238"
           id="path2893" /><path
           d="M 216.9,149.93 230.11,301 a 12.34,12.34 0 0 1 -12.48,13.68 H 130.47 A 15.24,15.24 0 0 1 115.59,301 L 102.38,149.93 Z"
           style="fill:#006642"
           id="path2895" /><path
           d="m 170.42,284.22 1.33,15.21 a 5.35,5.35 0 0 1 -5.41,5.93 H 122 a 6.59,6.59 0 0 1 -6.44,-5.93 l -1.33,-15.21 a 5.34,5.34 0 0 1 5.4,-5.93 H 164 a 6.61,6.61 0 0 1 6.42,5.93 z"
           style="fill:#263238"
           id="path2897" /><path
           d="m 195.49,305.36 h -15.22 a 6.61,6.61 0 0 1 -6.45,-5.93 l -1.33,-15.22 a 5.35,5.35 0 0 1 5.41,-5.93 h 15.22 a 6.61,6.61 0 0 1 6.45,5.93 l 1.33,15.22 a 5.34,5.34 0 0 1 -5.41,5.93 z"
           style="fill:#263238"
           id="path2899" /><path
           d="m 224.64,305.36 h -15.22 a 6.6,6.6 0 0 1 -6.45,-5.93 l -1.33,-15.22 a 5.35,5.35 0 0 1 5.41,-5.93 h 15.22 a 6.61,6.61 0 0 1 6.45,5.93 l 1.33,15.22 a 5.35,5.35 0 0 1 -5.41,5.93 z"
           style="fill:#263238"
           id="path2901" /><path
           d="M 134.62,275.89 H 119.39 A 6.59,6.59 0 0 1 113,270 l -1.33,-15.22 a 5.34,5.34 0 0 1 5.41,-5.93 h 15.22 a 6.59,6.59 0 0 1 6.44,5.93 L 140,270 a 5.33,5.33 0 0 1 -5.38,5.89 z"
           style="fill:#263238"
           id="path2903" /><path
           d="M 163.77,275.89 H 148.54 A 6.59,6.59 0 0 1 142.1,270 l -1.33,-15.22 a 5.34,5.34 0 0 1 5.4,-5.93 h 15.23 a 6.6,6.6 0 0 1 6.44,5.93 l 1.33,15.22 a 5.33,5.33 0 0 1 -5.4,5.89 z"
           style="fill:#263238"
           id="path2905" /><path
           d="m 192.91,275.89 h -15.22 a 6.59,6.59 0 0 1 -6.44,-5.92 l -1.34,-15.22 a 5.35,5.35 0 0 1 5.41,-5.93 h 15.22 a 6.6,6.6 0 0 1 6.45,5.93 l 1.33,15.25 a 5.34,5.34 0 0 1 -5.41,5.89 z"
           style="fill:#263238"
           id="path2907" /><path
           d="m 222.06,275.89 h -15.22 a 6.6,6.6 0 0 1 -6.45,-5.92 l -1.33,-15.22 a 5.35,5.35 0 0 1 5.41,-5.93 h 15.22 a 6.6,6.6 0 0 1 6.45,5.93 l 1.33,15.25 a 5.34,5.34 0 0 1 -5.41,5.89 z"
           style="fill:#263238"
           id="path2909" /><path
           d="m 132,246.43 h -15.18 a 6.6,6.6 0 0 1 -6.45,-5.93 L 109,225.28 a 5.34,5.34 0 0 1 5.41,-5.93 h 15.22 a 6.6,6.6 0 0 1 6.44,5.93 l 1.34,15.22 a 5.35,5.35 0 0 1 -5.41,5.93 z"
           style="fill:#263238"
           id="path2911" /><path
           d="M 161.19,246.43 H 146 a 6.6,6.6 0 0 1 -6.45,-5.93 l -1.33,-15.22 a 5.34,5.34 0 0 1 5.41,-5.93 h 15.22 a 6.6,6.6 0 0 1 6.44,5.93 l 1.34,15.22 a 5.35,5.35 0 0 1 -5.44,5.93 z"
           style="fill:#263238"
           id="path2913" /><path
           d="m 190.34,246.43 h -15.23 a 6.59,6.59 0 0 1 -6.44,-5.93 l -1.33,-15.22 a 5.34,5.34 0 0 1 5.4,-5.93 H 188 a 6.6,6.6 0 0 1 6.44,5.93 l 1.33,15.22 a 5.34,5.34 0 0 1 -5.43,5.93 z"
           style="fill:#263238"
           id="path2915" /><path
           d="m 219.48,246.43 h -15.22 a 6.59,6.59 0 0 1 -6.44,-5.93 l -1.33,-15.22 a 5.34,5.34 0 0 1 5.4,-5.93 h 15.23 a 6.6,6.6 0 0 1 6.44,5.93 l 1.33,15.22 a 5.34,5.34 0 0 1 -5.41,5.93 z"
           style="fill:#263238"
           id="path2917" /><path
           d="m 129.46,217 h -15.22 a 6.6,6.6 0 0 1 -6.45,-5.92 l -1.33,-15.23 a 5.35,5.35 0 0 1 5.41,-5.92 h 15.22 a 6.6,6.6 0 0 1 6.45,5.92 l 1.33,15.15 a 5.34,5.34 0 0 1 -5.41,6 z"
           style="fill:#263238"
           id="path2919" /><path
           d="m 158.61,217 h -15.22 a 6.6,6.6 0 0 1 -6.45,-5.92 l -1.33,-15.23 a 5.34,5.34 0 0 1 5.41,-5.92 h 15.22 a 6.6,6.6 0 0 1 6.45,5.92 L 164,211 a 5.35,5.35 0 0 1 -5.39,6 z"
           style="fill:#263238"
           id="path2921" /><path
           d="m 187.76,217 h -15.22 a 6.6,6.6 0 0 1 -6.45,-5.92 l -1.33,-15.23 a 5.34,5.34 0 0 1 5.41,-5.92 h 15.22 a 6.59,6.59 0 0 1 6.44,5.92 l 1.34,15.15 a 5.35,5.35 0 0 1 -5.41,6 z"
           style="fill:#263238"
           id="path2923" /><path
           d="m 216.91,217 h -15.23 a 6.59,6.59 0 0 1 -6.44,-5.92 l -1.33,-15.23 a 5.34,5.34 0 0 1 5.41,-5.92 h 15.22 a 6.59,6.59 0 0 1 6.44,5.92 l 1.33,15.15 a 5.33,5.33 0 0 1 -5.4,6 z"
           style="fill:#263238"
           id="path2925" /><path
           d="m 126.88,187.5 h -15.22 a 6.6,6.6 0 0 1 -6.44,-5.93 l -1.34,-15.22 a 5.35,5.35 0 0 1 5.41,-5.93 h 15.22 a 6.61,6.61 0 0 1 6.45,5.93 l 1.33,15.22 a 5.34,5.34 0 0 1 -5.41,5.93 z"
           style="fill:#263238"
           id="path2927" /><path
           d="m 156,187.5 h -15.19 a 6.61,6.61 0 0 1 -6.45,-5.93 L 133,166.35 a 5.35,5.35 0 0 1 5.41,-5.93 h 15.22 a 6.61,6.61 0 0 1 6.45,5.93 l 1.33,15.22 A 5.35,5.35 0 0 1 156,187.5 Z"
           style="fill:#263238"
           id="path2929" /><path
           d="M 185.18,187.5 H 170 a 6.61,6.61 0 0 1 -6.45,-5.93 l -1.33,-15.22 a 5.35,5.35 0 0 1 5.41,-5.93 h 15.22 a 6.61,6.61 0 0 1 6.45,5.93 l 1.33,15.22 a 5.35,5.35 0 0 1 -5.45,5.93 z"
           style="fill:#263238"
           id="path2931" /><path
           d="m 214.33,187.5 h -15.22 a 6.61,6.61 0 0 1 -6.45,-5.93 l -1.33,-15.22 a 5.34,5.34 0 0 1 5.41,-5.93 H 212 a 6.6,6.6 0 0 1 6.44,5.93 l 1.34,15.22 a 5.35,5.35 0 0 1 -5.45,5.93 z"
           style="fill:#263238"
           id="path2933" /><path
           d="m 164.32,126.54 1.43,16.31 h -3 l -1.2,-13.77 h -3.45 l -0.22,-2.54 z"
           style="fill:#ffffff"
           id="path2935" /><path
           d="m 168.74,141.08 a 1.69,1.69 0 0 1 1.74,-1.94 2.07,2.07 0 0 1 2.08,1.94 1.7,1.7 0 0 1 -1.74,1.93 2.1,2.1 0 0 1 -2.08,-1.93 z"
           style="fill:#ffffff"
           id="path2937" /><path
           d="m 185.2,126.54 0.18,2 -5.09,14.28 h -3.24 L 182,129.1 h -6.41 l 0.24,2.78 H 173 l -0.46,-5.34 z"
           style="fill:#ffffff"
           id="path2939" /><path
           d="m 199.37,126.54 0.18,2 -5.09,14.28 h -3.24 l 4.93,-13.75 h -6.41 l 0.24,2.78 h -2.82 l -0.46,-5.34 z"
           style="fill:#ffffff"
           id="path2941" /><path
           d="m 213.54,126.54 0.18,2 -5.09,14.28 h -3.24 l 4.93,-13.75 h -6.41 l 0.24,2.78 h -2.82 l -0.47,-5.34 z"
           style="fill:#ffffff"
           id="path2943" /><path
           d="m 140.05,291.18 c -0.24,-2.76 1.13,-4.32 3.12,-4.32 1.99,0 3.65,1.56 3.89,4.32 0.24,2.76 -1.13,4.32 -3.13,4.32 -2,0 -3.64,-1.56 -3.88,-4.32 z m 5.44,0 c -0.18,-2 -1.05,-3 -2.2,-3 -1.15,0 -1.85,0.93 -1.67,3 0.18,2.07 1,3 2.19,3 1.19,0 1.86,-0.97 1.68,-3 z"
           style="fill:#ffffff"
           id="path2945" /><path
           d="m 125,258.19 0.74,8.4 h -1.56 l -0.62,-7.09 h -1.78 l -0.11,-1.31 z"
           style="fill:#ffffff"
           id="path2947" /><path
           d="m 157.76,265.27 0.12,1.32 h -6.19 l -0.09,-1 3.05,-3.17 a 2.1,2.1 0 0 0 0.81,-1.74 c -0.07,-0.77 -0.63,-1.21 -1.66,-1.21 a 2.17,2.17 0 0 0 -1.89,0.87 l -1.17,-0.84 a 3.55,3.55 0 0 1 3.07,-1.39 c 1.82,0 3.08,0.93 3.21,2.41 a 3.07,3.07 0 0 1 -1.16,2.65 l -2.06,2.14 z"
           style="fill:#ffffff"
           id="path2949" /><path
           d="m 187.14,264.07 c 0.13,1.42 -0.83,2.64 -3.09,2.64 a 5.67,5.67 0 0 1 -3.24,-1 l 0.57,-1.21 a 4.23,4.23 0 0 0 2.53,0.82 c 1.11,0 1.73,-0.49 1.66,-1.27 -0.07,-0.78 -0.66,-1.25 -1.93,-1.25 h -0.77 l -0.09,-1.06 1.71,-2.27 h -3.82 l -0.11,-1.31 h 5.72 l 0.09,1.05 -1.83,2.42 a 2.66,2.66 0 0 1 2.6,2.44 z"
           style="fill:#ffffff"
           id="path2951" /><path
           d="M 127.51,234.85 H 126 l 0.16,1.9 h -1.51 l -0.16,-1.9 h -4.61 l -0.09,-1.08 3.66,-5.41 h 1.67 l -3.45,5.17 h 2.75 l -0.15,-1.69 h 1.46 l 0.15,1.69 h 1.49 z"
           style="fill:#ffffff"
           id="path2953" /><path
           d="m 155.07,234.18 c 0.12,1.47 -0.84,2.7 -3.09,2.7 a 5.65,5.65 0 0 1 -3.24,-1 l 0.55,-1.21 a 4.27,4.27 0 0 0 2.55,0.83 c 1.11,0 1.73,-0.49 1.66,-1.28 -0.07,-0.79 -0.63,-1.31 -2.37,-1.31 h -2 v -4.57 h 4.92 l 0.12,1.31 h -3.61 v 1.94 h 0.8 c 2.49,0.02 3.58,1.1 3.71,2.59 z"
           style="fill:#ffffff"
           id="path2955" /><path
           d="m 185.27,234.15 c 0.14,1.67 -1.12,2.73 -2.83,2.73 -2.29,0 -3.77,-1.48 -4,-4.18 -0.25,-2.88 1.29,-4.46 3.72,-4.46 a 4.44,4.44 0 0 1 2.25,0.54 l -0.47,1.18 a 2.94,2.94 0 0 0 -1.63,-0.41 c -1.58,0 -2.49,1 -2.32,2.89 v 0 a 2.62,2.62 0 0 1 2.16,-0.88 2.91,2.91 0 0 1 3.12,2.59 z m -1.51,0.07 a 1.61,1.61 0 0 0 -1.8,-1.42 c -1,0 -1.65,0.61 -1.58,1.44 a 1.67,1.67 0 0 0 1.87,1.41 c 0.97,0 1.59,-0.55 1.51,-1.43 z"
           style="fill:#ffffff"
           id="path2957" /><path
           d="m 123.18,198.52 0.1,1 -2.62,7.35 H 119 l 2.53,-7.08 h -3.29 l 0.12,1.43 h -1.46 l -0.24,-2.75 z"
           style="fill:#ffffff"
           id="path2959" /><path
           d="m 153.18,204.51 c 0.13,1.56 -1.14,2.53 -3.22,2.53 -2.08,0 -3.51,-1 -3.64,-2.53 a 1.9,1.9 0 0 1 1.17,-2 2.13,2.13 0 0 1 -1.2,-1.77 c -0.13,-1.44 1.05,-2.34 2.91,-2.34 1.86,0 3.22,0.9 3.35,2.34 a 1.74,1.74 0 0 1 -0.91,1.77 2.35,2.35 0 0 1 1.54,2 z m -1.58,0 c -0.07,-0.83 -0.83,-1.34 -2,-1.34 -1.17,0 -1.8,0.51 -1.73,1.34 0.07,0.83 0.82,1.36 2,1.36 1.18,0 1.81,-0.56 1.73,-1.41 z m -3.77,-3.64 c 0.06,0.72 0.7,1.17 1.69,1.17 0.99,0 1.56,-0.45 1.5,-1.17 -0.06,-0.72 -0.75,-1.19 -1.71,-1.19 -0.96,0 -1.55,0.38 -1.48,1.14 z"
           style="fill:#ffffff"
           id="path2961" /><path
           d="m 182.27,202.58 c 0.25,2.88 -1.29,4.46 -3.73,4.46 a 4.44,4.44 0 0 1 -2.25,-0.54 l 0.47,-1.17 a 3.11,3.11 0 0 0 1.63,0.4 c 1.59,0 2.49,-1 2.33,-2.89 v 0 a 2.63,2.63 0 0 1 -2.17,0.88 2.9,2.9 0 0 1 -3.11,-2.58 c -0.15,-1.67 1.11,-2.73 2.83,-2.73 2.29,-0.01 3.73,1.47 4,4.17 z m -2,-1.54 a 1.67,1.67 0 0 0 -1.86,-1.41 c -1,0 -1.6,0.55 -1.52,1.42 a 1.62,1.62 0 0 0 1.8,1.43 c 1.06,0 1.7,-0.61 1.63,-1.48 z"
           style="fill:#ffffff"
           id="path2963" /><path
           d="m 188.23,293 a 2.58,2.58 0 0 1 -0.19,1 l -0.46,1.69 h -1 l 0.32,-1.83 a 1,1 0 0 1 -0.65,-0.89 0.86,0.86 0 0 1 0.89,-1 1,1 0 0 1 1.09,1.03 z"
           style="fill:#ffffff"
           id="path2965" /><path
           d="m 212.94,289.13 h 5.53 l 0.1,1.2 H 213 Z m 0.25,2.9 h 5.53 l 0.1,1.2 h -5.52 z"
           style="fill:#ffffff"
           id="path2967" /><path
           d="m 216.53,262.39 h -2.13 l 0.19,2.1 h -1.29 l -0.18,-2.1 H 211 l -0.11,-1.2 H 213 l -0.19,-2.1 h 1.28 l 0.19,2.1 h 2.12 z"
           style="fill:#ffffff"
           id="path2969" /><path
           d="m 210.78,205.28 -1.63,-1.5 -1.35,1.48 -1,-0.91 1.35,-1.48 -1.63,-1.5 0.77,-0.85 1.64,1.5 1.35,-1.48 1,0.9 -1.36,1.49 1.64,1.5 z"
           style="fill:#ffffff"
           id="path2971" /><path
           d="m 210.29,232.8 h 3.3 l 0.11,1.24 h -3.3 z"
           style="fill:#ffffff"
           id="path2973" /><path
           d="m 208.74,173.85 0.07,0.78 h -6.43 l -0.07,-0.78 z"
           style="fill:#ffffff"
           id="path2975" /><path
           d="m 206.09,171.34 a 0.71,0.71 0 0 1 -0.72,0.79 0.88,0.88 0 0 1 -0.86,-0.79 0.72,0.72 0 0 1 0.72,-0.79 0.88,0.88 0 0 1 0.86,0.79 z"
           style="fill:#ffffff"
           id="path2977" /><path
           d="m 206.6,177.09 a 0.71,0.71 0 0 1 -0.72,0.78 0.88,0.88 0 0 1 -0.86,-0.78 0.71,0.71 0 0 1 0.72,-0.79 0.88,0.88 0 0 1 0.86,0.79 z"
           style="fill:#ffffff"
           id="path2979" /><path
           d="m 172.17,171.7 c -0.12,-1.38 0.6,-2.31 1.8,-2.31 a 2.29,2.29 0 0 1 2.22,2.31 c 0.12,1.39 -0.62,2.3 -1.82,2.3 a 2.27,2.27 0 0 1 -2.2,-2.3 z m 3,0 c -0.08,-0.94 -0.51,-1.47 -1.16,-1.47 -0.65,0 -1,0.54 -0.9,1.47 0.1,0.93 0.54,1.46 1.16,1.46 0.62,0 1.01,-0.53 0.93,-1.46 z m 3.81,-2.22 h 1.18 l -5,8.39 H 174 Z m -1,6.18 c -0.12,-1.38 0.6,-2.31 1.8,-2.31 a 2.29,2.29 0 0 1 2.22,2.31 c 0.12,1.37 -0.62,2.3 -1.82,2.3 a 2.27,2.27 0 0 1 -2.18,-2.3 z m 3,0 c -0.08,-0.93 -0.52,-1.47 -1.16,-1.47 -0.64,0 -1,0.53 -0.9,1.47 0.1,0.94 0.52,1.46 1.16,1.46 0.64,0 1.05,-0.54 0.97,-1.46 z"
           style="fill:#ffffff"
           id="path2981" /><path
           d="m 114.69,174.67 a 2.93,2.93 0 0 1 3.18,-3.27 3.19,3.19 0 0 1 2.87,1.48 l -1.1,0.68 a 2,2 0 0 0 -1.67,-0.89 1.71,1.71 0 0 0 -1.77,2 2.08,2.08 0 0 0 2.12,2 1.63,1.63 0 0 0 1.52,-0.88 l 1.21,0.67 a 2.64,2.64 0 0 1 -2.6,1.5 3.62,3.62 0 0 1 -3.76,-3.29 z"
           style="fill:#ffffff"
           id="path2983" /><polygon
           points="151.93,177.09 151.36,170.55 144.47,170.55 141.67,173.85 145.04,177.09 "
           style="fill:#ffffff"
           id="polygon2985" /><path
           d="m 150.17,172.19 -1.61,1.81 1.84,1.69 -0.41,0.44 -1.83,-1.68 -1.62,1.77 -0.52,-0.48 1.62,-1.77 -1.84,-1.69 0.41,-0.45 1.83,1.69 1.61,-1.76 z"
           style="fill:#263238"
           id="path2987" /><g
           style="opacity:0.1"
           id="g2993"><path
             d="m 165,88.59 60.14,223.71 a 12.64,12.64 0 0 1 -7.51,2.39 h -4.71 l -60.8,-226.1 z"
             style="fill:#ffffff"
             id="path2989" /><path
             d="m 109.85,79 h 22.66 a 3.29,3.29 0 0 1 3.15,2.57 l 0.15,0.71 a 8,8 0 0 0 7.41,6.28 L 204,314.69 H 157.65 L 97.37,90.54 A 12.27,12.27 0 0 1 109.85,79 Z"
             style="fill:#ffffff"
             id="path2991" /></g></g><g
         id="freepik--Table--inject-24"><path
           d="m 118.12,356.61 v 61.78 a 2.79,2.79 0 0 0 2.78,2.78 v 0 a 2.8,2.8 0 0 0 2.76,-2.38 l 5.5,-61.87 a 2.78,2.78 0 0 0 -2.8,-3.18 l -5.5,0.08 a 2.79,2.79 0 0 0 -2.74,2.79 z"
           style="fill:#263238"
           id="path2996" /><path
           d="m 198.86,356.61 v 61.78 a 2.79,2.79 0 0 1 -2.78,2.78 v 0 a 2.79,2.79 0 0 1 -2.76,-2.38 l -5.5,-61.87 a 2.78,2.78 0 0 1 2.8,-3.18 l 5.5,0.08 a 2.79,2.79 0 0 1 2.74,2.79 z"
           style="fill:#263238"
           id="path2998" /><path
           d="m 203.39,357.17 h -90.76 a 4.62,4.62 0 0 1 -4.62,-4.61 v 0 a 4.62,4.62 0 0 1 4.62,-4.62 h 90.76 a 4.62,4.62 0 0 1 4.62,4.62 v 0 a 4.62,4.62 0 0 1 -4.62,4.61 z"
           style="fill:#263238"
           id="path3000" /><polygon
           points="125.65,348.25 123.94,320.77 121.22,348.25 "
           style="fill:#263238"
           id="polygon3002" /><polygon
           points="157,348.09 125.19,348.22 123.64,320.77 155.44,320.64 "
           style="fill:#006642"
           id="polygon3004" /><polygon
           points="157,348.09 125.19,348.22 123.64,320.77 155.44,320.64 "
           style="opacity:0.6;fill:#ffffff"
           id="polygon3006" /><polygon
           points="155.44,320.64 123.64,320.77 123.34,315.64 155.15,315.5 "
           style="fill:#263238"
           id="polygon3008" /><path
           d="m 128.1,313.92 a 0.9,0.9 0 0 0 -0.89,-0.84 0.79,0.79 0 0 0 -0.8,0.85 c 0,0.3 0.17,3.09 0.19,3.39 a 0.89,0.89 0 0 0 0.89,0.84 0.79,0.79 0 0 0 0.8,-0.85 c -0.01,-0.24 -0.17,-3.15 -0.19,-3.39 z"
           style="fill:#006642"
           id="path3010" /><path
           d="m 134.22,313.9 a 0.9,0.9 0 0 0 -0.89,-0.85 0.79,0.79 0 0 0 -0.8,0.85 c 0,0.3 0.17,3.09 0.19,3.39 a 0.91,0.91 0 0 0 0.9,0.85 0.8,0.8 0 0 0 0.8,-0.85 c -0.02,-0.24 -0.18,-3.15 -0.2,-3.39 z"
           style="fill:#006642"
           id="path3012" /><path
           d="m 140.35,313.87 a 0.9,0.9 0 0 0 -0.9,-0.84 0.79,0.79 0 0 0 -0.8,0.85 c 0,0.3 0.18,3.09 0.19,3.39 a 0.91,0.91 0 0 0 0.9,0.84 0.8,0.8 0 0 0 0.8,-0.85 c -0.02,-0.26 -0.18,-3.15 -0.19,-3.39 z"
           style="fill:#006642"
           id="path3014" /><path
           d="m 146.47,313.84 a 0.91,0.91 0 0 0 -0.9,-0.84 0.8,0.8 0 0 0 -0.8,0.85 c 0,0.3 0.18,3.09 0.2,3.39 a 0.9,0.9 0 0 0 0.89,0.85 0.8,0.8 0 0 0 0.8,-0.85 c -0.01,-0.24 -0.18,-3.16 -0.19,-3.4 z"
           style="fill:#006642"
           id="path3016" /><path
           d="m 152.59,313.82 a 0.9,0.9 0 0 0 -0.89,-0.84 0.79,0.79 0 0 0 -0.8,0.85 c 0,0.3 0.17,3.09 0.19,3.39 a 0.89,0.89 0 0 0 0.89,0.84 0.79,0.79 0 0 0 0.8,-0.85 c -0.01,-0.21 -0.18,-3.15 -0.19,-3.39 z"
           style="fill:#006642"
           id="path3018" /><g
           style="opacity:0.7"
           id="g3030"><path
             d="m 128.1,313.92 a 0.9,0.9 0 0 0 -0.89,-0.84 0.79,0.79 0 0 0 -0.8,0.85 c 0,0.3 0.17,3.09 0.19,3.39 a 0.89,0.89 0 0 0 0.89,0.84 0.79,0.79 0 0 0 0.8,-0.85 c -0.01,-0.24 -0.17,-3.15 -0.19,-3.39 z"
             style="fill:#ffffff"
             id="path3020" /><path
             d="m 134.22,313.9 a 0.9,0.9 0 0 0 -0.89,-0.85 0.79,0.79 0 0 0 -0.8,0.85 c 0,0.3 0.17,3.09 0.19,3.39 a 0.91,0.91 0 0 0 0.9,0.85 0.8,0.8 0 0 0 0.8,-0.85 c -0.02,-0.24 -0.18,-3.15 -0.2,-3.39 z"
             style="fill:#ffffff"
             id="path3022" /><path
             d="m 140.35,313.87 a 0.9,0.9 0 0 0 -0.9,-0.84 0.79,0.79 0 0 0 -0.8,0.85 c 0,0.3 0.18,3.09 0.19,3.39 a 0.91,0.91 0 0 0 0.9,0.84 0.8,0.8 0 0 0 0.8,-0.85 c -0.02,-0.26 -0.18,-3.15 -0.19,-3.39 z"
             style="fill:#ffffff"
             id="path3024" /><path
             d="m 146.47,313.84 a 0.91,0.91 0 0 0 -0.9,-0.84 0.8,0.8 0 0 0 -0.8,0.85 c 0,0.3 0.18,3.09 0.2,3.39 a 0.9,0.9 0 0 0 0.89,0.85 0.8,0.8 0 0 0 0.8,-0.85 c -0.01,-0.24 -0.18,-3.16 -0.19,-3.4 z"
             style="fill:#ffffff"
             id="path3026" /><path
             d="m 152.59,313.82 a 0.9,0.9 0 0 0 -0.89,-0.84 0.79,0.79 0 0 0 -0.8,0.85 c 0,0.3 0.17,3.09 0.19,3.39 a 0.89,0.89 0 0 0 0.89,0.84 0.79,0.79 0 0 0 0.8,-0.85 c -0.01,-0.21 -0.18,-3.15 -0.19,-3.39 z"
             style="fill:#ffffff"
             id="path3028" /></g><polygon
           points="157.88,347.32 126.08,347.45 123.64,320.77 155.44,320.64 "
           style="fill:#006642"
           id="polygon3032" /><polygon
           points="157.88,347.32 126.08,347.45 123.64,320.77 155.44,320.64 "
           style="opacity:0.8;fill:#ffffff"
           id="polygon3034" /><polygon
           points="148.71,327.22 132.96,327.29 132.53,322.6 148.28,322.53 "
           style="fill:#006642"
           id="polygon3036" /><polygon
           points="148.71,327.22 132.96,327.29 132.53,322.6 148.28,322.53 "
           style="opacity:0.6;fill:#ffffff"
           id="polygon3038" /><polygon
           points="130.87,333.37 126.66,333.38 126.28,329.18 130.48,329.16 "
           style="fill:#ffffff"
           id="polygon3040" /><polygon
           points="136.83,333.34 132.63,333.36 132.24,329.15 136.45,329.13 "
           style="fill:#ffffff"
           id="polygon3042" /><polygon
           points="131.38,339.04 127.18,339.06 126.79,334.85 131,334.83 "
           style="fill:#006642"
           id="polygon3044" /><polygon
           points="131.9,344.71 127.7,344.73 127.31,340.52 131.52,340.5 "
           style="fill:#006642"
           id="polygon3046" /><polygon
           points="137.35,339.01 133.15,339.03 132.76,334.82 136.97,334.81 "
           style="fill:#006642"
           id="polygon3048" /><polygon
           points="137.35,339.01 133.15,339.03 132.76,334.82 136.97,334.81 "
           style="opacity:0.2;fill:#ffffff"
           id="polygon3050" /><polygon
           points="143.32,338.99 139.11,339 138.73,334.8 142.93,334.78 "
           style="fill:#006642"
           id="polygon3052" /><polygon
           points="143.32,338.99 139.11,339 138.73,334.8 142.93,334.78 "
           style="opacity:0.2;fill:#ffffff"
           id="polygon3054" /><polygon
           points="149.28,338.96 145.08,338.98 144.69,334.77 148.9,334.76 "
           style="fill:#006642"
           id="polygon3056" /><polygon
           points="149.28,338.96 145.08,338.98 144.69,334.77 148.9,334.76 "
           style="opacity:0.2;fill:#ffffff"
           id="polygon3058" /><polygon
           points="155.25,338.94 151.04,338.96 150.66,334.75 154.86,334.73 "
           style="fill:#006642"
           id="polygon3060" /><polygon
           points="155.25,338.94 151.04,338.96 150.66,334.75 154.86,334.73 "
           style="opacity:0.2;fill:#ffffff"
           id="polygon3062" /><polygon
           points="137.87,344.69 133.66,344.7 133.28,340.5 137.48,340.48 "
           style="fill:#006642"
           id="polygon3064" /><polygon
           points="137.87,344.69 133.66,344.7 133.28,340.5 137.48,340.48 "
           style="opacity:0.2;fill:#ffffff"
           id="polygon3066" /><polygon
           points="143.84,344.66 139.63,344.68 139.25,340.47 143.45,340.45 "
           style="fill:#006642"
           id="polygon3068" /><polygon
           points="143.84,344.66 139.63,344.68 139.25,340.47 143.45,340.45 "
           style="opacity:0.2;fill:#ffffff"
           id="polygon3070" /><polygon
           points="149.8,344.64 145.59,344.65 145.21,340.45 149.42,340.43 "
           style="fill:#006642"
           id="polygon3072" /><polygon
           points="149.8,344.64 145.59,344.65 145.21,340.45 149.42,340.43 "
           style="opacity:0.2;fill:#ffffff"
           id="polygon3074" /><polygon
           points="142.8,333.31 138.59,333.33 138.21,329.13 142.41,329.11 "
           style="fill:none"
           id="polygon3076" /><polygon
           points="142.8,333.31 138.59,333.33 138.21,329.13 142.41,329.11 "
           style="fill:#006642"
           id="polygon3078" /><polygon
           points="142.8,333.31 138.59,333.33 138.21,329.13 142.41,329.11 "
           style="opacity:0.2;fill:#ffffff"
           id="polygon3080" /><polygon
           points="148.76,333.29 144.56,333.31 144.17,329.1 148.38,329.08 "
           style="fill:none"
           id="polygon3082" /><polygon
           points="148.76,333.29 144.56,333.31 144.17,329.1 148.38,329.08 "
           style="fill:#006642"
           id="polygon3084" /><polygon
           points="148.76,333.29 144.56,333.31 144.17,329.1 148.38,329.08 "
           style="opacity:0.2;fill:#ffffff"
           id="polygon3086" /><polygon
           points="154.73,333.26 150.52,333.28 150.14,329.08 154.34,329.06 "
           style="fill:none"
           id="polygon3088" /><polygon
           points="154.73,333.26 150.52,333.28 150.14,329.08 154.34,329.06 "
           style="fill:#006642"
           id="polygon3090" /><polygon
           points="154.73,333.26 150.52,333.28 150.14,329.08 154.34,329.06 "
           style="opacity:0.2;fill:#ffffff"
           id="polygon3092" /><polygon
           points="155.77,344.61 151.56,344.63 151.18,340.42 155.38,340.4 "
           style="fill:#ffffff"
           id="polygon3094" /><path
           d="m 190.57,340.47 v 6.36 a 0.61,0.61 0 0 1 0,1.21 c -2.42,0 -4.85,0 -7.27,0 v -8.83 h 7.27 a 0.63,0.63 0 0 1 0,1.26 z"
           style="fill:#006642"
           id="path3096" /><path
           d="m 190.57,340.47 v 6.36 a 0.61,0.61 0 0 1 0,1.21 c -2.42,0 -4.85,0 -7.27,0 v -8.83 h 7.27 a 0.63,0.63 0 0 1 0,1.26 z"
           style="opacity:0.3;fill:#ffffff"
           id="path3098" /><rect
           x="184.92"
           y="340.48001"
           width="5.6500001"
           height="6.3499999"
           style="fill:#006642"
           id="rect3100" /><rect
           x="184.92"
           y="340.48001"
           width="5.6500001"
           height="6.3499999"
           style="opacity:0.6;fill:#ffffff"
           id="rect3102" /><path
           d="m 186.11,339.86 h -31.19 c -1.34,0 -2.43,1.7 -2.43,3.79 0,2.09 1.09,3.79 2.43,3.79 h 31.19 z"
           style="fill:#006642"
           id="path3104" /><path
           d="m 186.11,339.86 h -31.19 c -1.34,0 -2.43,1.7 -2.43,3.79 0,2.09 1.09,3.79 2.43,3.79 h 31.19 z"
           style="opacity:0.9;fill:#ffffff"
           id="path3106" /><path
           d="m 186.11,348 c -6.41,0 -24.44,0.12 -30.85,0 -4.39,-0.07 -4.62,-8.49 -0.32,-8.79 3,-0.2 6.1,0 9.1,0 h 22.07 a 0.61,0.61 0 0 1 0,1.22 h -29.83 c -1.41,0 -2.41,0 -3,1.67 -0.47,1.44 -0.32,4.37 1.6,4.69 a 4.85,4.85 0 0 0 0.66,0 h 30.53 a 0.61,0.61 0 0 1 0,1.21 z"
           style="fill:#006642"
           id="path3108" /><path
           d="m 188.55,339.09 -5.08,0.07 a 3.39,3.39 0 0 1 1.34,-2.71 3.47,3.47 0 0 1 0.9,-0.4 2.63,2.63 0 0 1 1.29,1 9.34,9.34 0 0 1 0.83,1.48 1,1 0 0 0 0.72,0.56 z"
           style="fill:#006642"
           id="path3110" /><g
           style="opacity:0.3"
           id="g3114"><path
             d="m 188.55,339.09 -5,-0.06 a 3,3 0 0 1 1.22,-2.58 3.47,3.47 0 0 1 0.9,-0.4 2.63,2.63 0 0 1 1.29,1 9.34,9.34 0 0 1 0.83,1.48 1,1 0 0 0 0.76,0.56 z"
             id="path3112" /></g><path
           d="m 180.08,339.1 h -5.56 a 9.7,9.7 0 0 1 0.86,-3 5.75,5.75 0 0 1 1.68,-2 6.15,6.15 0 0 1 1.65,-0.72 c 1,0.46 0.78,4.9 1.36,5.37 z"
           style="fill:#006642"
           id="path3116" /><path
           d="m 185.63,336.08 a 3.18,3.18 0 0 0 -0.82,0.36 3.09,3.09 0 0 0 -1.21,2.46 0.62,0.62 0 0 0 0,0.13 1,1 0 0 1 -0.32,-0.11 0.82,0.82 0 0 0 0.35,0.13 h -3.6 v -0.28 0 c 0.21,0 0,-3.16 1.43,-2.73 0,0 0,0 0,-0.05 z"
           style="fill:#006642"
           id="path3118" /><path
           d="m 158.93,333.25 h -0.4 a 2.09,2.09 0 0 1 0.4,0 z"
           style="fill:#006642"
           id="path3120" /><path
           d="m 180.07,339.1 h -5.55 a 9.7,9.7 0 0 1 0.86,-3 5.75,5.75 0 0 1 1.68,-2 6.15,6.15 0 0 1 1.65,-0.72 c 1,0.46 0.79,4.9 1.37,5.37 z"
           style="fill:#006642"
           id="path3122" /><path
           d="m 183.67,339.09 h -9.15 a 9.7,9.7 0 0 1 0.86,-3 5.75,5.75 0 0 1 1.68,-2 6.15,6.15 0 0 1 1.65,-0.72 c 1,0.46 0.79,4.9 1.37,5.37 0.24,0.2 2.9,-0.07 3.24,0.14 a 0.82,0.82 0 0 0 0.35,0.21 z"
           style="opacity:0.3"
           id="path3124" /><path
           d="M 183.62,339 Z"
           style="fill:#006642"
           id="path3126" /><path
           d="m 178.9,333.39 a 6.15,6.15 0 0 0 -1.65,0.72 5.75,5.75 0 0 0 -1.68,2 7,7 0 0 0 -0.74,3 11.07,11.07 0 0 0 0.07,1.67 9.76,9.76 0 0 0 0.43,2 h -20.21 a 7.36,7.36 0 0 1 -0.24,-5.59 7,7 0 0 1 3.7,-3.82 h 0.64 z"
           style="fill:#006642"
           id="path3128" /><path
           d="m 178.9,333.39 a 6.15,6.15 0 0 0 -1.65,0.72 5.75,5.75 0 0 0 -1.68,2 7,7 0 0 0 -0.74,3 11.07,11.07 0 0 0 0.07,1.67 9.76,9.76 0 0 0 0.43,2 h -20.21 a 7.36,7.36 0 0 1 -0.24,-5.59 7,7 0 0 1 3.7,-3.82 h 0.64 z"
           style="opacity:0.3;fill:#ffffff"
           id="path3130" /></g><g
         id="freepik--Character--inject-24"><path
           d="m 387.53,395.3 5.81,-92.51 a 59.66,59.66 0 0 0 -59.55,-63.41 v 0 a 59.67,59.67 0 0 0 -59.58,56.32 l -6.09,108 h 110.43 a 9,9 0 0 0 8.98,-8.4 z"
           style="fill:#006642"
           id="path3133" /><path
           d="m 387.74,392 5.6,-89.16 a 59.66,59.66 0 0 0 -59.55,-63.41 v 0 a 59.67,59.67 0 0 0 -59.58,56.32 l -6.09,108 H 375.19 A 12.57,12.57 0 0 0 387.74,392 Z"
           style="opacity:0.1"
           id="path3135" /><path
           d="M 369.61,403.74 376,302.79 a 59.67,59.67 0 0 0 -59.55,-63.41 v 0 a 59.67,59.67 0 0 0 -59.58,56.32 l -6.1,108 z"
           style="fill:#006642"
           id="path3137" /><path
           d="M 371.51,421.12 H 373 a 1.75,1.75 0 0 0 1.63,-1.55 l 2.25,-15.82 h -9.29 l 2.25,15.82 a 1.75,1.75 0 0 0 1.67,1.55 z"
           style="fill:#263238"
           id="path3139" /><path
           d="m 222,421.12 h 1.38 a 1.67,1.67 0 0 0 1.48,-1.55 l 2,-15.82 h -8.41 l 2,15.82 a 1.66,1.66 0 0 0 1.55,1.55 z"
           style="fill:#263238"
           id="path3141" /><path
           d="m 265.07,421.12 h 1.39 a 1.65,1.65 0 0 0 1.47,-1.55 l 2,-15.82 h -8.41 l 2,15.82 a 1.65,1.65 0 0 0 1.55,1.55 z"
           style="fill:#263238"
           id="path3143" /><path
           d="m 325.18,421.12 h 1.52 a 1.74,1.74 0 0 0 1.63,-1.55 l 2.25,-15.82 h -9.28 l 2.25,15.82 a 1.75,1.75 0 0 0 1.63,1.55 z"
           style="fill:#263238"
           id="path3145" /><path
           d="m 274.81,365.62 h -40.69 l -2.69,-39.22 -0.58,-8.42 v 0 l -0.26,-3.87 a 27.13,27.13 0 0 0 -0.4,-3 c 0,-0.21 -0.1,-0.45 -0.14,-0.67 a 2.59,2.59 0 0 0 -0.12,-0.48 23.51,23.51 0 0 0 -6.2,-10.53 20,20 0 0 0 -12.7,-5.73 h 38.26 1.26 a 19.87,19.87 0 0 1 13.86,5.76 23.51,23.51 0 0 1 6.2,10.53 2.59,2.59 0 0 1 0.12,0.48 26.1,26.1 0 0 1 0.54,3.71 l 0.27,3.87 v 0 z"
           style="fill:#006642"
           id="path3147" /><path
           d="m 274.81,365.62 h -40.69 l -2.69,-39.22 -0.58,-8.42 v 0 l -0.26,-3.87 a 27.13,27.13 0 0 0 -0.4,-3 c 0,-0.21 -0.1,-0.45 -0.14,-0.67 a 2.59,2.59 0 0 0 -0.12,-0.48 23.51,23.51 0 0 0 -6.2,-10.53 20,20 0 0 0 -12.7,-5.73 h 38.26 1.26 a 19.87,19.87 0 0 1 13.86,5.76 23.51,23.51 0 0 1 6.2,10.53 2.59,2.59 0 0 1 0.12,0.48 26.1,26.1 0 0 1 0.54,3.71 l 0.27,3.87 v 0 z"
           style="opacity:0.1"
           id="path3149" /><g
           style="opacity:0.1"
           id="g3153"><path
             d="m 307.05,344.72 h 16.34 c 4,0 7.19,2.52 7.19,5.62 V 360 c 0,3.1 -3.22,5.61 -7.19,5.61 h -16.34 z"
             id="path3151" /></g><rect
           x="234.13"
           y="344.72"
           width="84.360001"
           height="20.9"
           rx="5.4200001"
           transform="rotate(180,276.31,355.175)"
           style="fill:#006642"
           id="rect3155" /><path
           d="m 410.05,316.78 a 23.18,23.18 0 0 1 -19.23,22.85 l -4.22,55.74 c -0.36,4.74 -3.8,8.37 -7.92,8.37 h -44.87 c 4.11,0 7.55,-3.63 7.92,-8.37 l 2.27,-29.75 2,-26 a 23.1,23.1 0 0 0 16.63,-12.2 c 0.22,-0.4 0.42,-0.83 0.6,-1.25 a 23.08,23.08 0 0 0 1.51,-14.13 c -0.12,-0.62 -0.28,-1.24 -0.45,-1.84 a 23.51,23.51 0 0 0 -3.85,-7.54 v 0 a 23.11,23.11 0 0 0 -8,-6.6 22.85,22.85 0 0 0 -10.44,-2.45 h 44.88 a 23.18,23.18 0 0 1 6.85,1 22.41,22.41 0 0 1 3.51,1.42 23.08,23.08 0 0 1 8,6.6 v 0 a 23.16,23.16 0 0 1 4.81,14.15 z"
           style="fill:#006642"
           id="path3157" /><path
           d="m 410.05,316.78 a 23.18,23.18 0 0 1 -19.23,22.85 l -4.22,55.74 c -0.36,4.74 -3.8,8.37 -7.92,8.37 h -44.87 c 4.11,0 7.55,-3.63 7.92,-8.37 l 2.27,-29.75 2,-26 a 23.1,23.1 0 0 0 16.63,-12.2 c 0.22,-0.4 0.42,-0.83 0.6,-1.25 a 23.08,23.08 0 0 0 1.51,-14.13 c -0.12,-0.62 -0.28,-1.24 -0.45,-1.84 a 23.51,23.51 0 0 0 -3.85,-7.54 v 0 a 23.11,23.11 0 0 0 -8,-6.6 22.85,22.85 0 0 0 -10.44,-2.45 h 44.88 a 23.18,23.18 0 0 1 6.85,1 22.41,22.41 0 0 1 3.51,1.42 23.08,23.08 0 0 1 8,6.6 v 0 a 23.16,23.16 0 0 1 4.81,14.15 z"
           style="opacity:0.1"
           id="path3159" /><path
           d="m 365.17,316.78 c 0,11.45 -7.53,21 -17.43,22.85 l -3.82,55.74 c -0.33,4.74 -3.44,8.38 -7.19,8.38 H 216.91 c -3.74,0 -6.85,-3.64 -7.19,-8.38 l -3.83,-55.83 c -9.7,-2 -17,-11.45 -17,-22.76 a 24.63,24.63 0 0 1 3.88,-13.39 21.64,21.64 0 0 1 7.75,-7.33 19.14,19.14 0 0 1 9.39,-2.46 19.88,19.88 0 0 1 13.86,5.77 23.39,23.39 0 0 1 6.2,10.52 2.8,2.8 0 0 1 0.12,0.5 24.42,24.42 0 0 1 0.54,3.7 l 0.27,3.87 v 0 l 3.26,47.65 h 85.4 l 3.53,-51.53 c 0.51,-7.28 4.05,-13.34 9,-16.22 a 19.55,19.55 0 0 1 10.88,-4.21 10.63,10.63 0 0 1 1.26,-0.06 19.14,19.14 0 0 1 9.13,2.32 l 0.26,0.14 a 21.61,21.61 0 0 1 7.27,6.6 v 0 a 24.67,24.67 0 0 1 4.28,14.13 z"
           style="fill:#006642"
           id="path3161" /><path
           d="M 317.54,403.75 H 216.91 c -3.74,0 -6.85,-3.64 -7.19,-8.38 l -3.83,-55.83 c -9.7,-2 -17,-11.45 -17,-22.76 a 24.63,24.63 0 0 1 3.88,-13.39 21.64,21.64 0 0 1 7.75,-7.33 19.14,19.14 0 0 1 9.39,-2.46 19.88,19.88 0 0 1 13.86,5.77 23.39,23.39 0 0 1 6.2,10.52 2.8,2.8 0 0 1 0.12,0.5 24.42,24.42 0 0 1 0.54,3.7 l 0.27,3.87 v 0 l 3.26,47.65 h 85.4 z"
           style="opacity:0.1;fill:#ffffff"
           id="path3163" /><path
           d="m 319.52,365.62 3.53,-51.53 c 0.51,-7.28 4.05,-13.34 9,-16.22 a 19.55,19.55 0 0 1 10.88,-4.21 10.63,10.63 0 0 1 1.26,-0.06 19.14,19.14 0 0 1 9.13,2.32 l 0.26,0.14 a 21.61,21.61 0 0 1 7.27,6.6 v 0 a 24.67,24.67 0 0 1 4.34,14.11 c 0,11.45 -7.53,21 -17.43,22.85 l -3.82,55.74 c -0.33,4.74 -3.44,8.38 -7.19,8.38 h -19.21 z"
           style="fill:#006642"
           id="path3165" /><path
           d="m 319.52,365.62 3.53,-51.53 c 0.51,-7.28 4.05,-13.34 9,-16.22 a 19.55,19.55 0 0 1 10.88,-4.21 10.63,10.63 0 0 1 1.26,-0.06 19.14,19.14 0 0 1 9.13,2.32 l 0.26,0.14 a 21.61,21.61 0 0 1 7.27,6.6 v 0 a 24.67,24.67 0 0 1 4.34,14.11 c 0,11.45 -7.53,21 -17.43,22.85 l -3.82,55.74 c -0.33,4.74 -3.44,8.38 -7.19,8.38 h -19.21 z"
           style="opacity:0.1;fill:#ffffff"
           id="path3167" /><path
           d="m 287.54,234.54 c -9.75,1.93 -29.06,10.23 -29.18,9.77 0,0 -16.26,-3.85 -22.93,-11.22 0,0 -6.38,-0.79 -9.73,-1.44 2.43,5.71 7.15,12.63 12.4,15.93 6.67,4.19 8.49,5.46 15.09,8 8.26,3.14 20.9,-0.2 29.07,-3.55 3,-1.23 6.11,-2.8 7.88,-5.54 1.77,-2.74 0.1,-10.12 -2.6,-11.95 z"
           style="fill:#263238"
           id="path3169" /><path
           d="m 287.54,234.54 c -9.75,1.93 -29.06,10.23 -29.18,9.77 0,0 -16.26,-3.85 -22.93,-11.22 0,0 -6.38,-0.79 -9.73,-1.44 2.43,5.71 7.15,12.63 12.4,15.93 6.67,4.19 8.49,5.46 15.09,8 8.26,3.14 20.9,-0.2 29.07,-3.55 3,-1.23 6.11,-2.8 7.88,-5.54 1.77,-2.74 0.1,-10.12 -2.6,-11.95 z"
           style="opacity:0.3;isolation:isolate"
           id="path3171" /><path
           d="m 249.42,235.11 -13,0.74 a 0.75,0.75 0 0 1 -0.76,-0.64 l -3.09,-25.75 a 0.62,0.62 0 0 1 0.59,-0.71 L 246,208 a 0.74,0.74 0 0 1 0.76,0.64 L 250,234.4 a 0.62,0.62 0 0 1 -0.58,0.71 z"
           style="fill:#263238"
           id="path3173" /><path
           d="m 249.42,235.11 -13,0.74 a 0.75,0.75 0 0 1 -0.76,-0.64 l -3.09,-25.75 a 0.62,0.62 0 0 1 0.59,-0.71 L 246,208 a 0.74,0.74 0 0 1 0.76,0.64 L 250,234.4 a 0.62,0.62 0 0 1 -0.58,0.71 z"
           style="opacity:0.7;fill:#ffffff"
           id="path3175" /><path
           d="m 248.84,234.72 -12.64,0.71 a 0.85,0.85 0 0 1 -0.88,-0.73 l -3.24,-25.53 a 0.73,0.73 0 0 1 0.68,-0.83 l 12.64,-0.71 a 0.85,0.85 0 0 1 0.88,0.73 l 3.24,25.54 a 0.72,0.72 0 0 1 -0.68,0.82 z"
           style="fill:#263238"
           id="path3177" /><path
           d="m 248.84,234.72 -12.64,0.71 a 0.85,0.85 0 0 1 -0.88,-0.73 l -3.24,-25.53 a 0.73,0.73 0 0 1 0.68,-0.83 l 12.64,-0.71 a 0.85,0.85 0 0 1 0.88,0.73 l 3.24,25.54 a 0.72,0.72 0 0 1 -0.68,0.82 z"
           style="opacity:0.2;fill:#ffffff"
           id="path3179" /><path
           d="m 236.29,209.28 0.85,6.69 a 0.31,0.31 0 0 1 -0.29,0.35 l -2.88,0.16 a 0.35,0.35 0 0 1 -0.17,0 0.35,0.35 0 0 1 -0.21,-0.27 l -0.85,-6.69 a 0.32,0.32 0 0 1 0.3,-0.36 l 2.87,-0.16 a 0.32,0.32 0 0 1 0.31,0.16 0.29,0.29 0 0 1 0.07,0.12 z"
           style="opacity:0.4"
           id="path3181" /><path
           d="m 236.44,209.4 0.85,6.69 a 0.32,0.32 0 0 1 -0.29,0.36 l -2.88,0.16 a 0.35,0.35 0 0 1 -0.32,-0.17 0.35,0.35 0 0 0 0.17,0 l 2.88,-0.16 a 0.31,0.31 0 0 0 0.29,-0.35 l -0.85,-6.69 a 0.29,0.29 0 0 0 -0.07,-0.16 0.36,0.36 0 0 1 0.22,0.32 z"
           style="opacity:0.5"
           id="path3183" /><path
           d="m 236,210.86 a 1.19,1.19 0 0 1 -1.12,1.36 1.4,1.4 0 0 1 -1.45,-1.21 1.18,1.18 0 0 1 1.12,-1.35 1.4,1.4 0 0 1 1.45,1.2 z"
           id="path3185" /><path
           d="m 236.43,214.25 a 1.18,1.18 0 0 1 -1.12,1.35 1.4,1.4 0 0 1 -1.45,-1.21 1.18,1.18 0 0 1 1.14,-1.39 1.4,1.4 0 0 1 1.43,1.25 z"
           id="path3187" /><path
           d="m 235.42,214.3 a 0.26,0.26 0 0 1 -0.24,0.29 0.3,0.3 0 0 1 -0.31,-0.26 0.26,0.26 0 0 1 0.24,-0.29 0.31,0.31 0 0 1 0.31,0.26 z"
           style="opacity:0.2;fill:#ffffff"
           id="path3189" /><path
           d="m 235,211 a 0.26,0.26 0 0 1 -0.24,0.29 0.31,0.31 0 0 1 -0.31,-0.26 0.26,0.26 0 0 1 0.24,-0.29 0.3,0.3 0 0 1 0.31,0.26 z"
           style="opacity:0.2;fill:#ffffff"
           id="path3191" /><path
           d="m 241.13,230.28 -4.25,0.86 a 6.45,6.45 0 0 1 -3,2.48 16.64,16.64 0 0 1 -3.71,0.56 4.71,4.71 0 0 1 -4.42,-2.53 1.86,1.86 0 0 1 0.14,-2.09 l 5.34,-5.83 a 2.88,2.88 0 0 1 2.39,-0.93 l 6.18,0.58 a 2.13,2.13 0 0 1 1.74,1.28 l 1.16,2.73 a 2.11,2.11 0 0 1 -1.57,2.89 z"
           style="fill:#ffc3bd"
           id="path3193" /><path
           d="m 331.92,248.54 c -3.23,31.31 -11.28,68.62 -11.28,68.62 -3.28,-3.06 -6.9,-4.65 -12,-5.88 -9.13,-2.19 -28,-6.76 -28,-6.91 -2.1,-0.43 -6.83,-3.09 -7.11,-3 -13,-5.77 -6.92,-20.63 -2.32,-28.77 a 35.25,35.25 0 0 0 4.1,-12.3 c 1,-6.8 3.15,-16 6.51,-21.81 a 8.1,8.1 0 0 1 5.69,-3.95 c 3.38,-0.57 8.23,-1.37 8.17,-1.23 7.16,-0.54 19.74,0.41 20.33,0.42 l 3.5,0.22 a 13.27,13.27 0 0 1 12.41,14.59 z"
           style="fill:#263238"
           id="path3195" /><path
           d="M 314.14,234.79 A 34.48,34.48 0 0 1 295,243.88 c -9.33,1.52 -7,-4.12 -4.48,-7.23 6.49,-2.92 6.56,-4 5.5,-7.74 a 2,2 0 0 0 -0.06,-0.23 c -0.12,-0.41 -0.25,-0.83 -0.38,-1.25 -0.13,-0.42 -0.23,-0.74 -0.34,-1.12 l 0.24,-0.18 7.57,-6.43 9.15,-6.86 c -1.76,6.65 -3.4,18.38 1.94,21.95 z"
           style="fill:#ffc3bd"
           id="path3197" /><polygon
           points="256.89,413.97 248.72,414.76 243.88,391.74 253.51,390.63 "
           style="fill:#ffc3bd"
           id="polygon3199" /><path
           d="m 245.34,412.86 a 4.34,4.34 0 0 1 2.86,-1.29 L 257,411 a 0.78,0.78 0 0 1 0.86,0.63 l 1.68,8.14 a 1.72,1.72 0 0 1 -1.31,2 h -0.06 c -3.31,0.86 -5.39,0.17 -10.44,0.51 -3.12,0.22 -9.75,1.46 -14,0.76 -4.25,-0.7 -3.71,-4.92 -1.88,-5 6.46,-0.21 11.8,-3.43 13.49,-5.18 z"
           style="fill:#263238"
           id="path3201" /><g
           style="opacity:0.2"
           id="g3205"><polygon
             points="243.87,391.75 246.69,405.14 255.36,403.33 253.52,390.63 "
             id="polygon3203" /></g><path
           d="m 295.09,344 c -0.33,0 -0.66,0 -1,0 a 15.81,15.81 0 0 1 -1.67,-0.12 l -43.74,-2.34 c 7.06,6.47 8.22,58.38 8.22,58.38 l -2.1,0.45 -9.48,2 v 0 l -1.74,0.37 c 0,0 -4,-17 -8.57,-36.5 -2.32,-9.87 -5.33,-20.08 -6.62,-29.88 a 68.36,68.36 0 0 1 -0.63,-7.86 c 0,-0.8 0,-1.6 0,-2.4 a 2.09,2.09 0 0 1 0,-0.25 c 0,-0.34 0,-0.67 0.08,-1 a 8.46,8.46 0 0 1 1.91,-4.3 l 0.32,-0.37 c 0.11,-0.12 0.22,-0.24 0.34,-0.35 a 9.46,9.46 0 0 1 0.73,-0.68 c 0.26,-0.22 0.53,-0.43 0.81,-0.64 l 0.74,-0.51 c 0.3,-0.19 0.61,-0.37 0.93,-0.55 0.16,-0.09 0.32,-0.18 0.49,-0.26 0.5,-0.26 1,-0.51 1.55,-0.74 l 0.47,-0.2 0.64,-0.24 q 0.28,-0.12 0.57,-0.21 c 0.58,-0.21 1.18,-0.41 1.8,-0.58 l 0.31,-0.09 h 0.09 c 16.59,-4.7 44.83,-1.07 44.83,-1.07 0,0 7.45,-5.52 15.38,-6.57 l 1.12,0.13 3.53,0.39 h 0.15 c 11.59,20.42 4.39,35.86 -9.46,35.99 z"
           style="fill:#006642"
           id="path3207" /><g
           style="opacity:0.3"
           id="g3211"><path
             d="m 295.09,344 c -0.33,0 -0.66,0 -1,0 a 15.81,15.81 0 0 1 -1.67,-0.12 l -43.74,-2.34 c 7.06,6.47 8.22,58.38 8.22,58.38 l -2.1,0.45 -9.48,2 v 0 l -1.74,0.37 c 0,0 -4,-17 -8.57,-36.5 -2.32,-9.87 -5.33,-20.08 -6.62,-29.88 a 68.36,68.36 0 0 1 -0.63,-7.86 c 0,-0.8 0,-1.6 0,-2.4 a 2.09,2.09 0 0 1 0,-0.25 c 0,-0.34 0,-0.67 0.08,-1 a 8.46,8.46 0 0 1 1.91,-4.3 l 0.32,-0.37 c 0.11,-0.12 0.22,-0.24 0.34,-0.35 a 9.46,9.46 0 0 1 0.73,-0.68 c 0.26,-0.22 0.53,-0.43 0.81,-0.64 l 0.74,-0.51 c 0.3,-0.19 0.61,-0.37 0.93,-0.55 0.16,-0.09 0.32,-0.18 0.49,-0.26 0.5,-0.26 1,-0.51 1.55,-0.74 l 0.47,-0.2 0.64,-0.24 q 0.28,-0.12 0.57,-0.21 c 0.58,-0.21 1.18,-0.41 1.8,-0.58 l 0.31,-0.09 h 0.09 c 16.59,-4.7 44.83,-1.07 44.83,-1.07 0,0 7.45,-5.52 15.38,-6.57 l 1.12,0.13 3.53,0.39 h 0.15 c 11.59,20.42 4.39,35.86 -9.46,35.99 z"
             style="fill:#ffffff"
             id="path3209" /></g><polygon
           points="195.24,386.47 186.52,387.38 193.13,373.49 197.62,364.04 202.79,374.89 200.45,378.47 "
           style="fill:#ffc3bd"
           id="polygon3213" /><path
           d="m 188.73,381.4 7.22,4.5 a 0.76,0.76 0 0 1 0.34,1 l -3.54,8.26 a 1.69,1.69 0 0 1 -2.27,0.74 v 0 c -3.36,-2.05 -4.87,-3.21 -9.15,-5.71 L 170.68,384 c -3.63,-2.13 -1.67,-5.8 0,-5.24 7.67,2.53 12.79,2.88 16.23,2.32 a 2.64,2.64 0 0 1 1.82,0.32 z"
           style="fill:#263238"
           id="path3215" /><g
           style="opacity:0.2"
           id="g3219"><polygon
             points="202.79,374.89 200.46,378.47 200.45,378.47 193.13,373.49 197.62,364.04 "
             id="polygon3217" /></g><path
           d="m 297.9,344.82 a 22.34,22.34 0 0 1 -2.81,-0.55 c -0.33,-0.08 -0.66,-0.17 -1,-0.28 -8,-2.31 -19.59,-8.64 -30.35,-14.87 -9.91,-5.73 -19.11,-11.38 -24.2,-13.73 h -0.09 l -0.31,0.09 c -0.62,0.17 -1.22,0.37 -1.8,0.58 q -0.28,0.09 -0.57,0.21 l -0.64,0.24 -0.47,0.2 c -0.54,0.23 -1,0.48 -1.55,0.74 -0.17,0.08 -0.33,0.17 -0.49,0.26 -0.32,0.18 -0.63,0.36 -0.93,0.55 l -0.74,0.51 c -0.28,0.21 -0.55,0.42 -0.81,0.64 a 9.46,9.46 0 0 0 -0.73,0.68 c -0.12,0.11 -0.23,0.23 -0.34,0.35 l -0.32,0.37 a 8.46,8.46 0 0 0 -1.91,4.3 c 0,0.32 -0.07,0.65 -0.08,1 0,0.8 0,1.6 0,2.4 a 69.26,69.26 0 0 0 0.6,7.91 v 0.2 C 216.43,358.17 204,377.71 204,377.71 l -2.11,-1.45 -7.6,-5.26 -1.32,-0.91 c 0,0 13.26,-31.07 22.39,-58.75 A 25.26,25.26 0 0 1 239.55,294 c 22.52,0.2 52.08,12.65 52.08,12.65 l 8.12,0.86 1.12,0.13 3.53,0.39 h 0.15 c 1.93,0.21 4,0.37 6.1,0.52 a 11,11 0 0 1 9.86,8.12 c 5.98,21.92 -8.41,29.89 -22.61,28.15 z"
           style="fill:#006642"
           id="path3221" /><g
           style="opacity:0.4"
           id="g3225"><path
             d="m 297.9,344.82 a 22.34,22.34 0 0 1 -2.81,-0.55 c -0.33,-0.08 -0.66,-0.17 -1,-0.28 -8,-2.31 -19.59,-8.64 -30.35,-14.87 -9.91,-5.73 -19.11,-11.38 -24.2,-13.73 h -0.09 l -0.31,0.09 c -0.62,0.17 -1.22,0.37 -1.8,0.58 q -0.28,0.09 -0.57,0.21 l -0.64,0.24 -0.47,0.2 c -0.54,0.23 -1,0.48 -1.55,0.74 -0.17,0.08 -0.33,0.17 -0.49,0.26 -0.32,0.18 -0.63,0.36 -0.93,0.55 l -0.74,0.51 c -0.28,0.21 -0.55,0.42 -0.81,0.64 a 9.46,9.46 0 0 0 -0.73,0.68 c -0.12,0.11 -0.23,0.23 -0.34,0.35 l -0.32,0.37 a 8.46,8.46 0 0 0 -1.91,4.3 c 0,0.32 -0.07,0.65 -0.08,1 0,0.8 0,1.6 0,2.4 a 69.26,69.26 0 0 0 0.6,7.91 v 0.2 C 216.43,358.17 204,377.71 204,377.71 l -2.11,-1.45 -7.6,-5.26 -1.32,-0.91 c 0,0 13.26,-31.07 22.39,-58.75 A 25.26,25.26 0 0 1 239.55,294 c 22.52,0.2 52.08,12.65 52.08,12.65 l 8.12,0.86 1.12,0.13 3.53,0.39 h 0.15 c 1.77,0.19 3.7,0.34 5.6,0.48 a 11.7,11.7 0 0 1 10.49,8.64 c 5.64,21.56 -8.64,29.4 -22.74,27.67 z"
             style="fill:#ffffff"
             id="path3223" /></g><path
           d="m 239.45,315.15 v 0 l -0.31,0.09 z"
           style="fill:#006642"
           id="path3227" /><path
           d="m 296,228.91 a 2,2 0 0 0 -0.06,-0.23 c -0.12,-0.41 -0.25,-0.83 -0.38,-1.25 -0.13,-0.42 -0.23,-0.74 -0.34,-1.12 l 0.24,-0.18 7.57,-6.43 1.72,-1.08 c 1.25,7.2 -5.26,9.74 -8.75,10.29 z"
           style="opacity:0.3;isolation:isolate"
           id="path3229" /><path
           d="m 292.79,195 c -8,4.52 -8.09,17.31 -5.62,24.7 a 11.08,11.08 0 0 0 19.41,3.3 c 3.91,-4.95 3.35,-9.94 3.16,-18.53 -0.19,-8.59 -8.95,-13.97 -16.95,-9.47 z"
           style="fill:#ffc3bd"
           id="path3231" /><path
           d="m 305.45,192.09 c 0,0 0,-4.83 -5.73,-3.56 -4.77,1.05 -10.39,4.42 -13.06,4.61 a 17.1,17.1 0 0 0 -3.58,0.32 3.07,3.07 0 0 0 -2.36,2.43 c -0.09,1.2 1.35,2.36 2.36,1.71 -0.16,0 -0.67,0.19 -0.84,0.17 -0.77,-0.09 -2.43,2.19 -0.88,3.86 2.47,2.66 15.53,-2.31 18.5,-3.19 a 2,2 0 0 1 2.13,0.66 c 1.74,2.24 2.11,6.26 2.11,6.26 a 3.55,3.55 0 0 1 3.06,0.82 c 1.5,1.38 2.09,3.45 2.61,5.42 a 63.2,63.2 0 0 1 1,9.23 c 0.53,-4.4 1.14,-10.89 1.45,-15.34 0.36,-5.56 -1.04,-13.87 -6.77,-13.4 z"
           style="fill:#263238"
           id="path3233" /><path
           d="m 311,207.89 c -2.4,0.54 -3.42,4 -3.35,6.2 0,2.5 1.86,4.14 3.94,2.63 a 7.72,7.72 0 0 0 3,-4.83 c 0.46,-2.37 -1.16,-4.54 -3.59,-4 z"
           style="fill:#ffc3bd"
           id="path3235" /><path
           d="m 293.36,215.77 a 3,3 0 0 1 -2.49,0.38 c 0.93,-2.07 0.81,-1.6 1.09,-5.12 z"
           style="fill:#ed847e"
           id="path3237" /><path
           d="m 298.32,205.18 a 4.82,4.82 0 0 0 -3.57,-0.92 v 0 a 0.39,0.39 0 0 1 -0.44,-0.33 0.43,0.43 0 0 1 0.34,-0.48 c 1.28,-0.2 3.41,0.19 4.28,1.15 v 0 a 0.4,0.4 0 0 1 0,0.57 0.57,0.57 0 0 1 -0.18,0.12 0.42,0.42 0 0 1 -0.43,-0.11 z"
           style="fill:#263238"
           id="path3239" /><path
           d="m 286.49,206.93 v 0 a 0.39,0.39 0 0 1 -0.11,-0.54 4.27,4.27 0 0 1 3.14,-2.15 v 0 a 0.38,0.38 0 0 1 0.38,0.38 0.43,0.43 0 0 1 -0.4,0.44 3.44,3.44 0 0 0 -2.46,1.74 0.44,0.44 0 0 1 -0.33,0.21 0.46,0.46 0 0 1 -0.22,-0.08 z"
           style="fill:#263238"
           id="path3241" /><path
           d="m 293.15,219.39 a 35,35 0 0 1 2.42,3.52 l 0.57,-0.24 c 2.57,-1.12 3.3,-2.67 3.33,-4 a 5.24,5.24 0 0 0 -0.41,-2 5.36,5.36 0 0 0 -0.56,-1.05 c -0.92,1.58 -3.22,2.84 -4.48,3.45 -0.53,0.19 -0.87,0.32 -0.87,0.32 z"
           style="fill:#263238"
           id="path3243" /><path
           d="m 294,219 0.36,0.51 a 0.77,0.77 0 0 0 0.95,0.25 c 1.9,-0.89 3.16,-1.85 3.62,-2.86 a 0.75,0.75 0 0 0 0,-0.62 5.63,5.63 0 0 0 -0.42,-0.73 c -0.93,1.57 -3.23,2.83 -4.51,3.45 z"
           style="fill:#ffffff"
           id="path3245" /><path
           d="m 296.14,222.67 c 2.57,-1.12 3.3,-2.67 3.33,-4 a 7.69,7.69 0 0 0 -2.55,1.92 3.66,3.66 0 0 0 -0.78,2.08 z"
           style="fill:#de5753"
           id="path3247" /><path
           d="m 298.83,215.92 a 1.58,1.58 0 0 1 0,1 2,2 0 0 1 -0.51,1.19 1.81,1.81 0 0 1 -0.88,0.36 5.18,5.18 0 0 1 -3,-0.48 3.33,3.33 0 0 1 -4.54,1.85 v -0.32 a 2,2 0 0 0 0.76,-1.18 6.36,6.36 0 0 1 0.44,-1.36 1.28,1.28 0 0 1 1.14,-0.73 9.9,9.9 0 0 1 2.39,-1 3.52,3.52 0 0 1 2.43,0.38 3.26,3.26 0 0 0 0.85,0.48 c 0.33,0.07 0.86,0.13 0.92,-0.19 z"
           style="fill:#263238"
           id="path3249" /><path
           d="m 289.43,209.83 c -0.44,0.08 -0.7,0.72 -0.56,1.4 0.14,0.68 0.61,1.18 1.05,1.09 0.44,-0.09 0.7,-0.72 0.57,-1.4 -0.13,-0.68 -0.61,-1.17 -1.06,-1.09 z"
           style="fill:#263238"
           id="path3251" /><path
           d="m 297.28,208.53 c -0.45,0.08 -0.7,0.71 -0.57,1.4 0.13,0.69 0.61,1.18 1.05,1.09 0.44,-0.09 0.71,-0.72 0.57,-1.4 -0.14,-0.68 -0.61,-1.17 -1.05,-1.09 z"
           style="fill:#263238"
           id="path3253" /><path
           d="m 320.67,258.65 c -7,4.35 -16.19,10 -17.55,10.32 -12.82,8.1 -17.13,-5.85 -18.05,-7.52 -1.62,-2.9 -2.57,-6.66 -3.85,-9.72 -2.51,-5.9 -5.15,-11.18 -6.9,-17.35 l 6.14,-2.56 c 0,0 12.37,17.55 14,19.83 0.7,1 4.44,5.77 6.48,3.31 1.18,-0.38 14.1,-13.64 20.36,-17.91 a 6.24,6.24 0 0 1 2.34,-1 l 0.28,-0.05 a 6,6 0 0 1 5.26,2 9.32,9.32 0 0 1 0.7,12.09 v 0 a 33.62,33.62 0 0 1 -9.21,8.56 z"
           style="fill:#263238"
           id="path3255" /><g
           style="opacity:0.1"
           id="g3259"><path
             d="m 320.67,258.65 c -7,4.35 -16.19,10 -17.55,10.32 -12.82,8.1 -17.13,-5.85 -18.05,-7.52 -1.62,-2.9 -2.57,-6.66 -3.85,-9.72 -2.51,-5.9 -5.15,-11.18 -6.9,-17.35 l 6.14,-2.56 c 0,0 12.37,17.55 14,19.83 0.7,1 4.44,5.77 6.48,3.31 1.18,-0.38 14.1,-13.64 20.36,-17.91 a 6.24,6.24 0 0 1 2.34,-1 l 0.28,-0.05 a 6,6 0 0 1 5.26,2 9.32,9.32 0 0 1 0.7,12.09 v 0 a 33.62,33.62 0 0 1 -9.21,8.56 z"
             style="fill:#ffffff"
             id="path3257" /></g><path
           d="m 280.17,232.53 v 0 a 5.5,5.5 0 0 1 -7.83,1.82 24,24 0 0 1 -3.86,-3.27 l 6.74,-7.9 4.79,6.51 a 2.61,2.61 0 0 1 0.16,2.84 z"
           style="fill:#ffc3bd"
           id="path3261" /><path
           d="m 275.22,223.18 -6.73,7.93 -3,-2.43 a 4.79,4.79 0 0 1 -1.16,-6.08 l 0.12,-0.21 a 4.79,4.79 0 0 1 6.74,-1.72 z"
           style="fill:#ffc3bd"
           id="path3263" /></g></g></g></svg>
